<svg width="20" height="20" viewBox="0 0 20 20" fill="none" xmlns="http://www.w3.org/2000/svg">
<path d="M2.5 20C1.83696 20 1.20107 19.7366 0.732233 19.2678C0.263392 18.7989 0 18.163 0 17.5V2.5C0 1.83696 0.263392 1.20107 0.732233 0.732233C1.20107 0.263392 1.83696 0 2.5 0L17.5 0C18.163 0 18.7989 0.263392 19.2678 0.732233C19.7366 1.20107 20 1.83696 20 2.5V17.5C20 18.163 19.7366 18.7989 19.2678 19.2678C18.7989 19.7366 18.163 20 17.5 20H2.5ZM10.625 14.375V7.13375L13.3075 9.8175C13.3656 9.87561 13.4346 9.92171 13.5105 9.95315C13.5864 9.9846 13.6678 10.0008 13.75 10.0008C13.8322 10.0008 13.9136 9.9846 13.9895 9.95315C14.0654 9.92171 14.1344 9.87561 14.1925 9.8175C14.2506 9.75939 14.2967 9.6904 14.3282 9.61448C14.3596 9.53856 14.3758 9.45718 14.3758 9.375C14.3758 9.29282 14.3596 9.21144 14.3282 9.13552C14.2967 9.0596 14.2506 8.99061 14.1925 8.9325L10.4425 5.1825C10.3844 5.1243 10.3155 5.07812 10.2395 5.04661C10.1636 5.0151 10.0822 4.99888 10 4.99888C9.91779 4.99888 9.83639 5.0151 9.76046 5.04661C9.68453 5.07812 9.61556 5.1243 9.5575 5.1825L5.8075 8.9325C5.69014 9.04986 5.62421 9.20903 5.62421 9.375C5.62421 9.54097 5.69014 9.70014 5.8075 9.8175C5.92486 9.93486 6.08403 10.0008 6.25 10.0008C6.41597 10.0008 6.57514 9.93486 6.6925 9.8175L9.375 7.13375V14.375C9.375 14.5408 9.44085 14.6997 9.55806 14.8169C9.67527 14.9342 9.83424 15 10 15C10.1658 15 10.3247 14.9342 10.4419 14.8169C10.5592 14.6997 10.625 14.5408 10.625 14.375Z" fill="#4DAF51"/>
</svg>
