<svg width="17" height="18" viewBox="0 0 17 18" fill="none" xmlns="http://www.w3.org/2000/svg">
<path d="M8.59183 0.666992C6.96384 0.666992 5.37242 1.15573 4.0188 2.07141C2.66518 2.98709 1.61017 4.28858 0.987164 5.8113C0.364162 7.33401 0.201156 9.00957 0.51876 10.6261C0.836364 12.2426 1.62031 13.7274 2.77147 14.8929C3.92263 16.0583 5.38929 16.852 6.98599 17.1735C8.5827 17.4951 10.2377 17.3301 11.7418 16.6993C13.2458 16.0686 14.5314 15.0005 15.4358 13.6301C16.3403 12.2597 16.8231 10.6485 16.8231 9.00033C16.8231 7.90598 16.6101 6.82234 16.1965 5.8113C15.7828 4.80025 15.1765 3.88159 14.4122 3.10777C13.6478 2.33395 12.7404 1.72012 11.7418 1.30133C10.7431 0.88254 9.67277 0.666992 8.59183 0.666992ZM9.41495 12.3337C9.41495 12.5547 9.32823 12.7666 9.17386 12.9229C9.0195 13.0792 8.81013 13.167 8.59183 13.167C8.37352 13.167 8.16416 13.0792 8.00979 12.9229C7.85543 12.7666 7.7687 12.5547 7.7687 12.3337V8.16699C7.7687 7.94598 7.85543 7.73402 8.00979 7.57774C8.16416 7.42146 8.37352 7.33366 8.59183 7.33366C8.81013 7.33366 9.0195 7.42146 9.17386 7.57774C9.32823 7.73402 9.41495 7.94598 9.41495 8.16699V12.3337ZM8.59183 6.50033C8.42903 6.50033 8.26989 6.45145 8.13452 6.35988C7.99916 6.26832 7.89366 6.13817 7.83136 5.9859C7.76906 5.83362 7.75276 5.66607 7.78452 5.50442C7.81628 5.34277 7.89468 5.19428 8.00979 5.07774C8.12491 4.96119 8.27157 4.88183 8.43124 4.84967C8.59091 4.81752 8.75642 4.83402 8.90682 4.89709C9.05723 4.96017 9.18578 5.06698 9.27623 5.20402C9.36668 5.34106 9.41495 5.50217 9.41495 5.66699C9.41495 5.88801 9.32823 6.09997 9.17386 6.25625C9.0195 6.41253 8.81013 6.50033 8.59183 6.50033Z" fill="#2296F3"/>
</svg>
