<svg width="40" height="40" viewBox="0 0 40 40" fill="none" xmlns="http://www.w3.org/2000/svg">
<path d="M22 6C22 5.46956 21.7893 4.96086 21.4142 4.58578C21.0391 4.21071 20.5304 4 20 4C19.4696 4 18.9609 4.21071 18.5858 4.58578C18.2107 4.96086 18 5.46956 18 6V8C18 8.53043 18.2107 9.03914 18.5858 9.41421C18.9609 9.78928 19.4696 10 20 10C20.5304 10 21.0391 9.78928 21.4142 9.41421C21.7893 9.03914 22 8.53043 22 8V6Z" fill="#FFEC44"/>
<path d="M31.3142 11.514C31.6785 11.1368 31.8801 10.6316 31.8755 10.1072C31.871 9.58281 31.6606 9.08118 31.2898 8.71037C30.919 8.33955 30.4174 8.12921 29.893 8.12466C29.3686 8.1201 28.8634 8.32169 28.4862 8.686L27.0722 10.1C26.7078 10.4772 26.5063 10.9824 26.5108 11.5068C26.5154 12.0312 26.7257 12.5328 27.0965 12.9036C27.4673 13.2745 27.969 13.4848 28.4934 13.4894C29.0178 13.4939 29.523 13.2923 29.9002 12.928L31.3142 11.514Z" fill="#FFEC44"/>
<path d="M36 20C36 20.5304 35.7893 21.0391 35.4142 21.4142C35.0391 21.7893 34.5304 22 34 22H32C31.4696 22 30.9609 21.7893 30.5858 21.4142C30.2107 21.0391 30 20.5304 30 20C30 19.4696 30.2107 18.9609 30.5858 18.5858C30.9609 18.2107 31.4696 18 32 18H34C34.5304 18 35.0391 18.2107 35.4142 18.5858C35.7893 18.9609 36 19.4696 36 20Z" fill="#FFEC44"/>
<path d="M10.0999 12.928C10.2844 13.119 10.5051 13.2714 10.7491 13.3762C10.9931 13.481 11.2556 13.5362 11.5211 13.5385C11.7867 13.5408 12.0501 13.4902 12.2958 13.3896C12.5416 13.2891 12.7649 13.1406 12.9527 12.9528C13.1405 12.765 13.289 12.5417 13.3896 12.2959C13.4901 12.0501 13.5407 11.7868 13.5384 11.5212C13.5361 11.2556 13.481 10.9932 13.3761 10.7492C13.2713 10.5052 13.119 10.2845 12.9279 10.1L11.5139 8.686C11.1367 8.32169 10.6315 8.1201 10.1071 8.12466C9.58274 8.12921 9.08111 8.33955 8.7103 8.71037C8.33948 9.08118 8.12914 9.58281 8.12459 10.1072C8.12003 10.6316 8.32162 11.1368 8.68594 11.514L10.0999 12.928Z" fill="#FFEC44"/>
<path d="M10 20C10 20.5304 9.78929 21.0391 9.41421 21.4142C9.03914 21.7893 8.53043 22 8 22H6C5.46957 22 4.96086 21.7893 4.58579 21.4142C4.21071 21.0391 4 20.5304 4 20C4 19.4696 4.21071 18.9609 4.58579 18.5858C4.96086 18.2107 5.46957 18 6 18H8C8.53043 18 9.03914 18.2107 9.41421 18.5858C9.78929 18.9609 10 19.4696 10 20Z" fill="#FFEC44"/>
<path d="M16 32V30H24V32C24 33.0609 23.5786 34.0783 22.8284 34.8284C22.0783 35.5786 21.0609 36 20 36C18.9391 36 17.9217 35.5786 17.1716 34.8284C16.4214 34.0783 16 33.0609 16 32Z" fill="#FECD25"/>
<path d="M24 28C24.03 27.32 24.416 26.708 24.954 26.282C26.2594 25.2525 27.2116 23.8419 27.6783 22.2463C28.145 20.6507 28.103 18.9493 27.5582 17.3786C27.0134 15.808 25.9927 14.4461 24.6382 13.4822C23.2837 12.5184 21.6625 12.0004 20 12.0004C18.3375 12.0004 16.7164 12.5184 15.3618 13.4822C14.0073 14.4461 12.9866 15.808 12.4418 17.3786C11.897 18.9493 11.855 20.6507 12.3217 22.2463C12.7884 23.8419 13.7406 25.2525 15.046 26.282C15.586 26.708 15.97 27.32 15.998 28H24.002H24Z" fill="#FFEC44"/>
</svg>
