<svg width="34" height="34" viewBox="0 0 34 34" fill="none" xmlns="http://www.w3.org/2000/svg">
<path d="M0 5C0 2.23858 2.23858 0 5 0H29C31.7614 0 34 2.23858 34 5V29C34 31.7614 31.7614 34 29 34H5C2.23858 34 0 31.7614 0 29V5Z" fill="#0772B6"/>
<path fill-rule="evenodd" clip-rule="evenodd" d="M23.0669 11.8169C23.311 11.5729 23.311 11.1771 23.0669 10.9331C22.8229 10.689 22.4271 10.689 22.1831 10.9331L17 16.1161L11.8169 10.9331C11.5729 10.689 11.1771 10.689 10.9331 10.9331C10.689 11.1771 10.689 11.5729 10.9331 11.8169L16.1161 17L10.9331 22.1831C10.689 22.4271 10.689 22.8229 10.9331 23.0669C11.1771 23.311 11.5729 23.311 11.8169 23.0669L17 17.8839L22.1831 23.0669C22.4271 23.311 22.8229 23.311 23.0669 23.0669C23.311 22.8229 23.311 22.4271 23.0669 22.1831L17.8839 17L23.0669 11.8169Z" fill="white"/>
</svg>
