<svg width="48" height="48" viewBox="0 0 48 48" fill="none" xmlns="http://www.w3.org/2000/svg">
<path d="M24 0C10.728 0 0 10.728 0 24C0 37.272 10.728 48 24 48C37.272 48 48 37.272 48 24C48 10.728 37.272 0 24 0ZM34.32 34.32C34.098 34.5425 33.8342 34.719 33.5439 34.8394C33.2536 34.9599 32.9423 35.0219 32.628 35.0219C32.3137 35.0219 32.0024 34.9599 31.7121 34.8394C31.4218 34.719 31.158 34.5425 30.936 34.32L24 27.384L17.064 34.32C16.6153 34.7687 16.0066 35.0209 15.372 35.0209C14.7374 35.0209 14.1287 34.7687 13.68 34.32C13.2313 33.8713 12.9792 33.2626 12.9792 32.628C12.9792 32.3138 13.041 32.0026 13.1613 31.7123C13.2815 31.422 13.4578 31.1582 13.68 30.936L20.616 24L13.68 17.064C13.2313 16.6153 12.9792 16.0066 12.9792 15.372C12.9792 14.7374 13.2313 14.1287 13.68 13.68C14.1287 13.2313 14.7374 12.9792 15.372 12.9792C16.0066 12.9792 16.6153 13.2313 17.064 13.68L24 20.616L30.936 13.68C31.1582 13.4578 31.422 13.2815 31.7123 13.1613C32.0026 13.041 32.3138 12.9792 32.628 12.9792C32.9422 12.9792 33.2534 13.041 33.5437 13.1613C33.834 13.2815 34.0978 13.4578 34.32 13.68C34.5422 13.9022 34.7185 14.166 34.8387 14.4563C34.959 14.7466 35.0209 15.0578 35.0209 15.372C35.0209 15.6862 34.959 15.9974 34.8387 16.2877C34.7185 16.578 34.5422 16.8418 34.32 17.064L27.384 24L34.32 30.936C35.232 31.848 35.232 33.384 34.32 34.32Z" fill="#F44437"/>
</svg>
