<svg width="56" height="56" viewBox="0 0 56 56" fill="none" xmlns="http://www.w3.org/2000/svg">
<g clip-path="url(#clip0_323_861)">
<path d="M50.3537 35.9375L49.5392 33.7402C47.106 28.9093 41.4252 26.6855 36.3589 28.5807C38.7269 26.0611 42.1762 24.856 45.5983 25.3523C49.0205 25.8491 51.9848 27.9849 53.5389 31.0738L54.3534 33.271C55.6528 38.4956 52.8301 43.8645 47.7893 45.756C50.2574 43.1317 51.2234 39.4336 50.3537 35.9375Z" fill="#D0D6E0"/>
<path d="M5.65016 35.9375L6.4652 33.7402C8.89836 28.9093 14.5787 26.6855 19.6455 28.5807C17.2769 26.0611 13.8282 24.856 10.4061 25.3523C6.98391 25.8491 4.01955 27.9849 2.46549 31.0738L1.65045 33.271C0.351584 38.4956 3.17429 43.8645 8.21507 45.756C5.74702 43.1317 4.78095 39.4336 5.65016 35.9375Z" fill="#D0D6E0"/>
<path d="M5.65016 35.9375L6.4652 33.7402C8.89836 28.9093 14.5787 26.6855 19.6455 28.5807C17.2769 26.0611 13.8282 24.856 10.4061 25.3523C6.98391 25.8491 4.01955 27.9849 2.46549 31.0738L1.65045 33.271C0.351584 38.4956 3.17429 43.8645 8.21507 45.756C5.74702 43.1317 4.78095 39.4336 5.65016 35.9375Z" fill="#D0D6E0"/>
<path d="M33.4997 31.5305L33.4814 35.4187H33.4908C33.5549 33.7324 34.0226 32.0862 34.8558 30.618C34.3809 30.8868 33.9278 31.192 33.4997 31.5305Z" fill="#D0D6E0"/>
<path d="M47.3805 14.4687C46.4243 11.5648 43.7125 9.60345 40.656 9.60345H40.6507C37.74 9.60398 35.1262 11.3856 34.0616 14.0943C34.8861 13.7693 35.7646 13.6026 36.651 13.6032H36.6562C39.7128 13.6032 42.4246 15.5645 43.3808 18.4684L45.955 25.4091C49.2324 26.0017 52.0405 28.0995 53.5389 31.0738L47.3805 14.4687Z" fill="#D0D6E0"/>
<path d="M12.623 18.4684C13.5792 15.5645 16.291 13.6032 19.3481 13.6032H19.3533C20.2397 13.6026 21.1183 13.7693 21.9427 14.0943C20.8777 11.3856 18.2643 9.60398 15.3536 9.60345H15.3484C12.2913 9.60345 9.57952 11.5648 8.62334 14.4687L2.46545 31.0738C3.96326 28.0995 6.77191 26.0017 10.0493 25.4091L12.623 18.4684Z" fill="#D0D6E0"/>
<path d="M21.1475 30.6176C22.0437 32.1956 22.5177 33.9788 22.5224 35.7937L22.502 31.5305C22.0745 31.192 21.6219 30.8863 21.1475 30.6176Z" fill="#D0D6E0"/>
<path d="M28.0089 43.6921C27.1366 43.6921 26.2799 43.4593 25.5284 43.0166L21.3011 40.5236C20.6667 40.1496 20.4558 39.332 20.8297 38.6976C21.2037 38.0633 22.0213 37.8524 22.6556 38.2263L26.8819 40.7194C27.5756 41.1272 28.4354 41.1282 29.1297 40.7225L33.4002 38.2237C34.0355 37.8519 34.8522 38.0659 35.224 38.7013C35.5959 39.3372 35.3823 40.1538 34.747 40.5256L30.4764 43.0239C29.7275 43.4619 28.876 43.6921 28.0089 43.6921Z" fill="#03D4B4"/>
<path d="M11.9299 42.7265C8.12392 42.7265 5.03821 39.6408 5.03821 35.8349C5.03821 32.0289 8.12392 28.9432 11.9299 28.9432C15.7359 28.9432 18.8216 32.0289 18.8216 35.8349C18.8216 39.6408 15.7359 42.7265 11.9299 42.7265ZM11.9299 31.6096C9.59673 31.6096 7.70468 33.5017 7.70468 35.8349C7.70468 38.1685 9.59673 40.0601 11.9299 40.0601C14.2636 40.0601 16.1551 38.1685 16.1551 35.8349C16.1551 33.5017 14.2636 31.6096 11.9299 31.6096Z" fill="#03D4B4"/>
<path d="M43.9171 42.7265C40.1106 42.7265 37.0254 39.6408 37.0254 35.8349C37.0254 32.0289 40.1106 28.9432 43.9171 28.9432C47.7231 28.9432 50.8082 32.0289 50.8082 35.8349C50.8082 39.6408 47.7231 42.7265 43.9171 42.7265ZM43.9171 31.6096C41.5834 31.6096 39.6919 33.5017 39.6919 35.8349C39.6919 38.1685 41.5834 40.0601 43.9171 40.0601C46.2502 40.0601 48.1418 38.1685 48.1418 35.8349C48.1418 33.5017 46.2502 31.6096 43.9171 31.6096Z" fill="#03D4B4"/>
<path d="M55.6454 32.9423L55.6428 32.9329C55.4371 32.109 55.1429 31.3096 54.7658 30.5487L48.6392 14.027C47.3356 10.1138 43.3885 7.72175 39.3164 8.37691C35.2443 9.03259 32.2471 12.5422 32.2378 16.6669L32.2263 19.0829H23.7774L23.7665 16.6669C23.7509 12.5454 20.7537 9.04093 16.6842 8.38733C12.6147 7.73373 8.6702 10.1231 7.36508 14.0327L1.23845 30.5513C0.860869 31.3117 0.56662 32.1111 0.360906 32.935C0.360385 32.9376 0.359343 32.9397 0.358822 32.9423L0.35726 32.948C-0.759325 37.406 0.785354 42.1093 4.32728 45.0373C7.86921 47.9657 12.7788 48.5985 16.9477 46.6637C21.1162 44.7295 23.8024 40.5714 23.8529 35.9759C23.8529 35.9582 23.8555 35.941 23.8555 35.9228V35.7879C23.8555 35.7707 23.8555 35.751 23.8545 35.7332L23.8394 32.4153H32.1628L32.1482 35.4098C32.1482 35.4468 32.1508 35.4843 32.1534 35.5202C32.1503 35.6208 32.1482 35.7239 32.1482 35.8343C32.1508 40.4423 34.8074 44.6368 38.9727 46.608C43.138 48.5792 48.0658 47.9745 51.6311 45.0544C55.196 42.1343 56.7594 37.4222 55.6475 32.9501C55.647 32.9475 55.6459 32.9449 55.6454 32.9423ZM40.6559 10.9366C43.138 10.933 45.341 12.5266 46.1143 14.8853C46.1196 14.9009 46.1248 14.9165 46.1305 14.9322L50.051 25.5043C44.9894 22.5712 38.5461 23.7482 34.849 28.2822L34.9042 16.6576C34.9256 13.4948 37.4931 10.9408 40.6559 10.9366ZM9.87323 14.9322C9.87948 14.9165 9.88469 14.9009 9.8899 14.8853C10.7726 12.2094 13.4646 10.5674 16.2478 11.0074C19.0309 11.4475 21.0854 13.8395 21.1 16.657L21.1542 28.2906C17.4539 23.7633 11.0185 22.5837 5.95269 25.5043L9.87323 14.9322ZM11.9299 45.094C9.091 45.093 6.40942 43.7905 4.65434 41.5599C2.89874 39.3288 2.26285 36.4165 2.92947 33.6568L3.68671 31.6153C5.2668 28.5145 8.45615 26.5657 11.9366 26.5756C17.0222 26.5756 21.2026 30.7128 21.2026 35.7989V35.853C21.2005 36.8957 21.0214 37.93 20.6714 38.9117C19.36 42.615 15.8587 45.0914 11.9299 45.094ZM23.8269 29.7488L23.7899 21.7494H32.2138L32.1753 29.7488H23.8269ZM44.0744 45.094C38.9643 45.0982 34.8188 40.9594 34.8146 35.8499V35.8348C34.8146 35.7062 34.8173 35.5911 34.8225 35.4833V35.4697C34.9881 31.2627 37.9707 27.6969 42.0823 26.7912C46.194 25.885 50.3995 27.8672 52.3175 31.6153L53.0748 33.6568C53.7409 36.416 53.1055 39.3288 51.3499 41.5594C49.5943 43.7905 46.9127 45.093 44.0744 45.094Z" fill="#0772B6"/>
</g>
<defs>
<clipPath id="clip0_323_861">
<rect width="56" height="56" fill="white"/>
</clipPath>
</defs>
</svg>
