<svg width="56" height="56" viewBox="0 0 56 56" fill="none" xmlns="http://www.w3.org/2000/svg">
<g clip-path="url(#clip0_323_883)">
<path d="M24.8396 23.6489V5.00206L27.1787 1.33331H25.7281L20.8396 9.00206V27.6489H46.0422V23.6489H24.8396Z" fill="#D0D6E0"/>
<path d="M22.3907 56C19.3412 56 16.8688 53.5276 16.8688 50.4781C16.8688 47.4286 19.3412 44.9562 22.3907 44.9562C25.4401 44.9562 27.9125 47.4286 27.9125 50.4781C27.9125 53.5276 25.4401 56 22.3907 56ZM22.3907 47.6229C20.8136 47.6229 19.5354 48.901 19.5354 50.4781C19.5354 52.0552 20.8136 53.3333 22.3907 53.3333C23.9672 53.3333 25.2459 52.0552 25.2459 50.4781C25.2459 48.901 23.9672 47.6229 22.3907 47.6229Z" fill="#03D4B4"/>
<path d="M41.2443 56C38.1943 56 35.7224 53.5281 35.7219 50.4781C35.7219 47.4286 38.1943 44.9562 41.2438 44.9562C44.2938 44.9562 46.7657 47.4281 46.7657 50.4781C46.7626 53.526 44.2922 55.9964 41.2443 56ZM41.2443 47.6229C39.6672 47.6229 38.3891 48.901 38.3886 50.4781C38.3886 52.0547 39.6672 53.3333 41.2438 53.3333C42.8209 53.3333 44.099 52.0552 44.099 50.4781C44.0974 48.9021 42.8204 47.625 41.2443 47.6229Z" fill="#03D4B4"/>
<path d="M54.9599 17.6203C54.7089 17.2661 54.2985 17.0589 53.8641 17.0667H45.6651V19.7333H51.9391L47.4948 31.5453C47.4907 31.5557 47.487 31.5521 47.4834 31.563C47.0276 32.8672 45.7948 33.7391 44.4136 33.7333H17.2136L13.6136 14.1719C13.1615 11.3 10.6807 9.18802 7.77345 9.2H2.26668C1.53022 9.2 0.93335 9.79688 0.93335 10.5333C0.93335 11.2698 1.53022 11.8667 2.26668 11.8667H7.77398C9.37554 11.862 10.7396 13.0286 10.9828 14.6109C10.9849 14.6219 10.9865 14.6349 10.9886 14.6458L15.2448 37.7573C15.788 40.5339 18.2224 42.5359 21.0516 42.5333H48.136C48.8719 42.5333 49.4693 41.9365 49.4693 41.2C49.4693 40.4635 48.8719 39.8667 48.136 39.8667H21.0516C19.5026 39.8708 18.1677 38.7781 17.8651 37.2589L17.7052 36.4H44.4136C46.9261 36.401 49.1651 34.8141 49.9969 32.4427L55.1125 18.8359C55.2662 18.4307 55.2089 17.9755 54.9599 17.6203Z" fill="#0772B6"/>
<path d="M20.725 19.6927H13.0183C12.2818 19.6927 11.6849 19.0959 11.6849 18.3594C11.6849 17.6229 12.2818 17.0261 13.0183 17.0261H20.725C21.4615 17.0261 22.0584 17.6229 22.0584 18.3594C22.0584 19.0959 21.4615 19.6927 20.725 19.6927Z" fill="#0772B6"/>
<path d="M36.9619 28.9823C36.2255 28.9823 35.6286 28.3854 35.6286 27.649V19.6854L31.2531 17.851V27.649C31.2531 28.3854 30.6562 28.9823 29.9198 28.9823C29.1833 28.9823 28.5864 28.3854 28.5864 27.649V15.8464C28.5864 15.4 28.8099 14.9828 29.1812 14.7359C29.5531 14.4885 30.0239 14.4438 30.4354 14.6167L37.4776 17.5693C37.9729 17.7771 38.2953 18.2615 38.2953 18.799V27.649C38.2953 28.3854 37.6984 28.9823 36.9619 28.9823Z" fill="#0772B6"/>
<path d="M33.4406 10.3354C32.7042 10.3354 32.1073 9.73854 32.1073 9.00208V1.33333C32.1073 0.596875 32.7042 0 33.4406 0C34.1771 0 34.774 0.596875 34.774 1.33333V9.00208C34.774 9.73854 34.1771 10.3354 33.4406 10.3354Z" fill="#03D4B4"/>
<path d="M46.0422 28.9823H20.8396C20.1031 28.9823 19.5062 28.3854 19.5062 27.649V9.00208C19.5062 8.74844 19.5786 8.49948 19.7151 8.28542L24.6036 0.616667C24.8489 0.232292 25.2729 0 25.7281 0H41.1536C41.6088 0 42.0328 0.232292 42.2781 0.616667L47.1661 8.28542C47.3026 8.49948 47.3755 8.74844 47.3755 9.00208V27.649C47.3755 28.3854 46.7781 28.9823 46.0422 28.9823ZM22.1729 26.3156H44.7088V9.39115L40.4224 2.66667H26.4594L22.1729 9.39115V26.3156Z" fill="#03D4B4"/>
<path d="M46.0422 10.3354H20.8396C20.1031 10.3354 19.5062 9.73855 19.5062 9.0021C19.5062 8.26564 20.1031 7.66876 20.8396 7.66876H46.0422C46.7781 7.66876 47.3755 8.26564 47.3755 9.0021C47.3755 9.73855 46.7781 10.3354 46.0422 10.3354Z" fill="#03D4B4"/>
</g>
<defs>
<clipPath id="clip0_323_883">
<rect width="56" height="56" fill="white"/>
</clipPath>
</defs>
</svg>
