<svg width="56" height="56" viewBox="0 0 56 56" fill="none" xmlns="http://www.w3.org/2000/svg">
<g clip-path="url(#clip0_323_897)">
<path d="M31.612 39.5598C26.7196 39.5593 22.226 36.862 19.9242 32.5448C17.6229 28.2277 17.8887 22.9933 20.6156 18.9311C16.1748 21.9139 13.9642 27.2752 15.0116 32.5208C16.0595 37.7669 20.1603 41.8677 25.4064 42.9156C30.652 43.9635 36.0133 41.7525 38.9962 37.3116C36.8143 38.7809 34.2425 39.564 31.612 39.5598Z" fill="#D0D6E0"/>
<path d="M37.3253 40.4572C37.0059 40.4577 36.6993 40.3307 36.474 40.1045L33.5509 37.1819C33.081 36.7115 33.081 35.9491 33.5509 35.4788C34.0212 35.0089 34.7836 35.0089 35.254 35.4788L38.1766 38.4019C38.5209 38.7462 38.6239 39.264 38.4376 39.7137C38.2514 40.1638 37.8121 40.4572 37.3253 40.4572Z" fill="#03D4B4"/>
<path d="M21.5967 24.7284C21.2773 24.7289 20.9711 24.6019 20.7454 24.3761L17.8227 21.453C17.3524 20.9827 17.3524 20.2203 17.8227 19.75C18.2931 19.2796 19.0555 19.2796 19.5253 19.75L22.4484 22.6726C22.7927 23.0169 22.8957 23.5347 22.7095 23.9848C22.5227 24.4349 22.0839 24.7284 21.5967 24.7279V24.7284Z" fill="#03D4B4"/>
<path d="M34.4029 24.7284C33.9156 24.7289 33.4768 24.4354 33.2901 23.9853C33.1038 23.5352 33.2069 23.0173 33.5511 22.6731L36.4742 19.7504C36.946 19.2923 37.6985 19.298 38.1637 19.7631C38.6288 20.2283 38.6349 20.9808 38.1768 21.453L35.2542 24.3761C35.0284 24.6019 34.7223 24.7289 34.4029 24.7284Z" fill="#03D4B4"/>
<path d="M18.6742 40.4572C18.1874 40.4572 17.7481 40.1638 17.5618 39.7137C17.3756 39.264 17.4786 38.7462 17.8229 38.4019L20.7455 35.4788C21.2158 35.0089 21.9782 35.0089 22.4486 35.4788C22.9184 35.9491 22.9184 36.7115 22.4486 37.1819L19.5255 40.1045C19.3002 40.3307 18.9935 40.4577 18.6742 40.4572Z" fill="#03D4B4"/>
<path d="M27.8224 2.54048C32.2925 2.54048 36.7691 3.80849 40.7683 6.20812C43.4374 7.81336 45.8201 9.85366 47.8171 12.2443L40.7264 12.0106H40.686C40.0299 12.012 39.4956 12.5388 39.4848 13.1954C39.4739 13.8515 39.9913 14.3952 40.6469 14.4182L49.8551 14.7221C50.3113 14.9257 50.8456 14.8269 51.1984 14.4737C51.5516 14.12 51.6499 13.5857 51.4453 13.13L51.1414 3.92325C51.1269 3.25821 50.5756 2.73096 49.9106 2.74601C49.2455 2.76059 48.7188 3.31182 48.7333 3.97687C48.7333 3.98534 48.7333 3.9938 48.7343 4.00227L48.9271 9.84848C46.9136 7.61629 44.5817 5.69358 42.0071 4.1429C37.634 1.51892 32.7289 0.132385 27.822 0.132385C19.9839 0.132385 12.7573 3.3645 7.47544 9.23282C5.11861 11.8629 3.24481 14.8881 1.93965 18.1696C0.670692 21.3758 0 24.7599 0 27.9548C0 28.6199 0.538999 29.1589 1.20405 29.1589C1.8691 29.1589 2.40809 28.6199 2.40809 27.9548C2.40809 22.0117 4.9714 15.6147 9.26552 10.8442C14.0845 5.48899 20.6748 2.54048 27.8224 2.54048Z" fill="#0772B6"/>
<path d="M54.7954 26.7509C54.1303 26.7509 53.5913 27.2899 53.5913 27.9549C53.5913 33.898 51.028 40.2945 46.7339 45.0655C41.9149 50.4203 35.3246 53.3692 28.177 53.3692C23.707 53.3692 19.2304 52.1008 15.2311 49.7016C12.562 48.0959 10.1793 46.0556 8.18275 43.6649L15.273 43.8987C15.9362 43.9184 16.4902 43.3982 16.5123 42.7351C16.534 42.0719 16.0152 41.516 15.3525 41.492L6.14434 41.1881C5.68859 40.985 5.15429 41.0837 4.80155 41.4369C4.4488 41.7902 4.35097 42.3245 4.55509 42.7802L4.85893 51.9865C4.86786 52.4168 5.10585 52.81 5.48352 53.017C5.86073 53.2244 6.32024 53.214 6.68804 52.9902C7.05631 52.7663 7.27643 52.3632 7.26608 51.9328C7.26608 51.9239 7.26608 51.9154 7.26561 51.907L7.07277 46.0612C9.08579 48.293 11.4177 50.2157 13.9928 51.7664C18.3659 54.3903 23.271 55.7773 28.1775 55.7773C36.016 55.7773 43.2426 52.5452 48.5245 46.6764C50.8808 44.0463 52.7546 41.0212 54.0598 37.7401C55.3292 34.5334 55.9999 31.1499 55.9999 27.9549C55.9999 27.2899 55.4609 26.7509 54.7958 26.7509H54.7954Z" fill="#0772B6"/>
<path d="M29.2037 29.5361V24.9052C29.2037 24.2402 28.6647 23.7012 27.9997 23.7012C27.3347 23.7012 26.7957 24.2402 26.7957 24.9052V30.0586C26.7957 30.3921 26.9339 30.7105 27.1776 30.9382L31.3969 34.8805C31.879 35.3386 32.6409 35.3193 33.099 34.8372C33.5571 34.3551 33.5378 33.5927 33.0558 33.1346L33.0407 33.121L29.2037 29.5361Z" fill="#0772B6"/>
<path d="M13.551 29.9274C13.551 37.7509 19.7777 44.1525 27.5979 44.3703C35.4181 44.5876 41.991 38.5415 42.4261 30.7302C42.8606 22.9195 36.9998 16.181 29.2036 15.5291V13.9879H30.7209C31.3855 13.9879 31.925 13.4489 31.925 12.7838C31.925 12.1188 31.3855 11.5798 30.7209 11.5798H25.2797C24.6146 11.5798 24.0756 12.1188 24.0756 12.7838C24.0756 13.4489 24.6146 13.9879 25.2797 13.9879H26.7955V15.5291C19.3131 16.1636 13.56 22.4181 13.551 29.9274ZM39.9799 28.6772H37.0549C36.3898 28.6772 35.8508 29.2162 35.8508 29.8813C35.8508 30.5463 36.3898 31.0853 37.0549 31.0853H39.9799C39.4366 36.805 34.921 41.34 29.2036 41.9081V38.9822C29.2036 38.3171 28.6646 37.7781 27.9996 37.7781C27.3345 37.7781 26.7955 38.3171 26.7955 38.9822V41.9081C21.0782 41.34 16.5626 36.805 16.0193 31.0853H18.9453C19.6103 31.0853 20.1493 30.5463 20.1493 29.8813C20.1493 29.2162 19.6103 28.6772 18.9453 28.6772H16.0193C16.5861 23.0182 21.1158 18.5134 26.7955 17.9471V20.8721C26.7955 21.5372 27.3345 22.0761 27.9996 22.0761C28.6646 22.0761 29.2036 21.5372 29.2036 20.8721V17.9471C34.8834 18.5134 39.4141 23.0182 39.9799 28.6772Z" fill="#0772B6"/>
</g>
<defs>
<clipPath id="clip0_323_897">
<rect width="56" height="56" fill="white"/>
</clipPath>
</defs>
</svg>
