<svg width="56" height="56" viewBox="0 0 56 56" fill="none" xmlns="http://www.w3.org/2000/svg">
<g clip-path="url(#clip0_323_913)">
<path d="M23.4 1.34685L34.0401 1.35988V6.69321L30.5865 6.66665H18.5334C15.5875 6.66561 13.199 9.05415 13.2 12V54.4932C10.2542 54.4943 7.86566 52.1057 7.8667 49.1599V6.66665C7.86566 3.72081 10.2542 1.33227 13.2 1.33331L23.4 1.34685Z" fill="#D0D6E0"/>
<path d="M34.7866 0.413542C34.5652 0.198958 34.2793 0.0635416 33.9736 0.0265625L33.6668 0H13.2001C9.51886 0.00156251 6.53501 2.98542 6.53345 6.66667V49.3333C6.53501 53.0146 9.51886 55.9984 13.2001 56H42.8933C46.5746 55.9984 49.559 53.0146 49.56 49.3333V15.7198C49.5574 15.3667 49.4189 15.0276 49.1736 14.7734L34.7866 0.413542ZM35.147 4.54688L45.0402 14.4135H39.147C36.9402 14.4068 35.1532 12.6198 35.147 10.4135V4.54688ZM42.9069 53.3333H13.2001C10.9939 53.3271 9.20636 51.5396 9.20011 49.3333V6.66667C9.20636 4.46042 10.9939 2.67292 13.2001 2.66667H32.4803V10.4135C32.4814 14.0948 35.4652 17.0786 39.147 17.0802H46.8933V49.3333C46.898 51.5391 45.1126 53.3307 42.9069 53.3333Z" fill="#0772B6"/>
<path d="M17.7469 25.7333H29.4933C30.2297 25.7333 30.8266 25.1364 30.8266 24.4C30.8266 23.6635 30.2297 23.0667 29.4933 23.0667H17.7469C17.0104 23.0667 16.4136 23.6635 16.4136 24.4C16.4136 25.1364 17.0104 25.7333 17.7469 25.7333Z" fill="#03D4B4"/>
<path d="M41.0266 33.1469H17.7469C17.0104 33.1469 16.4136 33.7437 16.4136 34.4802C16.4136 35.2161 17.0104 35.8135 17.7469 35.8135H41.0266C41.7631 35.8135 42.3599 35.2161 42.3599 34.4802C42.3599 33.7437 41.7631 33.1469 41.0266 33.1469Z" fill="#03D4B4"/>
<path d="M41.0266 43.2401H17.7469C17.0104 43.2401 16.4136 43.837 16.4136 44.5734C16.4136 45.3099 17.0104 45.9068 17.7469 45.9068H41.0266C41.7631 45.9068 42.3599 45.3099 42.3599 44.5734C42.3599 43.837 41.7631 43.2401 41.0266 43.2401Z" fill="#03D4B4"/>
</g>
<defs>
<clipPath id="clip0_323_913">
<rect width="56" height="56" fill="white"/>
</clipPath>
</defs>
</svg>
