<svg width="1440" height="89" viewBox="0 0 1440 89" fill="none" xmlns="http://www.w3.org/2000/svg">
<path fill-rule="evenodd" clip-rule="evenodd" d="M0 21.4257L30 30.811C60 40.1963 120 58.967 180 68.3523C240 77.7376 300 77.7376 360 70.2294C420 62.7211 480 47.7046 540 47.7046C600 47.7046 660 62.7211 720 62.7211C780 62.7211 840 47.7046 900 45.8275C960 43.9504 1020 55.2128 1080 47.7046C1140 40.1963 1200 13.9174 1260 4.53209C1320 -4.85324 1380 2.65502 1410 6.40915L1440 10.1633V89H1410C1380 89 1320 89 1260 89C1200 89 1140 89 1080 89C1020 89 960 89 900 89C840 89 780 89 720 89C660 89 600 89 540 89C480 89 420 89 360 89C300 89 240 89 180 89C120 89 60 89 30 89H0V21.4257Z" fill="white"/>
</svg>
