<svg width="1440" height="207" viewBox="0 0 1440 207" fill="none" xmlns="http://www.w3.org/2000/svg">
<path fill-rule="evenodd" clip-rule="evenodd" d="M0 26.5C40 10.7777 159.6 -9.22219 240 6.22225C320.4 21.6667 399.6 21.6667 480 16.5186C560.4 11.3704 639.6 1.0741 720 11.3704C800.4 21.6667 879.6 52.5556 960 47.4074C1040.4 42.2593 1099.5 -6.37264 1168.5 16.5186C1286 55.4999 1399.2 -9.22218 1440 16.5186V207H1400.4C1359.6 207 1280.4 207 1200 207C1119.6 207 1040.4 207 960 207C879.6 207 800.4 207 720 207C639.6 207 560.4 207 480 207C399.6 207 320.4 207 240 207C159.6 207 80.4 207 39.6 207H0V26.5Z" fill="#F3F5F4"/>
</svg>
