<svg width="24" height="24" viewBox="0 0 24 24" fill="none" xmlns="http://www.w3.org/2000/svg">
<g clip-path="url(#clip0)">
<path d="M5.56679 21.5989C4.4422 21.5989 3.53029 20.687 3.53029 19.5622V3.38833C3.53052 3.30954 3.53521 3.23075 3.54436 3.15244H3.16613C2.04131 3.15244 1.12939 4.06435 1.12939 5.18917V21.363C1.12939 22.4879 2.04107 23.3995 3.16566 23.3998H20.897C21.9303 23.3995 22.7998 22.6255 22.9196 21.5989H5.56679Z" fill="#D0D6E0"/>
<path d="M7.55322 2.55258H16.5099V3.75315H7.55322V2.55258Z" fill="#0772B6"/>
<path d="M20.8971 24H3.16584C1.71039 23.9984 0.530694 22.8187 0.529053 21.363V5.18914C0.53046 3.73345 1.71015 2.55352 3.16584 2.55188H4.46067V3.75244H3.16584C2.37304 3.75338 1.73056 4.39587 1.72962 5.1889V21.363C1.73056 22.156 2.37304 22.7985 3.16584 22.7995H20.8971C21.6902 22.7985 22.3327 22.156 22.3336 21.363V5.18914C22.3327 4.39611 21.6902 3.75338 20.8971 3.75244H19.5878V2.55188H20.8971C22.3528 2.55352 23.5325 3.73322 23.5342 5.1889V21.363C23.5325 22.8187 22.3528 23.9984 20.8971 24Z" fill="#0772B6"/>
<path d="M1.12939 8.48108H22.9651V9.68164H1.12939V8.48108Z" fill="#0772B6"/>
<path d="M6.00682 5.54628C4.82173 5.54511 3.86151 4.58466 3.86011 3.3998V2.13546C3.86644 0.954121 4.82572 0 6.00682 0C7.18792 0 8.1472 0.954121 8.15353 2.13546V3.3998C8.15236 4.58466 7.19191 5.54511 6.00682 5.54628ZM6.00682 1.18931C5.48462 1.18978 5.06137 1.61302 5.06067 2.13546V3.3998C5.06489 3.91919 5.4872 4.33821 6.00682 4.33821C6.52644 4.33821 6.94875 3.91919 6.95297 3.3998V2.13546C6.9525 1.61302 6.52925 1.18978 6.00682 1.18931Z" fill="#03D4B4"/>
<path d="M18.0561 5.54628C16.871 5.54511 15.9106 4.58466 15.9092 3.3998V2.13546C15.9155 0.954121 16.8748 0 18.0559 0C19.2372 0 20.1965 0.954121 20.2026 2.13546V3.3998C20.2014 4.58466 19.241 5.54511 18.0561 5.54628ZM18.0561 1.18931C17.5337 1.18978 17.1104 1.61302 17.1097 2.13546V3.3998C17.114 3.91919 17.5363 4.33821 18.0559 4.33821C18.5755 4.33821 18.9981 3.91919 19.002 3.3998V2.13546C19.0016 1.61302 18.5783 1.19001 18.0561 1.18931Z" fill="#03D4B4"/>
<path d="M14.2394 20.3454C14.1437 20.3454 14.0495 20.3226 13.9644 20.2788L12.0315 19.2827L10.0986 20.2788C9.89603 20.3831 9.6517 20.3637 9.4681 20.2288C9.2845 20.0938 9.19328 19.8666 9.23244 19.6419L9.59847 17.5477L8.04407 16.0623C7.87805 15.9035 7.81709 15.6636 7.88743 15.4449C7.95754 15.2261 8.14677 15.0664 8.37422 15.034L10.5324 14.7266L11.4952 12.8139C11.5972 12.6113 11.8045 12.4836 12.0315 12.4836C12.2582 12.4836 12.4655 12.6113 12.5675 12.8139L13.5306 14.7266L15.6885 15.034C15.9162 15.0664 16.1052 15.2261 16.1756 15.4449C16.2457 15.6636 16.1849 15.9035 16.0187 16.0623L14.4643 17.5477L14.8305 19.6419C14.861 19.8166 14.8127 19.9958 14.6988 20.1315C14.5846 20.2673 14.4164 20.3456 14.2392 20.3456L14.2394 20.3454ZM12.0315 18.0071C12.1272 18.0071 12.2214 18.0298 12.3065 18.0737L13.4398 18.6575L13.2267 17.4382C13.192 17.2408 13.2583 17.0391 13.403 16.9008L14.2957 16.048L13.051 15.8707C12.8564 15.843 12.6878 15.7218 12.5994 15.5464L12.0317 14.4185L11.4638 15.5464C11.3754 15.7218 11.2068 15.843 11.0124 15.8707L9.76754 16.048L10.6602 16.9008C10.8049 17.0391 10.8713 17.2408 10.8368 17.4382L10.6234 18.6575L11.7567 18.0734C11.8416 18.0296 11.9358 18.0068 12.0315 18.0071Z" fill="#03D4B4"/>
</g>
<defs>
<clipPath id="clip0">
<rect width="24" height="24" fill="white"/>
</clipPath>
</defs>
</svg>
