<svg width="21" height="20" viewBox="0 0 21 20" fill="none" xmlns="http://www.w3.org/2000/svg">
<path fill-rule="evenodd" clip-rule="evenodd" d="M10.4131 7.5C10.7583 7.5 11.0381 7.77982 11.0381 8.125V11.25C11.0381 11.5952 10.7583 11.875 10.4131 11.875C10.0679 11.875 9.78809 11.5952 9.78809 11.25V8.125C9.78809 7.77982 10.0679 7.5 10.4131 7.5Z" fill="#F44437"/>
<path fill-rule="evenodd" clip-rule="evenodd" d="M9.47658 2.12569C9.7614 1.96145 10.0844 1.875 10.4132 1.875C10.742 1.875 11.065 1.96145 11.3498 2.12569C11.6346 2.28992 11.8712 2.52616 12.0359 2.81071L11.4997 3.12111L12.0359 2.81071L18.9091 14.6851C19.0741 14.9701 19.1611 15.2935 19.1613 15.6228C19.1616 15.9522 19.0751 16.2757 18.9106 16.561C18.7462 16.8463 18.5094 17.0832 18.2243 17.2479C17.9391 17.4127 17.6156 17.4994 17.2863 17.4994H3.54004C3.21073 17.4994 2.88724 17.4127 2.60209 17.2479C2.31695 17.0832 2.08022 16.8463 1.91573 16.561C1.75123 16.2757 1.66477 15.9522 1.66504 15.6228C1.66531 15.2935 1.75231 14.9701 1.91728 14.6851L8.79042 2.81071L9.34043 3.12907L8.79042 2.81071C8.95513 2.52616 9.19176 2.28992 9.47658 2.12569ZM10.4132 3.125C10.3036 3.125 10.1959 3.15382 10.101 3.20856C10.006 3.26331 9.92717 3.34205 9.87226 3.4369L2.99912 15.3113L2.4582 14.9982L2.99912 15.3113C2.94413 15.4063 2.91513 15.5141 2.91504 15.6239C2.91495 15.7337 2.94377 15.8415 2.9986 15.9366C3.05343 16.0317 3.13234 16.1107 3.22739 16.1656C3.32244 16.2205 3.43027 16.2494 3.54004 16.2494H17.2863C17.3961 16.2494 17.5039 16.2205 17.599 16.1656C17.694 16.1107 17.7729 16.0317 17.8278 15.9366C17.8826 15.8415 17.9114 15.7337 17.9113 15.6239C17.9112 15.5141 17.8822 15.4063 17.8273 15.3113L18.3682 14.9982L17.8273 15.3113L10.9541 3.4369C10.8992 3.34205 10.8203 3.26331 10.7254 3.20856C10.6304 3.15382 10.5228 3.125 10.4132 3.125Z" fill="#F44437"/>
<path d="M10.4131 15C10.9309 15 11.3506 14.5803 11.3506 14.0625C11.3506 13.5447 10.9309 13.125 10.4131 13.125C9.89532 13.125 9.47559 13.5447 9.47559 14.0625C9.47559 14.5803 9.89532 15 10.4131 15Z" fill="#F44437"/>
</svg>
