<svg width="200" height="42" viewBox="0 0 200 42" fill="none" xmlns="http://www.w3.org/2000/svg">
<g clip-path="url(#clip0_757_467)">
<path d="M169.003 20.2668H161.092C159.369 20.2685 157.718 20.9535 156.5 22.1716C155.282 23.3896 154.596 25.0412 154.595 26.7637V30.8136C154.596 32.5357 155.281 34.1869 156.499 35.4046C157.717 36.6224 159.368 37.3073 161.09 37.3089H169.003C170.725 37.3073 172.377 36.6224 173.595 35.4047C174.813 34.187 175.498 32.5359 175.5 30.8136V26.7637C175.498 25.0412 174.813 23.3896 173.595 22.1716C172.377 20.9535 170.726 20.2685 169.003 20.2668ZM158.255 29.4989V26.7637C158.255 26.011 158.554 25.2891 159.086 24.7564C159.618 24.2237 160.339 23.9238 161.092 23.9226H169.003C169.756 23.923 170.479 24.2225 171.011 24.7552C171.544 25.2879 171.844 26.0103 171.844 26.7637V30.8136C171.844 31.1869 171.771 31.5566 171.629 31.9015C171.486 32.2465 171.277 32.56 171.013 32.824C170.749 33.088 170.436 33.2974 170.091 33.4403C169.746 33.5831 169.376 33.6565 169.003 33.6563H161.092C160.339 33.655 159.618 33.3553 159.086 32.823C158.555 32.2907 158.256 31.5691 158.255 30.8167V29.4989Z" fill="white"/>
<path d="M99.3971 20.2668H95.7445V26.7637V30.8136C95.7445 31.5661 95.4458 32.2879 94.9139 32.8203C94.3821 33.3528 93.6606 33.6523 92.908 33.6531H84.9953C84.2426 33.6523 83.5209 33.3528 82.9889 32.8204C82.4568 32.2881 82.1577 31.5663 82.1573 30.8136V29.4958V26.7606V20.2668H78.4968V30.8167C78.4989 32.5387 79.1839 34.1896 80.4015 35.4073C81.6192 36.625 83.2701 37.31 84.9922 37.312H92.9049C94.627 37.31 96.2779 36.625 97.4955 35.4073C98.7132 34.1896 99.3982 32.5387 99.4003 30.8167V20.2668H99.3971Z" fill="white"/>
<path d="M178.288 37.312H181.942V30.8167V26.7668C181.942 26.014 182.241 25.292 182.773 24.7595C183.306 24.227 184.028 23.9277 184.78 23.9273H192.692C193.444 23.9277 194.166 24.227 194.698 24.7595C195.231 25.292 195.53 26.014 195.53 26.7668V37.3151H199.188V26.7637C199.187 25.0413 198.503 23.3897 197.285 22.1717C196.067 20.9536 194.416 20.2685 192.693 20.2668H184.782C183.059 20.2689 181.408 20.9541 180.19 22.172C178.972 23.39 178.287 25.0413 178.285 26.7637V37.312H178.288Z" fill="white"/>
<path d="M108.237 23.9226H122.766V20.2668H108.237C106.546 20.2693 104.926 20.942 103.73 22.1373C102.535 23.3327 101.862 24.9533 101.86 26.6438V31.0052V31.1765C101.928 32.8217 102.628 34.3773 103.814 35.5195C105 36.6618 106.581 37.3027 108.227 37.3089H122.757V33.6453H108.237C107.757 33.6464 107.286 33.5198 106.872 33.2787C106.457 33.0375 106.114 32.6904 105.878 32.2731C105.271 31.3385 105.519 26.6391 105.519 26.6391C105.52 25.9189 105.807 25.2287 106.317 24.7195C106.826 24.2104 107.516 23.9238 108.237 23.9226Z" fill="white"/>
<path d="M124.922 20.2668V23.9226H131.308C132.006 23.9242 132.676 24.1938 133.181 24.6756C133.685 25.1574 133.985 25.8146 134.019 26.5114C134.019 26.555 134.019 26.5986 134.019 26.6438V31.0052V31.1749V37.312H137.674V31.1749V31.0052V26.6438C137.674 26.5986 137.674 26.555 137.674 26.5114C137.708 25.8145 138.009 25.1573 138.513 24.6755C139.018 24.1937 139.689 23.9242 140.386 23.9226H146.773V20.2668H124.922Z" fill="white"/>
<path d="M152.333 20.2643H148.721V37.3063H152.333V20.2643Z" fill="white"/>
<path d="M70.6994 20.2668H60.4579C59.1193 20.2732 57.8314 20.78 56.8474 21.6876C55.8635 22.5953 55.2545 23.8381 55.1402 25.1718L55.1168 37.3105H58.7741V33.7809C58.7781 33.0357 59.0739 32.3218 59.598 31.7922C60.1221 31.2626 60.8328 30.9593 61.5779 30.9475H69.5576C70.3033 30.9581 71.015 31.2612 71.5394 31.7914C72.0638 32.3217 72.359 33.0367 72.3614 33.7824V37.3105H76.0202V33.7824C76.0202 32.1781 76.0374 27.0753 76.0374 25.6049C76.0353 24.1898 75.4723 22.8332 74.4716 21.8326C73.471 20.832 72.1145 20.2689 70.6994 20.2668ZM60.4579 23.9257H70.6994C71.1348 23.9318 71.551 24.1064 71.8603 24.413C72.1696 24.7196 72.348 25.1342 72.3579 25.5696C72.3678 26.005 72.2084 26.4273 71.9133 26.7476C71.6182 27.0679 71.2104 27.2613 70.7757 27.2871H60.4455C60.2248 27.2863 60.0064 27.242 59.8028 27.1568C59.5992 27.0716 59.4144 26.9471 59.2589 26.7904C59.1034 26.6338 58.9803 26.448 58.8966 26.2438C58.8129 26.0396 58.7702 25.8209 58.771 25.6002C58.7718 25.3795 58.8161 25.1611 58.9013 24.9575C58.9866 24.7539 59.111 24.5691 59.2677 24.4136C59.4243 24.2581 59.6101 24.135 59.8143 24.0513C60.0185 23.9676 60.2372 23.9249 60.4579 23.9257Z" fill="white"/>
<path d="M81.4517 6.99701H79.3131V10.7992V13.1699C79.3126 13.6103 79.1376 14.0326 78.8264 14.3441C78.5151 14.6557 78.093 14.8311 77.6526 14.8319H73.0202C72.5797 14.8315 72.1574 14.6562 71.846 14.3446C71.5347 14.0329 71.3598 13.6104 71.3598 13.1699V6.99701H69.2196V13.1699C69.2192 14.1787 69.6192 15.1465 70.3319 15.8606C71.0445 16.5746 72.0114 16.9767 73.0202 16.9783H77.6495C78.6575 16.9771 79.6239 16.5761 80.3367 15.8633C81.0495 15.1505 81.4504 14.1842 81.4517 13.1761V6.99701Z" fill="white"/>
<path d="M96.7834 16.9783H98.9205V13.1699V10.7992C98.9205 10.3585 99.0954 9.93587 99.4067 9.62398C99.718 9.31209 100.14 9.13646 100.581 9.13564H105.212C105.652 9.13646 106.075 9.31209 106.386 9.62398C106.697 9.93587 106.872 10.3585 106.872 10.7992V16.9783H109.014V10.7992C109.013 9.79131 108.613 8.82493 107.9 8.1121C107.187 7.39928 106.221 6.99825 105.213 6.99701H100.584C99.5763 6.99866 98.6103 7.39982 97.8979 8.11256C97.1855 8.82529 96.7847 9.79144 96.7834 10.7992V16.9783Z" fill="white"/>
<path d="M114.262 9.13564H122.763V6.99701H114.262C113.272 6.99907 112.323 7.39384 111.623 8.09469C110.924 8.79553 110.531 9.74521 110.531 10.7353V13.3833C110.571 14.3454 110.981 15.2549 111.675 15.9223C112.369 16.5897 113.294 16.9635 114.257 16.9659H122.759V14.8288H122.749C122.776 13.8085 122.741 11.3817 122.741 11.3817H115.279V13.5204H120.601C120.583 13.8727 120.43 14.2046 120.174 14.4476C119.918 14.6907 119.579 14.8265 119.226 14.8272H114.262C113.981 14.8274 113.704 14.7525 113.462 14.6104C113.219 14.4683 113.019 14.2641 112.882 14.0188C112.526 13.4752 112.671 10.7213 112.671 10.7213C112.673 10.3006 112.842 9.89775 113.14 9.60069C113.438 9.30363 113.841 9.13646 114.262 9.13564Z" fill="white"/>
<path d="M64.2335 6.99709H58.2413C57.4574 6.99967 56.703 7.2956 56.1264 7.82662C55.5498 8.35764 55.193 9.08527 55.126 9.86624L55.1151 16.9784H57.2553V14.9052C57.2561 14.4678 57.4285 14.0483 57.7356 13.7368C58.0427 13.4254 58.4597 13.247 58.897 13.2401H63.5699C64.0072 13.247 64.4242 13.4257 64.7308 13.7376C65.0374 14.0494 65.209 14.4694 65.2086 14.9067V16.9784H67.3503V14.9067C67.3523 13.9754 67.0101 13.0761 66.3893 12.3818C66.8454 11.9529 67.1618 11.3964 67.297 10.7851C67.4322 10.1737 67.3801 9.53573 67.1473 8.95443C66.9146 8.37312 66.5121 7.87544 65.9923 7.52629C65.4726 7.17713 64.8596 6.99271 64.2335 6.99709ZM58.2413 9.13727H64.2335C64.489 9.13971 64.7336 9.24142 64.9155 9.4209C65.0974 9.60039 65.2024 9.84357 65.2083 10.0991C65.2141 10.3545 65.1204 10.6023 64.9469 10.7899C64.7735 10.9776 64.5338 11.0904 64.2787 11.1046H58.2335C57.9794 11.0935 57.7394 10.9845 57.5639 10.8004C57.3884 10.6164 57.2909 10.3715 57.2919 10.1172C57.2929 9.86284 57.3923 9.61876 57.5693 9.43609C57.7463 9.25342 57.9871 9.14633 58.2413 9.13727Z" fill="white"/>
<path d="M91.8785 6.99701H85.8847C85.101 6.99995 84.3467 7.296 83.7702 7.82695C83.1937 8.3579 82.8367 9.08532 82.7694 9.86617L82.7585 16.9783H84.9003V14.9051C84.9006 14.4679 85.0728 14.0483 85.3796 13.7369C85.6864 13.4254 86.1033 13.2469 86.5405 13.24H91.2134C91.6509 13.2465 92.0683 13.4251 92.3753 13.737C92.6822 14.0489 92.854 14.4691 92.8536 14.9067V16.9783H94.9937V14.9067C94.9937 13.9721 95.0046 10.9799 95.0046 10.1201C95.0034 9.29162 94.6735 8.4975 94.0875 7.912C93.5014 7.32649 92.7069 6.99742 91.8785 6.99701ZM85.8847 9.1372H91.8785C92.134 9.13963 92.3786 9.24134 92.5605 9.42083C92.7424 9.60031 92.8474 9.8435 92.8533 10.099C92.8591 10.3545 92.7654 10.6022 92.5919 10.7899C92.4185 10.9775 92.1788 11.0903 91.9237 11.1045H85.8785C85.6244 11.0944 85.384 10.9863 85.2078 10.803C85.0316 10.6196 84.9332 10.3751 84.9332 10.1208C84.9332 9.86653 85.0316 9.62209 85.2078 9.43873C85.384 9.25537 85.6244 9.14731 85.8785 9.1372H85.8847Z" fill="white"/>
<path fill-rule="evenodd" clip-rule="evenodd" d="M22.8083 34.9454C21.69 34.9475 20.5878 35.2113 19.5897 35.7158C18.5917 36.2202 17.7256 36.9512 17.0607 37.8504C20.0328 33.6309 24.2065 30.404 29.0384 28.5899C33.8702 26.7757 39.1363 26.4583 44.151 27.679C45.0495 29.0859 45.5531 30.7084 45.6093 32.3767C45.6655 34.045 45.272 35.6977 44.4703 37.1618C43.6685 38.6259 42.4878 39.8475 41.0519 40.6986C39.6159 41.5498 37.9776 41.9993 36.3083 41.9999C31.109 41.9999 28.4096 37.623 28.5607 37.8504C27.8953 36.9506 27.0284 36.2192 26.0295 35.7147C25.0306 35.2102 23.9274 34.9468 22.8083 34.9454Z" fill="url(#paint0_linear_757_467)"/>
<path fill-rule="evenodd" clip-rule="evenodd" d="M17.0608 37.8505C20.0329 33.631 24.2066 30.4041 29.0385 28.59C33.8703 26.7758 39.1364 26.4584 44.1511 27.6791L30.8988 4.70405C30.919 4.73988 28.4486 0 22.8084 0C17.1682 0 14.6963 4.73988 14.7165 4.70405L1.46575 27.6791C0.566307 29.0856 0.0617673 30.7082 0.0050139 32.3768C-0.0517395 34.0453 0.341383 35.6984 1.14318 37.1628C1.94497 38.6272 3.12592 39.8489 4.56224 40.7C5.99855 41.551 7.63735 42.0001 9.30687 42C14.3271 42 17.0172 37.9206 17.0608 37.8427C17.0614 37.8452 17.0614 37.8479 17.0608 37.8505Z" fill="url(#paint1_linear_757_467)"/>
</g>
<defs>
<linearGradient id="paint0_linear_757_467" x1="41.6105" y1="44.989" x2="24.6214" y2="26.1136" gradientUnits="userSpaceOnUse">
<stop offset="0.1" stop-color="#00ACCC"/>
<stop offset="1" stop-color="#0A72BA"/>
</linearGradient>
<linearGradient id="paint1_linear_757_467" x1="40.6028" y1="3.35514" x2="2.85049" y2="46.2991" gradientUnits="userSpaceOnUse">
<stop stop-color="#8CC640"/>
<stop offset="0.14" stop-color="#81C141"/>
<stop offset="0.39" stop-color="#64B444"/>
<stop offset="0.59" stop-color="#49A847"/>
<stop offset="0.67" stop-color="#42A246"/>
<stop offset="0.8" stop-color="#2F9144"/>
<stop offset="0.94" stop-color="#0F7640"/>
<stop offset="1" stop-color="#00693E"/>
</linearGradient>
<clipPath id="clip0_757_467">
<rect width="199.192" height="42" fill="white"/>
</clipPath>
</defs>
</svg>
