<svg width="218" height="56" viewBox="0 0 218 56" fill="none" xmlns="http://www.w3.org/2000/svg">
<path fill-rule="evenodd" clip-rule="evenodd" d="M30.3039 47.0112C27.4166 47.0158 24.7012 48.3848 22.9813 50.7041C22.9819 50.7028 22.9832 50.7008 22.981 50.7035L22.9823 50.7018C30.7327 39.7047 44.4227 34.5678 57.4953 37.7533C58.6771 39.5973 59.3622 41.7899 59.3622 44.1426C59.3622 50.691 54.0535 55.9997 47.5051 55.9997C40.8791 55.9997 37.4399 50.4232 37.633 50.713C35.9131 48.3884 33.1948 47.0158 30.3039 47.0112Z" fill="white"/>
<path fill-rule="evenodd" clip-rule="evenodd" d="M21.7373 48.2128C29.4878 37.2157 43.1778 32.0788 56.2504 35.2643L39.367 5.99354C39.3932 6.03937 36.2454 0 29.0586 0C21.8719 0 18.7244 6.03937 18.7502 5.99354L1.86691 35.2643C0.685155 37.1083 0 39.3009 0 41.6536C0 48.202 5.30871 53.5107 11.8571 53.5107C18.2543 53.5107 21.681 48.3127 21.736 48.2141C21.7337 48.2174 21.7315 48.2207 21.7288 48.2236C21.7337 48.2164 21.7364 48.2128 21.7367 48.2128H21.7373Z" fill="white"/>
<path d="M71.261 54.3631H76.9252L79.3653 47.2176H89.9965L92.4801 54.3631H98.8416L88.341 24.4733H81.8925L71.2613 54.3631H71.261ZM84.5064 31.4882H84.6809L88.5587 42.8167H80.7595L84.5064 31.4882ZM108.296 54.7553C111.128 54.7553 113.307 53.7968 115.181 52.3591H115.399L115.921 54.3631H120.845V31.7933H115.137V48.9601C113.873 49.6135 112.349 50.2673 110.606 50.2673C107.992 50.2673 107.164 49.3523 107.164 47.0431V31.7933H101.456V48.2197C101.456 52.6638 103.983 54.7553 108.297 54.7553H108.296ZM135.659 54.7553C138.883 54.7553 140.974 53.9274 142.412 53.056V48.9169C141.279 49.4832 139.406 50.2676 136.748 50.2676C132.609 50.2676 130.692 48.2197 130.692 43.2527V42.3813C130.692 37.9806 132.914 35.8892 136.574 35.8892C139.188 35.8892 140.452 36.3249 142.195 37.0221V32.7086C140.756 31.8807 138.97 31.3579 136.051 31.3579C129.385 31.3579 124.766 35.1487 124.766 42.9044V43.5578C124.766 50.9648 128.775 54.7556 135.659 54.7556V54.7553ZM154.525 54.6244C156.747 54.6244 158.098 54.1451 158.926 53.7094V49.9186C158.272 50.1366 157.314 50.2673 156.486 50.2673C154.351 50.2673 153.523 49.6139 153.523 47.6965V36.0195H158.708V31.793H153.523V26.4774H147.902V31.793H144.896V36.0195H147.902V48.6115C147.902 53.0992 150.429 54.6244 154.525 54.6244H154.525ZM162.847 54.3631H168.598V31.7933H162.847V54.3631ZM162.803 28.3947H168.642V23.5148H162.803V28.3947ZM183.456 54.7553C189.861 54.7553 194.393 50.7033 194.393 43.2959V42.686C194.393 35.4096 190.471 31.3576 183.5 31.3576C177.095 31.3576 172.564 35.4967 172.564 42.8602V43.4701C172.564 50.6159 176.398 54.755 183.456 54.755V54.7553ZM183.543 50.5724C180.668 50.5724 178.445 49.0907 178.445 43.4701V42.5116C178.445 37.6752 180.275 35.5838 183.413 35.5838C186.289 35.5838 188.51 36.978 188.51 42.6857V43.7313C188.51 48.4806 186.68 50.572 183.543 50.572V50.5724ZM198.314 54.3631H204.022V37.1092C205.285 36.5864 207.072 35.9763 208.64 35.9763C211.429 35.9763 212.213 36.8477 212.213 38.9827V54.3631H217.964V37.632C217.964 33.1443 215.699 31.3576 211.385 31.3576C208.597 31.3576 205.939 32.3596 204.022 33.7977H203.804V31.7936H198.314V54.3635V54.3631Z" fill="white"/>
<path d="M71.2613 15.1551H74.1407V9.68005H76.1684L78.926 15.1551H82.2313L78.7839 9.05153V8.95005C80.3048 8.38242 81.2577 7.30771 81.2577 5.38123C81.2577 2.60297 79.5342 1.24445 76.2492 1.24445H71.261V15.1551H71.2613ZM74.1204 7.79416V3.37356H75.8845C77.5878 3.37356 78.2772 4.02238 78.2772 5.52297C78.2772 7.04387 77.6081 7.79416 75.9045 7.79416H74.1201H74.1204ZM90.7569 15.3374C92.0749 15.3374 93.089 14.8912 93.9608 14.2221H94.0622L94.3055 15.1547H96.5969V4.6509H93.9405V12.6403C93.3525 12.9444 92.6425 13.2486 91.8316 13.2486C90.6149 13.2486 90.2296 12.8227 90.2296 11.748V4.6509H87.5731V12.2956C87.5731 14.3642 88.7493 15.3374 90.7566 15.3374H90.7569ZM105.933 15.3374C107.251 15.3374 108.144 14.9115 108.61 14.3033H108.732L108.934 15.1551H111.104V7.63212C111.104 5.36093 109.664 4.46889 107.19 4.46889C105.73 4.46889 104.554 4.67185 103.52 5.03685V6.90245C104.21 6.69981 105.143 6.57804 106.177 6.57804C107.9 6.57804 108.468 6.88215 108.468 8.17979V8.88949L106.156 9.17331C104.027 9.47742 102.648 10.3698 102.648 12.3568C102.648 14.3845 104.007 15.3377 105.933 15.3377V15.3374ZM106.765 13.5327C105.893 13.5327 105.264 13.1271 105.264 12.1539C105.264 11.1807 105.751 10.8156 106.745 10.7142L108.468 10.5318V12.9651C108.144 13.2895 107.434 13.533 106.765 13.533V13.5327ZM117.683 15.1551H120.34V7.12505C120.928 6.88183 121.759 6.59768 122.489 6.59768C123.787 6.59768 124.152 7.00327 124.152 7.9968V15.1551H126.829V7.36827C126.829 5.27975 125.774 4.44827 123.767 4.44827C122.469 4.44827 121.232 4.91475 120.34 5.58386H120.238V4.65123H117.683V15.1551ZM137.321 18.1563C141.072 18.1563 142.755 16.7368 142.755 14.628C142.755 12.6004 141.356 11.8704 139.288 11.8704H136.368C135.719 11.8704 135.496 11.8501 135.496 11.343C135.496 11.1201 135.597 11.0389 135.8 10.8562C136.286 10.9983 136.813 11.0386 137.422 11.0386C139.876 11.0386 141.66 10.0856 141.66 7.83476V7.67239C141.66 7.04387 141.498 6.69916 141.153 6.29357H142.735V4.65123H139.146C138.618 4.52945 138.071 4.46856 137.422 4.46856C134.867 4.46856 133.144 5.54327 133.144 7.75357V7.89564C133.144 9.13239 133.63 9.88269 134.482 10.3898C133.671 11.0183 133.245 11.3427 133.245 12.1339C133.245 12.9248 133.691 13.3101 134.34 13.5736V13.6748C133.245 14.0195 132.373 14.6483 132.373 15.7433C132.373 17.3048 133.934 18.1563 137.321 18.1563ZM137.28 16.3718C135.557 16.3718 134.969 16.088 134.969 15.3377C134.969 14.6889 135.374 14.3442 135.921 14.1615H138.497C139.693 14.1615 140.038 14.3036 140.038 15.0742C140.038 15.926 139.349 16.3718 137.28 16.3718ZM137.422 9.41653C136.347 9.41653 135.699 9.01094 135.699 7.85505V7.61183C135.699 6.55742 136.307 6.13153 137.422 6.13153C138.436 6.13153 139.105 6.45594 139.105 7.65242V7.87535C139.105 9.01094 138.477 9.41653 137.422 9.41653Z" fill="white"/>
</svg>
