<svg width="175" height="43" viewBox="0 0 175 43" fill="none" xmlns="http://www.w3.org/2000/svg">
<path fill-rule="evenodd" clip-rule="evenodd" d="M23.3512 35.7768C21.0311 35.7805 18.8491 36.8806 17.467 38.7443C17.4675 38.7432 17.4686 38.7417 17.4667 38.7438L17.4678 38.7425C23.6958 29.9055 34.6967 25.7776 45.2014 28.3374C46.1511 29.8192 46.7016 31.5811 46.7016 33.4717C46.7016 38.7338 42.4357 42.9997 37.1736 42.9997C31.8491 42.9997 29.0855 38.5186 29.2407 38.7514C27.8586 36.8835 25.6742 35.7805 23.3512 35.7768Z" fill="url(#paint0_linear_298_487)"/>
<path fill-rule="evenodd" clip-rule="evenodd" d="M17.4675 38.7424C23.6955 29.9054 34.6964 25.7776 45.2011 28.3374L31.6342 4.81623C31.6552 4.85306 29.1257 0 23.3507 0C17.5756 0 15.0464 4.85306 15.0671 4.81623L1.50019 28.3374C0.55057 29.8191 0 31.5811 0 33.4716C0 38.7337 4.26593 42.9997 9.52803 42.9997C14.6686 42.9997 17.4222 38.8226 17.4664 38.7435C17.4646 38.7461 17.4628 38.7487 17.4607 38.7511C17.4646 38.7453 17.4667 38.7424 17.467 38.7424H17.4675Z" fill="url(#paint1_linear_298_487)"/>
<path d="M56.2632 42.6847H60.8148L62.7756 36.9427H71.3185L73.3143 42.6847H78.4262L69.9882 18.6661H64.8063L56.2634 42.6847H56.2632ZM66.9068 24.3031H67.047L70.1631 33.4063H63.8959L66.9068 24.3031ZM86.0237 42.9998C88.2993 42.9998 90.0499 42.2296 91.5557 41.0742H91.7308L92.1509 42.6847H96.1072V24.5482H91.5207V38.343C90.5053 38.868 89.28 39.3933 87.8795 39.3933C85.7787 39.3933 85.1135 38.6581 85.1135 36.8025V24.5482H80.5269V37.7479C80.5269 41.3191 82.5577 42.9998 86.0239 42.9998H86.0237ZM108.011 42.9998C110.602 42.9998 112.283 42.3345 113.438 41.6343V38.3082C112.528 38.7633 111.022 39.3936 108.887 39.3936C105.561 39.3936 104.02 37.7479 104.02 33.7566V33.0564C104.02 29.5202 105.805 27.8395 108.747 27.8395C110.847 27.8395 111.863 28.1897 113.263 28.75V25.2837C112.108 24.6185 110.672 24.1984 108.327 24.1984C102.97 24.1984 99.2584 27.2445 99.2584 33.4768V34.0018C99.2584 39.9539 102.479 43.0001 108.011 43.0001V42.9998ZM123.172 42.8946C124.957 42.8946 126.043 42.5095 126.708 42.1593V39.1132C126.183 39.2884 125.413 39.3933 124.747 39.3933C123.031 39.3933 122.366 38.8683 122.366 37.3276V27.9442H126.533V24.548H122.366V20.2765H117.85V24.548H115.434V27.9442H117.85V38.0628C117.85 41.669 119.88 42.8946 123.171 42.8946H123.172ZM129.859 42.6847H134.481V24.5482H129.859V42.6847ZM129.824 21.8172H134.516V17.8959H129.824V21.8172ZM146.42 42.9998C151.567 42.9998 155.208 39.7437 155.208 33.7914V33.3013C155.208 27.4542 152.057 24.1981 146.455 24.1981C141.308 24.1981 137.667 27.5241 137.667 33.4412V33.9313C137.667 39.6735 140.748 42.9995 146.42 42.9995V42.9998ZM146.49 39.6385C144.179 39.6385 142.393 38.4479 142.393 33.9313V33.1611C142.393 29.2747 143.864 27.5941 146.385 27.5941C148.696 27.5941 150.481 28.7144 150.481 33.301V34.1412C150.481 37.9576 149.011 39.6382 146.49 39.6382V39.6385ZM158.359 42.6847H162.946V28.8199C163.961 28.3998 165.397 27.9095 166.657 27.9095C168.898 27.9095 169.528 28.6097 169.528 30.3254V42.6847H174.15V29.24C174.15 25.6338 172.329 24.1981 168.863 24.1981C166.622 24.1981 164.486 25.0033 162.946 26.1589H162.771V24.5485H158.359V42.6849V42.6847Z" fill="white"/>
<path d="M56.2634 11.1782H58.5773V6.77861H60.2066L62.4226 11.1782H65.0786L62.3084 6.27354V6.192C63.5305 5.73587 64.2963 4.87226 64.2963 3.3242C64.2963 1.09167 62.9113 0 60.2716 0H56.2632V11.1782H56.2634ZM58.5609 5.26316V1.71089H59.9785C61.3472 1.71089 61.9012 2.23227 61.9012 3.4381C61.9012 4.66024 61.3635 5.26316 59.9946 5.26316H58.5607H58.5609ZM71.9295 11.3247C72.9886 11.3247 73.8035 10.9661 74.504 10.4285H74.5856L74.781 11.1779H76.6224V2.73733H74.4877V9.15739C74.0153 9.40177 73.4447 9.64614 72.7932 9.64614C71.8154 9.64614 71.5058 9.30391 71.5058 8.44031V2.73733H69.3711V8.8804C69.3711 10.5426 70.3163 11.3247 71.9293 11.3247H71.9295ZM84.1249 11.3247C85.184 11.3247 85.9011 10.9825 86.2757 10.4937H86.3735L86.5363 11.1782H88.2799V5.13295C88.2799 3.30789 87.123 2.59107 85.1351 2.59107C83.9618 2.59107 83.0167 2.75416 82.1857 3.04747V4.5466C82.7397 4.38377 83.4894 4.28592 84.3204 4.28592C85.7054 4.28592 86.1618 4.53029 86.1618 5.57304V6.14333L84.3041 6.3714C82.5932 6.61578 81.4852 7.33286 81.4852 8.92959C81.4852 10.5589 82.5769 11.3249 84.1249 11.3249V11.3247ZM84.7931 9.87447C84.0923 9.87447 83.5873 9.54855 83.5873 8.7665C83.5873 7.98444 83.9784 7.69114 84.7768 7.60959L86.1618 7.46307V9.41834C85.9011 9.67903 85.3308 9.87474 84.7931 9.87474V9.87447ZM93.5667 11.1782H95.7014V4.72548C96.1738 4.53003 96.842 4.3017 97.4286 4.3017C98.4716 4.3017 98.7649 4.62762 98.7649 5.42599V11.1782H100.916V4.92093C100.916 3.24265 100.069 2.5745 98.4553 2.5745C97.4125 2.5745 96.4184 2.94935 95.7014 3.48703H95.6198V2.73759H93.5667V11.1782ZM109.347 13.5898C112.361 13.5898 113.714 12.4492 113.714 10.7546C113.714 9.1253 112.59 8.53869 110.927 8.53869H108.581C108.06 8.53869 107.88 8.52238 107.88 8.11491C107.88 7.93578 107.962 7.87054 108.125 7.72375C108.516 7.83792 108.939 7.87028 109.428 7.87028C111.4 7.87028 112.834 7.10453 112.834 5.29578V5.1653C112.834 4.66024 112.704 4.38325 112.427 4.05733H113.697V2.73759H110.813C110.389 2.63973 109.95 2.59081 109.428 2.59081C107.375 2.59081 105.99 3.45441 105.99 5.23054V5.34471C105.99 6.33852 106.381 6.94144 107.066 7.3489C106.414 7.85397 106.072 8.11465 106.072 8.75045C106.072 9.38598 106.43 9.6956 106.952 9.90736V9.98864C106.072 10.2656 105.371 10.771 105.371 11.6509C105.371 12.9056 106.626 13.5898 109.347 13.5898ZM109.314 12.1559C107.929 12.1559 107.457 11.9279 107.457 11.3249C107.457 10.8036 107.783 10.5266 108.222 10.3798H110.292C111.253 10.3798 111.53 10.494 111.53 11.1132C111.53 11.7977 110.976 12.1559 109.314 12.1559ZM109.428 6.56685C108.565 6.56685 108.043 6.24093 108.043 5.31209V5.11664C108.043 4.26935 108.532 3.92711 109.428 3.92711C110.243 3.92711 110.781 4.1878 110.781 5.14926V5.3284C110.781 6.24093 110.276 6.56685 109.428 6.56685Z" fill="white"/>
<defs>
<linearGradient id="paint0_linear_298_487" x1="33.2812" y1="28.2122" x2="42.5675" y2="41.3272" gradientUnits="userSpaceOnUse">
<stop stop-color="#0773B7"/>
<stop offset="1" stop-color="#10A1CA"/>
</linearGradient>
<linearGradient id="paint1_linear_298_487" x1="-3.18636" y1="8.2346" x2="30.9521" y2="28.8419" gradientUnits="userSpaceOnUse">
<stop stop-color="#02D4B4"/>
<stop offset="1" stop-color="#5AEDD7"/>
</linearGradient>
</defs>
</svg>
