<svg width="14" height="16" viewBox="0 0 14 16" fill="none" xmlns="http://www.w3.org/2000/svg">
<path d="M13.1881 5.1875C13.1882 5.1122 13.1731 5.03765 13.1437 4.96832C13.1143 4.89899 13.0712 4.8363 13.0171 4.78398L9.08547 0.852383C9.07244 0.839352 9.0588 0.827 9.04455 0.815328C9.04124 0.812586 9.03766 0.810266 9.03428 0.807594C9.02325 0.79881 9.0119 0.790437 9.00025 0.782492C8.99716 0.780383 8.99393 0.778695 8.99083 0.776726C8.9785 0.768683 8.96586 0.76113 8.95293 0.754086C8.95068 0.752891 8.94836 0.751977 8.94611 0.750781C8.93211 0.743405 8.9178 0.736625 8.90322 0.730461C8.9016 0.729758 8.89999 0.729336 8.89837 0.728703C8.883 0.722402 8.86735 0.716795 8.85147 0.711898L8.8462 0.710562C8.8304 0.705852 8.8144 0.70184 8.79825 0.698539C8.79375 0.697625 8.7891 0.697203 8.7846 0.69643C8.7711 0.694109 8.7576 0.691719 8.74375 0.690313C8.72508 0.688437 8.70634 0.687499 8.68757 0.6875H1.93701C1.63875 0.687835 1.35279 0.806469 1.14189 1.01737C0.930981 1.22828 0.812347 1.51423 0.812012 1.8125V14.1875C0.812347 14.4858 0.930981 14.7717 1.14189 14.9826C1.35279 15.1935 1.63875 15.3122 1.93701 15.3125H12.0626C12.3608 15.3122 12.6468 15.1935 12.8577 14.9826C13.0686 14.7717 13.1872 14.4858 13.1876 14.1875V5.19875C13.1876 5.19495 13.1881 5.1913 13.1881 5.1875ZM9.25007 2.60802L11.2671 4.625H9.25007V2.60802ZM12.0626 14.1875H1.93701V1.8125H8.12507V5.1875C8.12507 5.33668 8.18434 5.47976 8.28982 5.58525C8.39531 5.69074 8.53839 5.75 8.68757 5.75H12.0626L12.0633 14.1875H12.0626ZM8.86139 10.7537C9.19256 10.227 9.31808 9.59667 9.21398 8.98324C9.10988 8.3698 8.78344 7.81621 8.29703 7.4282C7.81062 7.0402 7.19832 6.84497 6.57709 6.87982C5.95585 6.91467 5.36923 7.17714 4.92926 7.61711C4.48929 8.05708 4.22682 8.6437 4.19197 9.26494C4.15712 9.88617 4.35235 10.4985 4.74035 10.9849C5.12836 11.4713 5.68195 11.7977 6.29539 11.9018C6.90883 12.0059 7.53912 11.8804 8.06587 11.5492L8.83776 12.3211C8.88999 12.3734 8.95201 12.4148 9.02025 12.4431C9.0885 12.4713 9.16165 12.4859 9.23552 12.4859C9.30939 12.4859 9.38254 12.4713 9.45078 12.4431C9.51903 12.4148 9.58104 12.3734 9.63328 12.3211C9.68551 12.2689 9.72694 12.2069 9.75521 12.1386C9.78348 12.0704 9.79803 11.9972 9.79803 11.9234C9.79803 11.8495 9.78348 11.7764 9.75521 11.7081C9.72694 11.6399 9.68551 11.5778 9.63328 11.5256L8.86139 10.7537ZM5.72404 10.4006C5.49399 10.1706 5.35083 9.86785 5.31894 9.54407C5.28706 9.22029 5.36842 8.89548 5.54918 8.62497C5.72993 8.35445 5.99889 8.15499 6.31022 8.06055C6.62156 7.96611 6.95601 7.98254 7.25658 8.10705C7.55716 8.23156 7.80527 8.45643 7.95863 8.74336C8.11199 9.03029 8.16112 9.36152 8.09765 9.68061C8.03417 9.9997 7.86202 10.2869 7.61052 10.4933C7.35902 10.6997 7.04375 10.8125 6.7184 10.8125C6.53366 10.813 6.35065 10.7769 6.17997 10.7062C6.00928 10.6354 5.85432 10.5316 5.72404 10.4006Z" fill="white"/>
</svg>
