<svg width="14" height="14" viewBox="0 0 14 14" fill="none" xmlns="http://www.w3.org/2000/svg">
<path fill-rule="evenodd" clip-rule="evenodd" d="M0.8125 1.375C0.8125 1.06434 1.06434 0.8125 1.375 0.8125H5.875C6.18566 0.8125 6.4375 1.06434 6.4375 1.375V5.875C6.4375 6.18566 6.18566 6.4375 5.875 6.4375H1.375C1.06434 6.4375 0.8125 6.18566 0.8125 5.875V1.375ZM1.9375 1.9375V5.3125H5.3125V1.9375H1.9375Z" fill="white"/>
<path fill-rule="evenodd" clip-rule="evenodd" d="M7.5625 1.375C7.5625 1.06434 7.81434 0.8125 8.125 0.8125H12.625C12.9357 0.8125 13.1875 1.06434 13.1875 1.375V5.875C13.1875 6.18566 12.9357 6.4375 12.625 6.4375H8.125C7.81434 6.4375 7.5625 6.18566 7.5625 5.875V1.375ZM8.6875 1.9375V5.3125H12.0625V1.9375H8.6875Z" fill="white"/>
<path fill-rule="evenodd" clip-rule="evenodd" d="M0.8125 8.125C0.8125 7.81434 1.06434 7.5625 1.375 7.5625H5.875C6.18566 7.5625 6.4375 7.81434 6.4375 8.125V12.625C6.4375 12.9357 6.18566 13.1875 5.875 13.1875H1.375C1.06434 13.1875 0.8125 12.9357 0.8125 12.625V8.125ZM1.9375 8.6875V12.0625H5.3125V8.6875H1.9375Z" fill="white"/>
<path fill-rule="evenodd" clip-rule="evenodd" d="M7.5625 8.125C7.5625 7.81434 7.81434 7.5625 8.125 7.5625H12.625C12.9357 7.5625 13.1875 7.81434 13.1875 8.125V12.625C13.1875 12.9357 12.9357 13.1875 12.625 13.1875H8.125C7.81434 13.1875 7.5625 12.9357 7.5625 12.625V8.125ZM8.6875 8.6875V12.0625H12.0625V8.6875H8.6875Z" fill="white"/>
</svg>
