<svg width="100" height="100" viewBox="0 0 100 100" fill="none" xmlns="http://www.w3.org/2000/svg">
<g clip-path="url(#clip0_13242_57620)">
<path d="M14.9144 53.7632C14.9126 39.3627 21.549 25.7649 32.9015 16.9061C44.254 8.04629 59.0571 4.91437 73.0247 8.41518C57.177 -0.569679 37.5537 0.470337 22.7442 11.0796C7.9338 21.6889 0.635427 39.9343 4.04401 57.8301C7.45169 75.7259 20.9445 90.0121 38.6165 94.4361C23.9641 86.1406 14.9089 70.6016 14.9144 53.7632Z" fill="#D0D6E0"/>
<path d="M49.9777 0C22.9089 0 0.889648 22.0193 0.889648 49.088C0.889648 76.1567 22.9089 98.176 49.9777 98.176C55.5777 98.1751 61.1366 97.2109 66.4107 95.3244L92.9416 99.9757C93.073 99.9949 93.2054 100.002 93.3388 99.9995C94.1204 99.994 94.8481 99.6004 95.28 98.9485C95.7119 98.2956 95.7904 97.472 95.4891 96.7497L88.2665 79.7561C95.2745 71.0735 99.0876 60.246 99.0657 49.088C99.0657 22.0193 77.0464 0 49.9777 0V0ZM91.3519 65.2635C89.5448 69.8481 86.9854 74.0986 83.7777 77.8395C83.1961 78.5107 83.0509 79.4557 83.4043 80.2702L89.5047 94.6231L66.5969 90.6256C66.4654 90.6064 66.333 90.5982 66.1997 90.6028C65.9212 90.6019 65.6446 90.6494 65.3816 90.7425C60.4536 92.5787 55.2371 93.521 49.9777 93.5247C25.4802 93.5247 5.5647 73.6083 5.5647 49.1117C5.5647 24.6143 25.4802 4.69879 49.9777 4.69879C74.4751 4.69879 94.3906 24.6143 94.3906 49.1117C94.3952 54.6378 93.3643 60.1164 91.3519 65.2635Z" fill="#0772B6"/>
<path d="M69.9156 42.3794C65.7062 42.3794 62.2949 45.7907 62.2949 49.9992C62.2949 54.2086 65.7062 57.6199 69.9156 57.6199C74.1241 57.6199 77.5354 54.2086 77.5354 49.9992C77.5345 45.7916 74.1232 42.3803 69.9156 42.3794ZM69.9156 52.9448C68.2885 52.9448 66.97 51.6263 66.97 49.9992C66.97 48.373 68.2885 47.0544 69.9156 47.0544C71.5418 47.0544 72.8604 48.373 72.8604 49.9992C72.8594 51.6254 71.5409 52.943 69.9156 52.9448Z" fill="#03D4B4"/>
<path d="M49.9771 42.3794C45.7687 42.3794 42.3564 45.7907 42.3564 49.9992C42.3564 54.2086 45.7687 57.6199 49.9771 57.6199C54.1856 57.6199 57.5969 54.2086 57.5969 49.9992C57.5969 45.7916 54.1856 42.3803 49.9771 42.3794ZM49.9771 52.9448C48.35 52.9448 47.0315 51.6263 47.0315 49.9992C47.0315 48.373 48.35 47.0544 49.9771 47.0544C51.6034 47.0544 52.9219 48.373 52.9219 49.9992C52.921 51.6254 51.6034 52.943 49.9771 52.9448Z" fill="#03D4B4"/>
<path d="M30.0377 42.3794C25.8292 42.3794 22.417 45.7907 22.417 49.9992C22.417 54.2086 25.8292 57.6199 30.0377 57.6199C34.2461 57.6199 37.6584 54.2086 37.6584 49.9992C37.6575 45.7916 34.2461 42.3803 30.0377 42.3794ZM30.0377 52.9448C28.4115 52.9448 27.092 51.6263 27.092 49.9992C27.092 48.373 28.4115 47.0544 30.0377 47.0544C31.6639 47.0544 32.9833 48.373 32.9833 49.9992C32.9815 51.6254 31.6639 52.943 30.0377 52.9448Z" fill="#03D4B4"/>
</g>
<defs>
<clipPath id="clip0_13242_57620">
<rect width="100" height="100" fill="white"/>
</clipPath>
</defs>
</svg>
