<svg width="40" height="40" viewBox="0 0 40 40" fill="none" xmlns="http://www.w3.org/2000/svg">
<g clip-path="url(#clip0)">
<path d="M14.4043 20.1829C14.233 20.1833 14.0688 20.1152 13.9482 19.9939L8.94438 14.9904C8.69237 14.7384 8.69237 14.3298 8.94438 14.0778C9.19639 13.8258 9.605 13.8258 9.85701 14.0778L14.4144 18.6356L22.7797 10.6458C23.0371 10.3996 23.4457 10.4089 23.6916 10.6667C23.9378 10.9241 23.9285 11.3327 23.6707 11.5786L14.85 20.0044C14.7298 20.1188 14.5703 20.1829 14.4043 20.1829Z" fill="#1AE5BE"/>
<path d="M25.433 36.5822C25.0827 36.5833 24.7565 36.404 24.5693 36.1081C24.5664 36.1038 24.5639 36.0998 24.5614 36.0955L21.6604 31.2936H17.9955C17.6391 31.2936 17.3503 31.0049 17.3503 30.6485C17.3503 30.2924 17.6391 30.0034 17.9955 30.0034H22.0244C22.2501 30.0034 22.4596 30.1214 22.5767 30.3148L25.4337 35.0428L28.2908 30.3148C28.4074 30.1214 28.617 30.0034 28.8427 30.0034H36.5902C37.7602 30.0023 38.7085 29.054 38.7099 27.8836V12.9611C38.7088 11.791 37.7602 10.8427 36.5902 10.8413H31.982C31.6256 10.8413 31.3369 10.5526 31.3369 10.1962C31.3369 9.8401 31.6256 9.55101 31.982 9.55101H36.5902C38.4727 9.55317 39.998 11.0785 40.0002 12.9611V27.884C39.998 29.7665 38.4727 31.2918 36.5902 31.294H29.2059L26.3046 36.0959C26.3024 36.1002 26.2995 36.1041 26.297 36.1085C26.1095 36.4044 25.7833 36.5833 25.433 36.5822Z" fill="#1AE5BE"/>
<path d="M3.77906 27.8811H11.9762L15.2894 33.3644C15.2919 33.3684 15.2944 33.3727 15.2973 33.377C15.4935 33.6877 15.8359 33.8756 16.2035 33.8746C16.571 33.8756 16.9134 33.6877 17.11 33.377C17.1125 33.3727 17.115 33.3684 17.1179 33.3641L20.4307 27.8811H28.8471C30.933 27.8785 32.6233 26.1883 32.6258 24.1024V7.19003C32.6233 5.10411 30.933 3.41349 28.8471 3.41133H3.7787C1.69278 3.41349 0.0025201 5.10411 0 7.19003V24.1024C0.0025201 26.1886 1.69278 27.8789 3.77906 27.8811ZM1.29065 7.19003C1.29209 5.81622 2.40525 4.70306 3.77906 4.70162H28.8475C30.2209 4.70306 31.3341 5.81622 31.3359 7.19003V24.1024C31.3341 25.4762 30.2209 26.5893 28.8475 26.5908H20.0668C19.841 26.5908 19.6315 26.7092 19.5149 26.9025L16.2035 32.3827L12.8924 26.9025C12.7758 26.7092 12.5663 26.5911 12.3402 26.5911H3.77906C2.40525 26.5893 1.29209 25.4762 1.29065 24.1027V7.19003Z" fill="#0772B6"/>
<path d="M16.5788 24.1376C16.4622 23.9439 16.2527 23.8258 16.0266 23.8258H7.46547C6.09166 23.8244 4.9785 22.7112 4.97706 21.3374V4.70155H3.77894C2.40513 4.70299 1.29197 5.81615 1.29053 7.18996V24.1023C1.29197 25.4761 2.40513 26.5893 3.77894 26.5907H12.34C12.5661 26.5907 12.7757 26.7088 12.8923 26.9025L16.2033 32.3826L18.8822 27.9494L16.5788 24.1376Z" fill="#D4E1F4"/>
</g>
<defs>
<clipPath id="clip0">
<rect width="40" height="40" fill="white"/>
</clipPath>
</defs>
</svg>
