<svg width="18" height="17" viewBox="0 0 18 17" fill="none" xmlns="http://www.w3.org/2000/svg">
<path d="M12.8896 6.48641C13.004 6.60632 13.0662 6.76677 13.0623 6.93247C13.0584 7.09818 12.9889 7.25556 12.869 7.37L8.28571 11.745C8.16945 11.856 8.01492 11.9179 7.8542 11.9179C7.69348 11.9179 7.53893 11.856 7.42266 11.7451L5.13094 9.55758C5.0711 9.50103 5.02302 9.4332 4.98947 9.35801C4.95591 9.28282 4.93755 9.20174 4.93543 9.11943C4.9333 9.03712 4.94747 8.95521 4.9771 8.87839C5.00673 8.80157 5.05125 8.73136 5.1081 8.6718C5.16495 8.61224 5.23301 8.56449 5.30837 8.53131C5.38373 8.49814 5.46489 8.48017 5.54721 8.47846C5.62953 8.47675 5.71138 8.49132 5.78805 8.52133C5.86472 8.55135 5.93471 8.59621 5.99399 8.65336L7.85414 10.429L12.0059 6.46586C12.1258 6.35142 12.2863 6.2893 12.452 6.29315C12.6177 6.297 12.7751 6.36652 12.8895 6.48641H12.8896ZM17.125 8.79297C17.125 10.3999 16.6485 11.9708 15.7557 13.307C14.8629 14.6431 13.594 15.6845 12.1093 16.2995C10.6247 16.9145 8.99099 17.0754 7.4149 16.7618C5.8388 16.4483 4.39106 15.6745 3.25476 14.5382C2.11846 13.4019 1.34463 11.9542 1.03112 10.3781C0.717618 8.80198 0.87852 7.16832 1.49348 5.68367C2.10844 4.19902 3.14985 2.93006 4.486 2.03728C5.82214 1.14449 7.39303 0.667969 9 0.667969C11.1541 0.670409 13.2193 1.52722 14.7426 3.05042C16.2658 4.57363 17.1226 6.63883 17.125 8.79297ZM15.875 8.79297C15.875 7.43322 15.4718 6.10401 14.7164 4.97342C13.9609 3.84284 12.8872 2.96165 11.631 2.4413C10.3747 1.92094 8.99238 1.7848 7.65876 2.05007C6.32514 2.31534 5.10013 2.97012 4.13864 3.93161C3.17716 4.8931 2.52238 6.1181 2.2571 7.45172C1.99183 8.78534 2.12798 10.1677 2.64833 11.4239C3.16868 12.6802 4.04987 13.7539 5.18046 14.5093C6.31105 15.2648 7.64026 15.668 9 15.668C10.8227 15.6659 12.5702 14.9409 13.8591 13.652C15.1479 12.3632 15.8729 10.6157 15.875 8.79297Z" fill="#4DAF51"/>
</svg>
