<svg width="48" height="48" viewBox="0 0 48 48" fill="none" xmlns="http://www.w3.org/2000/svg">
<path fill-rule="evenodd" clip-rule="evenodd" d="M12.8008 4.36466C14.7306 4.21058 16.5626 3.45153 18.0359 2.19562C19.6999 0.778366 21.8142 0 24 0C26.1858 0 28.3001 0.778366 29.9641 2.19562C31.4374 3.45153 33.2694 4.21058 35.1992 4.36466C37.3785 4.53883 39.4246 5.48356 40.9705 7.0295C42.5164 8.57543 43.4612 10.6215 43.6353 12.8008C43.7883 14.7298 44.5474 16.5629 45.8044 18.0359C47.2216 19.6999 48 21.8142 48 24C48 26.1858 47.2216 28.3001 45.8044 29.9641C44.5485 31.4374 43.7894 33.2694 43.6353 35.1992C43.4612 37.3785 42.5164 39.4246 40.9705 40.9705C39.4246 42.5164 37.3785 43.4612 35.1992 43.6353C33.2694 43.7894 31.4374 44.5485 29.9641 45.8044C28.3001 47.2216 26.1858 48 24 48C21.8142 48 19.6999 47.2216 18.0359 45.8044C16.5626 44.5485 14.7306 43.7894 12.8008 43.6353C10.6215 43.4612 8.57543 42.5164 7.0295 40.9705C5.48356 39.4246 4.53883 37.3785 4.36466 35.1992C4.21058 33.2694 3.45153 31.4374 2.19562 29.9641C0.778366 28.3001 0 26.1858 0 24C0 21.8142 0.778366 19.6999 2.19562 18.0359C3.45153 16.5626 4.21058 14.7306 4.36466 12.8008C4.53883 10.6215 5.48356 8.57543 7.0295 7.0295C8.57543 5.48356 10.6215 4.53883 12.8008 4.36466ZM35.1212 20.1209C35.6677 19.5551 35.9701 18.7973 35.9632 18.0107C35.9564 17.2241 35.6409 16.4716 35.0847 15.9154C34.5284 15.3592 33.776 15.0437 32.9894 15.0368C32.2028 15.03 31.4449 15.3324 30.8791 15.8789L20.9999 25.758L17.1209 21.879C16.5551 21.3325 15.7972 21.0301 15.0106 21.0369C14.224 21.0438 13.4716 21.3593 12.9154 21.9155C12.3591 22.4717 12.0436 23.2242 12.0368 24.0108C12.0299 24.7974 12.3323 25.5552 12.8788 26.121L18.8789 32.1211C19.4415 32.6836 20.2044 32.9995 20.9999 32.9995C21.7955 32.9995 22.5584 32.6836 23.121 32.1211L35.1212 20.1209Z" fill="#FFB301"/>
</svg>
