<svg width="20" height="20" viewBox="0 0 20 20" fill="none" xmlns="http://www.w3.org/2000/svg">
<path fill-rule="evenodd" clip-rule="evenodd" d="M5.33367 1.81861C6.13776 1.75441 6.90109 1.43814 7.51496 0.914841C8.2083 0.324319 9.08927 0 10 0C10.9107 0 11.7917 0.324319 12.485 0.914841C13.0989 1.43814 13.8622 1.75441 14.6663 1.81861C15.5744 1.89118 16.4269 2.28482 17.071 2.92896C17.7152 3.5731 18.1088 4.42561 18.1814 5.33367C18.2451 6.13743 18.5614 6.9012 19.0852 7.51496C19.6757 8.2083 20 9.08927 20 10C20 10.9107 19.6757 11.7917 19.0852 12.485C18.5619 13.0989 18.2456 13.8622 18.1814 14.6663C18.1088 15.5744 17.7152 16.4269 17.071 17.071C16.4269 17.7152 15.5744 18.1088 14.6663 18.1814C13.8622 18.2456 13.0989 18.5619 12.485 19.0852C11.7917 19.6757 10.9107 20 10 20C9.08927 20 8.2083 19.6757 7.51496 19.0852C6.90109 18.5619 6.13776 18.2456 5.33367 18.1814C4.42561 18.1088 3.5731 17.7152 2.92896 17.071C2.28482 16.4269 1.89118 15.5744 1.81861 14.6663C1.75441 13.8622 1.43814 13.0989 0.914841 12.485C0.324319 11.7917 0 10.9107 0 10C0 9.08927 0.324319 8.2083 0.914841 7.51496C1.43814 6.90109 1.75441 6.13776 1.81861 5.33367C1.89118 4.42561 2.28482 3.5731 2.92896 2.92896C3.5731 2.28482 4.42561 1.89118 5.33367 1.81861ZM14.6338 8.38372C14.8615 8.14796 14.9875 7.83221 14.9847 7.50446C14.9818 7.1767 14.8504 6.86318 14.6186 6.63142C14.3868 6.39965 14.0733 6.26819 13.7456 6.26534C13.4178 6.26249 13.1021 6.38849 12.8663 6.61619L8.74998 10.7325L7.1337 9.11623C6.89794 8.88853 6.58218 8.76254 6.25443 8.76539C5.92668 8.76823 5.61316 8.8997 5.3814 9.13146C5.14963 9.36323 5.01817 9.67675 5.01532 10.0045C5.01247 10.3323 5.13847 10.648 5.36617 10.8838L7.86621 13.3838C8.10063 13.6182 8.41852 13.7498 8.74998 13.7498C9.08144 13.7498 9.39933 13.6182 9.63374 13.3838L14.6338 8.38372Z" fill="#4DAF51"/>
</svg>
