<svg width="48" height="48" viewBox="0 0 48 48" fill="none" xmlns="http://www.w3.org/2000/svg">
<path d="M35.4893 17.1868C35.8273 17.541 36.0108 18.0149 35.9994 18.5044C35.9879 18.9938 35.7825 19.4587 35.4284 19.7968L21.8901 32.7198C21.5467 33.0476 21.0902 33.2306 20.6155 33.2306C20.1407 33.2307 19.6842 33.0478 19.3408 32.7201L12.5714 26.2585C12.3946 26.0915 12.2526 25.8912 12.1535 25.6691C12.0544 25.4469 12.0001 25.2075 11.9939 24.9643C11.9876 24.7212 12.0294 24.4792 12.117 24.2523C12.2045 24.0254 12.336 23.818 12.5039 23.6421C12.6719 23.4661 12.8729 23.3251 13.0955 23.2271C13.3181 23.1291 13.5578 23.076 13.801 23.071C14.0442 23.0659 14.2859 23.109 14.5124 23.1976C14.7389 23.2863 14.9456 23.4188 15.1207 23.5876L20.6153 28.8325L32.8791 17.1261C33.2332 16.788 33.7072 16.6045 34.1967 16.6159C34.6861 16.6273 35.151 16.8326 35.4891 17.1868H35.4893ZM48 24C48 28.7467 46.5924 33.3869 43.9553 37.3337C41.3181 41.2805 37.5698 44.3566 33.1844 46.1731C28.799 47.9896 23.9734 48.4649 19.3178 47.5388C14.6623 46.6128 10.3859 44.327 7.02945 40.9706C3.67299 37.6141 1.38721 33.3377 0.461164 28.6822C-0.464881 24.0266 0.0103988 19.201 1.8269 14.8156C3.6434 10.4302 6.71954 6.68188 10.6663 4.04473C14.6131 1.40758 19.2533 0 24 0C30.363 0.00720728 36.4633 2.53809 40.9626 7.0374C45.4619 11.5367 47.9928 17.637 48 24ZM44.3077 24C44.3077 19.9835 43.1167 16.0572 40.8852 12.7176C38.6538 9.37807 35.4822 6.77518 31.7714 5.23814C28.0607 3.7011 23.9775 3.29894 20.0382 4.08251C16.0989 4.86609 12.4804 6.80021 9.6403 9.64029C6.80022 12.4804 4.8661 16.0989 4.08252 20.0382C3.29895 23.9775 3.70111 28.0607 5.23815 31.7714C6.77519 35.4822 9.37808 38.6538 12.7177 40.8852C16.0572 43.1167 19.9835 44.3077 24 44.3077C29.3841 44.3016 34.5459 42.1601 38.353 38.353C42.1601 34.5458 44.3016 29.3841 44.3077 24Z" fill="#2296F3"/>
</svg>
