<svg width="72" height="72" viewBox="0 0 72 72" fill="none" xmlns="http://www.w3.org/2000/svg">
<g clip-path="url(#clip0)">
<path d="M10.0477 41.1879C10.0477 22.2319 25.4203 6.85919 44.3763 6.85919C48.9356 6.85723 53.4498 7.76189 57.6558 9.52215C51.5404 4.53965 43.8916 1.82436 36.0035 1.83548C17.0475 1.83548 1.6748 17.2082 1.6748 36.1642C1.67677 49.9944 9.97243 62.4752 22.724 67.8306C14.6959 61.3167 10.0372 51.5264 10.0477 41.1879Z" fill="#D0D6E0"/>
<path d="M36.0033 0.160992C21.4411 0.158375 8.31204 8.92959 2.73952 22.3837C-2.83235 35.8378 0.249905 51.3237 10.5498 61.6177C24.6077 75.6756 47.3995 75.6756 61.4567 61.6177C75.5146 47.5605 75.5146 24.7687 61.4567 10.7108C54.7212 3.93663 45.5562 0.138097 36.0033 0.160992ZM36.0033 68.8184C18.0017 68.8184 3.34917 54.1659 3.34917 36.1643C3.34917 18.1626 18.0017 3.51013 36.0033 3.51013C54.0049 3.51013 68.6574 18.1626 68.6574 36.1643C68.6574 54.1659 54.0049 68.8184 36.0033 68.8184Z" fill="#0772B6"/>
<path d="M53.1177 25.0957L31.4994 45.7596L19.727 33.9709C19.0748 33.3188 18.0178 33.3188 17.3656 33.9709C16.7141 34.6224 16.7141 35.6795 17.3656 36.3317L30.3101 49.2762C30.6241 49.5928 31.0532 49.7681 31.4994 49.7616C31.9317 49.7662 32.3478 49.5974 32.6545 49.2932L55.4287 27.5238C56.0894 26.8834 56.111 25.8303 55.4771 25.1637C54.8426 24.4978 53.7901 24.4671 53.1177 25.0957Z" fill="#03D4B4"/>
</g>
<defs>
<clipPath id="clip0">
<rect width="72" height="72" fill="white"/>
</clipPath>
</defs>
</svg>
