<svg width="72" height="72" viewBox="0 0 72 72" fill="none" xmlns="http://www.w3.org/2000/svg">
<g clip-path="url(#clip0)">
<path d="M10.0477 41.1879C10.0477 22.2319 25.4203 6.85919 44.3763 6.85919C48.9356 6.85723 53.4498 7.76189 57.6558 9.52215C51.5404 4.53965 43.8916 1.82436 36.0035 1.83548C17.0475 1.83548 1.6748 17.2082 1.6748 36.1642C1.67677 49.9944 9.97243 62.4752 22.724 67.8306C14.6959 61.3167 10.0372 51.5264 10.0477 41.1879Z" fill="#D0D6E0"/>
<path d="M36.0033 0.160992C21.4411 0.158375 8.31204 8.92959 2.73952 22.3837C-2.83235 35.8378 0.249905 51.3237 10.5498 61.6177C24.6077 75.6756 47.3995 75.6756 61.4567 61.6177C75.5146 47.5605 75.5146 24.7687 61.4567 10.7108C54.7212 3.93663 45.5562 0.138097 36.0033 0.160992ZM36.0033 68.8184C18.0017 68.8184 3.34917 54.1659 3.34917 36.1643C3.34917 18.1626 18.0017 3.51013 36.0033 3.51013C54.0049 3.51013 68.6574 18.1626 68.6574 36.1643C68.6574 54.1659 54.0049 68.8184 36.0033 68.8184Z" fill="#0772B6"/>
<path d="M49.6513 22.4326C49.3386 22.1193 48.9141 21.9427 48.4706 21.9427C48.0278 21.9427 47.6032 22.1193 47.2906 22.4326L35.9532 33.7694L24.0304 21.8465C23.3782 21.1944 22.3211 21.1944 21.6696 21.8465C21.0175 22.4987 21.0175 23.5558 21.6696 24.208L33.5924 36.1308L21.6696 48.0536C21.3556 48.3662 21.1797 48.7914 21.1797 49.2343C21.1797 49.6771 21.3556 50.1016 21.6696 50.415C21.9836 50.7309 22.4127 50.9062 22.8582 50.9003C23.3023 50.8984 23.7288 50.7244 24.0474 50.415L35.9702 38.4922L47.3069 49.8289C47.6209 50.1448 48.05 50.3201 48.4961 50.3142C48.9403 50.3123 49.3668 50.1383 49.6847 49.8289C49.9986 49.5155 50.1746 49.091 50.1746 48.6482C50.1746 48.2053 49.9986 47.7801 49.6847 47.4675L38.348 36.1308L49.6847 24.7941C50.312 24.1262 50.2969 23.0822 49.6513 22.4326Z" fill="#03D4B4"/>
</g>
<defs>
<clipPath id="clip0">
<rect width="72" height="72" fill="white"/>
</clipPath>
</defs>
</svg>
