<svg width="72" height="72" viewBox="0 0 72 72" fill="none" xmlns="http://www.w3.org/2000/svg">
<path d="M62.0056 20.229V20.2632H50.3318C46.5443 20.2645 43.4733 17.1935 43.4746 13.406V8.62344H43.7659V2.02344L62.0056 20.229Z" fill="#D0D6E0"/>
<path d="M43.7483 2.02277V8.62277H43.457V1.76562H43.5086L43.7483 2.02277Z" fill="#D0D6E0"/>
<path d="M43.7483 1.76562V2.02277L43.5086 1.76562H43.457H43.7483Z" fill="#D0D6E0"/>
<path d="M43.4579 1.76657V8.62372L39.3095 8.58956H23.8119C20.0244 8.58823 16.9541 11.6592 16.9548 15.4467V70.0808C13.1673 70.0815 10.097 67.0112 10.0977 63.2237V8.58956C10.097 4.80206 13.1673 1.73108 16.9548 1.73242L30.0691 1.74916L43.4579 1.76657Z" fill="#D0D6E0"/>
<path d="M44.9662 0.80558L44.7091 0.548438C44.4265 0.259821 44.0488 0.0830357 43.6464 0.0515625H43.6115L43.2861 0.0174106C43.2345 0.0174106 43.1662 0 43.1147 0H16.9718C12.2388 0.00200894 8.4024 3.83839 8.40039 8.57143V63.4286C8.4024 68.1616 12.2388 71.998 16.9718 72H55.1488C59.8819 71.998 63.7189 68.1616 63.7202 63.4286V20.2286C63.7169 19.7739 63.5388 19.3386 63.2234 19.0112L44.9662 0.80558ZM45.1718 5.86272L57.8917 18.5484H50.3147C47.4781 18.5404 45.1798 16.2429 45.1718 13.4056V5.86272ZM55.1321 68.5888H16.9718C14.1352 68.5801 11.837 66.2826 11.829 63.446V8.58884C11.837 5.75156 14.1352 3.45402 16.9718 3.44598H41.7607V13.4056C41.762 18.1386 45.5984 21.9757 50.3321 21.977H60.2917V63.446C60.2756 66.2859 57.972 68.5815 55.1321 68.5888Z" fill="#0772B6"/>
</svg>
