<svg width="72" height="72" viewBox="0 0 72 72" fill="none" xmlns="http://www.w3.org/2000/svg">
<g clip-path="url(#clip0_8100_31134)">
<path d="M53.5705 19.3326V19.3659H42.3879C38.7652 19.3665 35.8278 16.4298 35.8291 12.8071V7.83863H36.0091V1.82104L53.5705 19.3326Z" fill="#D0D6E0"/>
<path d="M62.0149 31.2043L64.2611 33.7619L43.8468 51.6347L42.519 57.9148L38.8457 58.1281L40.5674 49.995L62.0149 31.2043Z" fill="#D0D6E0"/>
<path d="M42.519 57.9148L38.8457 58.1281L42.519 57.9148Z" fill="#D0D6E0"/>
<path d="M36.0091 1.82105V7.83863H35.8291V1.6731H35.8618L36.0091 1.82105Z" fill="#D0D6E0"/>
<path d="M35.8289 1.673V7.83853L30.7458 7.80587H15.9225C12.2998 7.80459 9.36304 10.742 9.36368 14.3647V70.3439C5.87355 70.1761 3.13025 67.2963 3.13281 63.8017V8.21579C3.13217 4.59308 6.06891 1.6557 9.69162 1.65698H35.5009L35.8289 1.673Z" fill="#D0D6E0"/>
<path d="M9.3635 1.24707L36.0087 1.27974V1.82097L35.8613 1.67301H35.8287L35.5007 1.64034H9.69144C6.06872 1.63906 3.13199 4.57644 3.13263 8.19915V63.7851C3.13007 67.2797 5.87337 70.16 9.3635 70.3272V70.5405C5.74078 70.5418 2.80405 67.6044 2.80469 63.9817V7.80588C2.80405 4.18316 5.74078 1.24579 9.3635 1.24707Z" fill="#D0D6E0"/>
<path d="M53.5694 59.2105C52.665 59.2131 51.9323 59.9452 51.9297 60.8502V63.785C51.922 66.4982 49.7238 68.6965 47.0106 68.7042H9.44475C6.82187 68.5786 4.76263 66.4111 4.7716 63.785V8.19915C4.77992 5.48595 6.97751 3.28772 9.6907 3.28004H34.1882V12.823C34.1895 17.3501 37.8596 21.0202 42.3868 21.0215H51.9297V29.7119C51.9297 30.6176 52.6637 31.3516 53.5694 31.3516C54.4751 31.3516 55.2091 30.6176 55.2091 29.7119V19.3491C55.2059 18.9142 55.0355 18.4979 54.7339 18.1847L37.1724 0.656516L37.0084 0.492545C36.699 0.173572 36.2718 -0.00448938 35.8279 0.000634701C35.7729 -0.00192734 35.7171 0.00319673 35.664 0.017288H9.6907C5.16359 0.0185689 1.49411 3.68804 1.49219 8.2158V63.8017C1.48835 68.1706 4.91699 71.7722 9.28078 71.9836C9.41208 71.9836 9.54339 72.0002 9.6907 72.0002H47.0106C51.5377 71.9983 55.2072 68.3288 55.2091 63.8017V60.8663C55.2142 60.4288 55.0432 60.0067 54.7351 59.696C54.4271 59.3848 54.0075 59.2099 53.5694 59.2105ZM37.4677 12.823V5.59228L49.6341 17.7421H42.3868C39.6729 17.7344 37.4753 15.5368 37.4677 12.823Z" fill="#0772B6"/>
<path d="M65.4905 32.6801L63.2609 30.1219C62.9759 29.792 62.5704 29.5903 62.1355 29.5627C61.7006 29.5345 61.2727 29.6831 60.9486 29.9746L39.4852 48.7652C39.213 48.9983 39.0279 49.316 38.96 49.667L37.2383 57.7835C37.1409 58.2844 37.2735 58.8019 37.5995 59.1939C37.9121 59.5565 38.3669 59.7653 38.8453 59.7678H38.944L47.3558 59.2926C47.7209 59.2721 48.068 59.1273 48.3396 58.8826L69.803 40.0914C70.1329 39.807 70.3347 39.4016 70.3628 38.9667C70.3904 38.5318 70.2418 38.1039 69.9504 37.7792L65.4905 32.6801ZM46.6013 56.0458L40.879 56.3738L42.0428 50.8641L61.8505 33.5159L66.3923 38.6976L46.6013 56.0458Z" fill="#0772B6"/>
<path d="M13.8067 28.3841H27.5802C28.4859 28.3841 29.2199 27.6495 29.2199 26.7444C29.2199 25.8388 28.4859 25.1047 27.5802 25.1047H13.8067C12.901 25.1047 12.167 25.8388 12.167 26.7444C12.167 27.6495 12.901 28.3841 13.8067 28.3841Z" fill="#03D4B4"/>
<path d="M42.9934 35.8936H13.8067C12.901 35.8936 12.167 36.6282 12.167 37.5333C12.167 38.4389 12.901 39.173 13.8067 39.173H42.9934C43.8991 39.173 44.6331 38.4389 44.6331 37.5333C44.6331 36.6282 43.8991 35.8936 42.9934 35.8936Z" fill="#03D4B4"/>
<path d="M33.7457 46.6829H13.8067C12.901 46.6829 12.167 47.4169 12.167 48.3226C12.167 49.2282 12.901 49.9623 13.8067 49.9623H33.7457C34.6508 49.9623 35.3854 49.2282 35.3854 48.3226C35.3854 47.4169 34.6508 46.6829 33.7457 46.6829Z" fill="#03D4B4"/>
<path d="M33.7457 57.4722H13.8067C12.901 57.4722 12.167 58.2062 12.167 59.1119C12.167 60.0175 12.901 60.7516 13.8067 60.7516H33.7457C34.6508 60.7516 35.3854 60.0175 35.3854 59.1119C35.3854 58.2062 34.6508 57.4722 33.7457 57.4722Z" fill="#03D4B4"/>
</g>
<defs>
<clipPath id="clip0_8100_31134">
<rect width="72" height="72" fill="white"/>
</clipPath>
</defs>
</svg>
