<svg width="40" height="40" viewBox="0 0 40 40" fill="none" xmlns="http://www.w3.org/2000/svg">
<g clip-path="url(#clip0)">
<path d="M19.5582 19.5757C17.7315 19.5757 16.2506 18.0948 16.2506 16.2681C16.2506 14.4415 17.7315 12.9606 19.5582 12.9606C21.3852 12.9606 22.8657 14.4415 22.8657 16.2681C22.8657 16.6955 23.2123 17.0416 23.6392 17.0416C24.0665 17.0416 24.4127 16.6955 24.4127 16.2681C24.4097 13.8868 22.6823 11.8582 20.3316 11.4758V9.94476C20.3316 9.51745 19.9855 9.17128 19.5582 9.17128C19.1308 9.17128 18.7847 9.51745 18.7847 9.94476V11.4758C16.2873 11.8802 14.5189 14.1342 14.7213 16.6562C14.9233 19.1778 17.0284 21.1214 19.5582 21.1222C21.3775 21.1222 22.8549 22.5911 22.8657 24.4104C22.8761 26.2293 21.4155 27.7154 19.5966 27.7365C19.5836 27.7357 19.5711 27.7344 19.5582 27.7344C19.5452 27.7344 19.5327 27.7357 19.5197 27.7365C17.7091 27.7137 16.2527 26.2405 16.2506 24.4298C16.2506 24.0025 15.9044 23.6563 15.4771 23.6563C15.0498 23.6563 14.7036 24.0025 14.7036 24.4298C14.7066 26.8111 16.4344 28.8398 18.7847 29.2222V30.9392C18.7847 31.3665 19.1308 31.7127 19.5582 31.7127C19.9855 31.7127 20.3316 31.3665 20.3316 30.9392V29.2222C22.8295 28.8191 24.5987 26.5642 24.3963 24.0422C24.1943 21.5202 22.0884 19.5761 19.5582 19.5757Z" fill="#1AE5BE"/>
<path d="M19.5578 2.43092C21.5761 2.42833 23.5806 2.76586 25.4867 3.42971C25.7478 3.52251 26.0391 3.46812 26.2493 3.28727C26.4595 3.10685 26.5571 2.82715 26.5049 2.55479C26.4526 2.28244 26.2584 2.05885 25.996 1.96907C23.9263 1.24825 21.7496 0.881365 19.5578 0.883955C8.77351 0.883955 -0.000227102 9.65726 -0.000227102 20.442C-0.00324852 22.7274 0.395577 24.9957 1.17812 27.143C1.32445 27.5444 1.76859 27.7512 2.17001 27.6044C2.57142 27.4581 2.77774 27.014 2.63142 26.6125C1.91103 24.6353 1.54414 22.5466 1.54673 20.442C1.54673 10.5106 9.62641 2.43092 19.5578 2.43092Z" fill="#0772B6"/>
<path d="M36.5988 12.4918C36.2048 12.6567 36.0192 13.1099 36.1836 13.504C37.103 15.7014 37.5739 18.0602 37.5692 20.442C37.5692 30.3733 29.4895 38.453 19.5581 38.453C15.6398 38.4651 11.8263 37.1875 8.70607 34.8178C8.36508 34.5602 7.88036 34.6275 7.62268 34.968C7.365 35.309 7.43233 35.7942 7.77289 36.0519C11.1616 38.6257 15.3031 40.0129 19.5581 40C30.3428 40 39.1161 31.2267 39.1161 20.442C39.1213 17.8552 38.6094 15.2935 37.611 12.907C37.4461 12.5129 36.9929 12.3269 36.5988 12.4918Z" fill="#0772B6"/>
<path d="M39.2268 4.8567H35.1436V0.773481C35.1436 0.346167 34.7974 0 34.3701 0C33.9428 0 33.5966 0.346167 33.5966 0.773481V4.8567H29.282C28.8547 4.8567 28.5085 5.20287 28.5085 5.63018C28.5085 6.05749 28.8547 6.40366 29.282 6.40366H33.5966V10.7182C33.5966 11.1455 33.9428 11.4917 34.3701 11.4917C34.7974 11.4917 35.1436 11.1455 35.1436 10.7182V6.40366H39.2268C39.6541 6.40366 40.0002 6.05749 40.0002 5.63018C40.0002 5.20287 39.6541 4.8567 39.2268 4.8567Z" fill="#1AE5BE"/>
<path d="M6.12702 39.0767C5.75107 39.0767 5.42908 38.806 5.36476 38.4357L4.31892 32.4037C4.2831 32.1956 4.33317 31.9824 4.45834 31.8123C4.58351 31.6427 4.77257 31.5314 4.98191 31.5046L11.0528 30.716C11.3601 30.6763 11.6614 30.8235 11.8189 31.0907C11.976 31.3574 11.9588 31.6924 11.7753 31.9418L6.74986 38.7625C6.60397 38.9601 6.37262 39.0767 6.12702 39.0767ZM5.98113 32.9342L6.57937 36.385L9.45445 32.4831L5.98113 32.9342Z" fill="#1AE5BE"/>
</g>
<defs>
<clipPath id="clip0">
<rect width="40" height="40" fill="white"/>
</clipPath>
</defs>
</svg>
