<svg width="72" height="72" viewBox="0 0 72 72" fill="none" xmlns="http://www.w3.org/2000/svg">
<g clip-path="url(#clip0_15873_75903)">
<path d="M35.2045 35.2363C31.9165 35.2363 29.2508 32.5706 29.2508 29.2826C29.2508 25.9947 31.9165 23.329 35.2045 23.329C38.4932 23.329 41.1581 25.9947 41.1581 29.2826C41.1581 30.0518 41.782 30.6749 42.5504 30.6749C43.3196 30.6749 43.9427 30.0518 43.9427 29.2826C43.9372 24.9963 40.8279 21.3447 36.5967 20.6563V17.9006C36.5967 17.1314 35.9736 16.5083 35.2045 16.5083C34.4353 16.5083 33.8122 17.1314 33.8122 17.9006V20.6563C29.3169 21.3843 26.1338 25.4415 26.4982 29.9811C26.8618 34.52 30.6509 38.0185 35.2045 38.02C38.4793 38.02 41.1387 40.6639 41.1581 43.9387C41.1768 47.2127 38.5476 49.8877 35.2736 49.9258C35.2503 49.9242 35.2278 49.9219 35.2045 49.9219C35.1812 49.9219 35.1586 49.9242 35.1353 49.9258C31.8761 49.8846 29.2547 47.2329 29.2508 43.9737C29.2508 43.2045 28.6277 42.5814 27.8586 42.5814C27.0894 42.5814 26.4663 43.2045 26.4663 43.9737C26.4717 48.26 29.5818 51.9116 33.8122 52.6V55.6906C33.8122 56.4598 34.4353 57.0829 35.2045 57.0829C35.9736 57.0829 36.5967 56.4598 36.5967 55.6906V52.6C41.0929 51.8743 44.2775 47.8156 43.9131 43.276C43.5495 38.7364 39.7589 35.2371 35.2045 35.2363Z" fill="#03D4B4"/>
<path d="M35.2042 4.37562C38.8372 4.37096 42.4452 4.97852 45.8762 6.17344C46.3462 6.34049 46.8706 6.24259 47.249 5.91706C47.6274 5.5923 47.803 5.08884 47.709 4.5986C47.615 4.10835 47.2653 3.7059 46.793 3.5443C43.0676 2.24682 39.1495 1.58643 35.2042 1.59109C15.7925 1.59109 -0.00021347 17.383 -0.00021347 36.7955C-0.00565202 40.9094 0.712235 44.9922 2.12082 48.8574C2.3842 49.58 3.18366 49.9521 3.90621 49.688C4.62876 49.4246 5.00013 48.6251 4.73675 47.9026C3.44005 44.3434 2.77966 40.5838 2.78432 36.7955C2.78432 18.919 17.3277 4.37562 35.2042 4.37562Z" fill="#0772B6"/>
<path d="M65.878 22.4851C65.1686 22.7819 64.8346 23.5977 65.1306 24.3071C66.7854 28.2624 67.6331 32.5084 67.6245 36.7955C67.6245 54.672 53.0811 69.2154 35.2046 69.2154C28.1516 69.2371 21.2874 66.9374 15.671 62.672C15.0572 62.2082 14.1847 62.3294 13.7209 62.9424C13.257 63.5562 13.3782 64.4295 13.9912 64.8933C20.0909 69.5261 27.5456 72.0232 35.2046 71.9999C54.6171 71.9999 70.4091 56.2079 70.4091 36.7955C70.4184 32.1393 69.4969 27.5282 67.6999 23.2326C67.4031 22.5232 66.5873 22.1884 65.878 22.4851Z" fill="#0772B6"/>
<path d="M70.6078 8.74206H63.258V1.39227C63.258 0.623101 62.6349 0 61.8657 0C61.0965 0 60.4734 0.623101 60.4734 1.39227V8.74206H52.7072C51.938 8.74206 51.3149 9.36516 51.3149 10.1343C51.3149 10.9035 51.938 11.5266 52.7072 11.5266H60.4734V19.2928C60.4734 20.062 61.0965 20.6851 61.8657 20.6851C62.6349 20.6851 63.258 20.062 63.258 19.2928V11.5266H70.6078C71.3769 11.5266 72 10.9035 72 10.1343C72 9.36516 71.3769 8.74206 70.6078 8.74206Z" fill="#03D4B4"/>
<path d="M11.0283 70.3381C10.3516 70.3381 9.77204 69.851 9.65628 69.1843L7.77377 58.3267C7.70928 57.9522 7.79941 57.5684 8.02472 57.2623C8.25003 56.957 8.59033 56.7565 8.96714 56.7083L19.8947 55.2889C20.4479 55.2174 20.9902 55.4823 21.2738 55.9633C21.5566 56.4434 21.5255 57.0463 21.1953 57.4954L12.1495 69.7725C11.8869 70.1283 11.4704 70.3381 11.0283 70.3381ZM10.7657 59.2815L11.8426 65.4931L17.0177 58.4696L10.7657 59.2815Z" fill="#03D4B4"/>
</g>
<defs>
<clipPath id="clip0_15873_75903">
<rect width="72" height="72" fill="white"/>
</clipPath>
</defs>
</svg>
