<svg width="40" height="40" viewBox="0 0 40 40" fill="none" xmlns="http://www.w3.org/2000/svg">
<g clip-path="url(#clip0)">
<path d="M23.3898 36.6102C12.3614 36.6102 3.38983 27.6386 3.38983 16.6102C3.38542 12.1341 4.88965 7.78691 7.66067 4.27129C2.82486 8.05792 -0.000441333 13.8582 5.17089e-08 20C5.17089e-08 31.0284 8.97158 40 20 40C26.1419 40 31.9425 37.1752 35.7287 32.3389C32.2131 35.1099 27.8659 36.6146 23.3898 36.6102Z" fill="#D4E1F4"/>
<path d="M38.0233 2.63994C37.7214 2.32391 37.2204 2.31243 36.9044 2.61434L30.9749 8.27818L27.841 5.14391C27.5321 4.83494 27.0311 4.83494 26.7221 5.14391C26.4136 5.45288 26.4136 5.95385 26.7221 6.26282L30.4028 9.94352C30.7069 10.2476 31.1978 10.2529 31.5085 9.95588L37.9973 3.75841C38.3133 3.4565 38.3248 2.95553 38.0233 2.63994Z" fill="#1AE5BE"/>
<path d="M20.0001 12.3495C21.8672 12.3517 23.3803 13.8648 23.3825 15.7318C23.3825 16.1688 23.7365 16.5228 24.1734 16.5228C24.6104 16.5228 24.9644 16.1688 24.9644 15.7318C24.9613 13.2967 23.1944 11.2222 20.7911 10.8311V9.26555C20.7911 8.82858 20.4371 8.47459 20.0001 8.47459C19.5632 8.47459 19.2092 8.82858 19.2092 9.26555V10.8311C16.6553 11.2447 14.847 13.5496 15.054 16.1286C15.2606 18.7072 17.4132 20.6948 20.0001 20.6956C21.8601 20.6956 23.3714 22.1977 23.382 24.0581C23.3931 25.9181 21.8994 27.4378 20.0394 27.4594C20.0262 27.4585 20.0134 27.4572 20.0001 27.4572C19.9869 27.4572 19.9741 27.4585 19.9609 27.4594C18.1092 27.436 16.62 25.9296 16.6178 24.078C16.6178 23.641 16.2638 23.287 15.8268 23.287C15.3899 23.287 15.0359 23.641 15.0359 24.078C15.039 26.5131 16.8054 28.5876 19.2092 28.9787V30.7345C19.2092 31.1714 19.5632 31.5254 20.0001 31.5254C20.4371 31.5254 20.7911 31.1714 20.7911 30.7345V28.9787C23.3454 28.5664 25.1546 26.2606 24.9476 23.6816C24.741 21.1026 22.5875 19.1146 20.0001 19.1146C18.7872 19.1212 17.663 18.4781 17.0548 17.429C16.4461 16.3793 16.4461 15.0848 17.0548 14.0352C17.663 12.986 18.7872 12.3429 20.0001 12.3499V12.3495Z" fill="#1AE5BE"/>
<path d="M37.4258 11.87C37.0229 12.0386 36.8331 12.5021 37.0012 12.9051C37.9414 15.1522 38.4229 17.5643 38.4181 19.9999C38.4181 30.1557 30.1558 38.418 20 38.418C9.84419 38.418 1.58192 30.1557 1.58192 19.9999C1.58192 9.84408 9.84419 1.58181 20 1.58181C22.0639 1.57916 24.1137 1.92433 26.0629 2.60318C26.3299 2.69807 26.6278 2.64246 26.8428 2.45752C27.0577 2.27302 27.1575 1.987 27.1041 1.70849C27.0507 1.42998 26.852 1.20134 26.5837 1.10953C24.4668 0.37242 22.2413 -0.00275645 20 -0.000108147C8.97157 -0.000108147 0 8.97147 0 19.9999C0 31.0283 8.97157 39.9999 20 39.9999C31.0284 39.9999 40 31.0283 40 19.9999C40.0049 17.3547 39.4818 14.7351 38.4609 12.2947C38.2923 11.8917 37.8288 11.7019 37.4258 11.87Z" fill="#0772B6"/>
</g>
<defs>
<clipPath id="clip0">
<rect width="40" height="40" fill="white"/>
</clipPath>
</defs>
</svg>
