<svg width="20" height="10" viewBox="0 0 20 10" fill="none" xmlns="http://www.w3.org/2000/svg">
<path fill-rule="evenodd" clip-rule="evenodd" d="M12.0044 1.12056C12.2485 1.36464 12.2485 1.76036 12.0044 2.00444L5.12944 8.87944C4.88537 9.12352 4.48965 9.12352 4.24557 8.87945L0.808068 5.44211C0.563985 5.19804 0.563976 4.80231 0.808048 4.55822C1.05212 4.31414 1.44785 4.31413 1.69193 4.5582L4.68749 7.55363L11.1206 1.12056C11.3646 0.876481 11.7604 0.876481 12.0044 1.12056Z" fill="#04446C" style="mix-blend-mode:darken"/>
<path fill-rule="evenodd" clip-rule="evenodd" d="M19.192 1.12056C19.4361 1.36464 19.4361 1.76036 19.192 2.00444L12.317 8.87944C12.073 9.12352 11.6772 9.12352 11.4332 8.87945L9.60714 7.05351C9.36306 6.80944 9.36305 6.41371 9.60712 6.16963C9.85119 5.92555 10.2469 5.92554 10.491 6.16961L11.8751 7.55363L18.3081 1.12056C18.5522 0.876481 18.948 0.876481 19.192 1.12056Z" fill="#04446C" style="mix-blend-mode:darken"/>
</svg>
