<svg width="100" height="100" viewBox="0 0 100 100" fill="none" xmlns="http://www.w3.org/2000/svg">
<path d="M94.9237 78.6619H17.93C12.7631 78.6562 8.57665 74.4688 8.57099 69.3029V18.5622C8.57005 17.4913 8.75404 16.4289 9.11447 15.4203C5.39032 16.7525 2.90316 20.2795 2.89844 24.2348V74.9745C2.9041 80.1413 7.09058 84.3278 12.2574 84.3335H89.2511C93.2074 84.3297 96.7352 81.8425 98.0675 78.1175C97.0589 78.4779 95.9955 78.6628 94.9237 78.6619Z" fill="#D0D6E0"/>
<path d="M50.0136 63.3718C52.7046 63.3709 55.3078 62.4123 57.3563 60.6667L99.4032 25.0047L97.216 22.426L55.1691 58.0871C52.2008 60.6186 47.8331 60.6205 44.8629 58.0908L2.78387 22.4609L0.598633 25.0415L42.6776 60.6724C44.7251 62.4141 47.3246 63.3709 50.0136 63.3718Z" fill="#03D4B4"/>
<path d="M11.3527 87.4736H88.6473C94.9143 87.467 99.9934 82.3879 100 76.1209V23.6715C99.9934 17.4045 94.9143 12.3255 88.6473 12.3188H11.3527C5.08567 12.3255 0.00660478 17.4045 0 23.6715V76.1209C0.00660478 82.3879 5.08567 87.467 11.3527 87.4736ZM3.38164 23.6715C3.38636 19.2708 6.95199 15.7052 11.3527 15.7005H88.6473C93.048 15.7052 96.6136 19.2708 96.6184 23.6715V76.1209C96.6202 77.4362 96.2938 78.7308 95.6701 79.8875L72.6327 56.4482C71.9769 55.7877 70.9117 55.7811 70.2474 56.4331C69.5841 57.086 69.5718 58.1512 70.221 58.8183L93.4641 82.4672C92.0799 83.523 90.3882 84.0938 88.6473 84.0919H11.3527C9.60805 84.0938 7.91157 83.5202 6.52646 82.4596L29.6422 58.8155C30.0706 58.3843 30.2348 57.7568 30.0725 57.1718C29.9102 56.5859 29.4469 56.133 28.8581 55.9839C28.2684 55.8349 27.6447 56.0132 27.2239 56.4519L4.32329 79.8753C3.70433 78.7213 3.3807 77.4315 3.38164 76.1209V23.6715Z" fill="#0772B6"/>
</svg>
