<svg width="72" height="72" viewBox="0 0 72 72" fill="none" xmlns="http://www.w3.org/2000/svg">
<path d="M11.5866 54.6492H10.9006C7.92718 54.646 5.51692 52.2364 5.51375 49.2624V6.52125C5.51312 5.8992 5.62144 5.28159 5.83237 4.69629C3.69703 5.46783 2.27304 7.49422 2.27051 9.76449V52.5056C2.27368 55.4796 4.68394 57.8893 7.65733 57.8924H8.34335C10.6149 57.8899 12.6413 56.4659 13.4135 54.3299C12.8275 54.5415 12.2093 54.6498 11.5866 54.6492Z" fill="#D0D6E0"/>
<path d="M17.0235 54.6493C18.4475 53.2183 19.2463 51.2812 19.2456 49.2625V21.8843C19.245 21.2622 19.3527 20.6446 19.5643 20.0593C17.4289 20.8315 16.0049 22.8573 16.0024 25.1275V52.5057C16.003 54.5245 15.2043 56.4616 13.7803 57.8925H38.1432C37.8005 56.8372 37.5605 55.7508 37.4262 54.6493H17.0235Z" fill="#D0D6E0"/>
<path d="M39.8919 57.8926H13.78C15.204 56.4616 16.0027 54.5245 16.0021 52.5057V25.1276C16.0053 22.1542 18.4149 19.7446 21.3889 19.7408H52.9897C55.9637 19.7439 58.3746 22.1535 58.3784 25.1276V37.1358H60.6486V25.1276C60.6436 20.9006 57.2173 17.4749 52.9897 17.4705H52.6495V17.2779C52.6451 13.0503 49.2194 9.62399 44.9918 9.61892H32.7504C32.6111 9.61892 32.478 9.56065 32.3849 9.45739L27.9432 4.5995C26.4913 3.01398 24.4409 2.11005 22.291 2.10815H7.65709C3.43074 2.11322 0.00506757 5.53826 0 9.76461V52.5057C0.00506757 56.7327 3.43011 60.1584 7.65709 60.1628H39.8919V57.8926ZM7.65709 57.8926C4.6837 57.8894 2.27344 55.4798 2.27027 52.5057V9.76461C2.27407 6.79122 4.6837 4.38159 7.65709 4.37842H22.291C23.8036 4.37969 25.246 5.0163 26.2677 6.1318L30.7069 10.9878C31.2308 11.5623 31.9725 11.8898 32.7504 11.8898H44.9918C47.9664 11.8936 50.3761 14.3039 50.3792 17.2785V17.4711H21.3889C17.162 17.4762 13.7369 20.9019 13.7318 25.1288V52.5064C13.728 55.481 11.3178 57.8907 8.34312 57.8938L7.65709 57.8926Z" fill="#0772B6"/>
<path d="M54.6482 35.1899C45.0655 35.1899 37.2969 42.9585 37.2969 52.5413C37.2969 62.1241 45.0655 69.8926 54.6482 69.8926C64.231 69.8926 71.9996 62.1241 71.9996 52.5413C71.9888 42.963 64.2266 35.2007 54.6482 35.1899ZM54.6482 67.6224C46.319 67.6224 39.5671 60.8705 39.5671 52.5413C39.5671 44.2121 46.319 37.4602 54.6482 37.4602C62.9774 37.4602 69.7293 44.2121 69.7293 52.5413C69.7198 60.8667 62.9736 67.6129 54.6482 67.6224Z" fill="#03D4B4"/>
<path d="M60.0944 47.0949C59.651 46.6515 58.9327 46.6515 58.4893 47.0949L54.6481 50.9355L50.8069 47.0943C50.3634 46.6509 49.6451 46.6509 49.2017 47.0943C48.7583 47.5377 48.7583 48.2567 49.2017 48.6994L53.0429 52.5413L49.2017 56.3825C48.7583 56.8259 48.7583 57.5442 49.2017 57.9876C49.6451 58.4311 50.3634 58.4311 50.8069 57.9876L54.6481 54.1471L58.4893 57.9883C58.9327 58.4311 59.651 58.4311 60.0944 57.9883C60.5379 57.5449 60.5379 56.8259 60.0944 56.3825L56.2532 52.5413L60.0944 48.7001C60.5379 48.2573 60.5379 47.5383 60.0944 47.0949Z" fill="#03D4B4"/>
</svg>
