<svg width="40" height="40" viewBox="0 0 40 40" fill="none" xmlns="http://www.w3.org/2000/svg">
<g clip-path="url(#clip0)">
<path d="M10.5147 32.2104C11.3864 31.3344 11.8754 30.1486 11.875 28.9128V12.1534C11.8746 11.7723 11.9405 11.3942 12.07 11.0363C10.7628 11.5086 9.89114 12.7487 9.88959 14.1388V30.8982C9.88998 32.134 9.401 33.3198 8.5293 34.1958H20.9616L21.5153 32.2104H10.5147Z" fill="#D4E1F4"/>
<path d="M7.18656 32.2104H6.76661C4.94642 32.2085 3.47096 30.7334 3.46902 28.9128V2.74851C3.46863 2.36772 3.53494 1.98965 3.66407 1.63135C2.3569 2.10365 1.48519 3.34412 1.48364 4.73389V30.8982C1.48558 32.7188 2.96104 34.1939 4.78123 34.1958H5.20119C6.59173 34.1943 7.8322 33.3226 8.30489 32.0154C7.9462 32.1449 7.56774 32.2108 7.18656 32.2104Z" fill="#D4E1F4"/>
<path d="M4.7811 35.5394H21.4366V34.1497H8.52928C9.40098 33.2733 9.88996 32.0875 9.88957 30.8517V14.0923C9.89151 12.2717 11.3666 10.7967 13.1872 10.7943H32.5318C34.3528 10.7963 35.8282 12.2713 35.8305 14.0923V25.2155H37.2203V14.0923C37.2172 11.5043 35.1198 9.40728 32.5318 9.40456H32.3236V9.28668C32.3208 6.69871 30.2238 4.60127 27.6358 4.59817H20.1422C20.0569 4.59817 19.9758 4.56249 19.9184 4.49967L17.1994 1.52587C16.311 0.554898 15.0554 0.00155108 13.7393 0H4.7811C2.19352 0.00271439 0.0968522 2.09977 0.09375 4.68735V30.8517C0.0968522 33.4393 2.19352 35.5363 4.7811 35.5394ZM1.48351 4.68735C1.48545 2.86717 2.96091 1.3917 4.7811 1.38976H13.7393C14.6653 1.39054 15.5483 1.78025 16.1738 2.46311L18.8916 5.43575C19.2123 5.78745 19.6664 5.98793 20.1422 5.98793H27.6362C29.4568 5.99026 30.9319 7.46572 30.9338 9.28668V9.40456H13.1872C10.5996 9.40767 8.50291 11.5047 8.49981 14.0923V30.8517C8.49748 32.6727 7.02202 34.1477 5.20106 34.1497H4.7811C2.96091 34.1473 1.48545 32.6723 1.48351 30.8517V4.68735Z" fill="#0772B6"/>
<path d="M37.3196 24.5551H34.0557C33.6835 22.8737 32.1925 21.6767 30.47 21.6767C28.7476 21.6767 27.2566 22.8737 26.8847 24.5551H23.422C21.9422 24.557 20.7433 25.756 20.7417 27.2354V37.3197C20.7433 38.7994 21.9422 39.9984 23.422 40H37.3196C38.7993 39.9984 39.9983 38.7994 39.9999 37.3197V27.2354C39.9983 25.756 38.7993 24.557 37.3196 24.5551ZM30.47 23.0661C31.4243 23.0672 32.2778 23.6609 32.6105 24.5551H28.3296C28.6627 23.6609 29.5157 23.0672 30.47 23.0661ZM23.422 25.9449H37.3196C38.0319 25.9456 38.6093 26.523 38.6101 27.2354V28.9679L32.3515 31.2278V30.785C32.3515 30.4011 32.0401 30.0901 31.6566 30.0901H29.107C28.7231 30.0901 28.4122 30.4011 28.4122 30.785V31.236L22.1315 28.9679V27.2354C22.1322 26.523 22.7096 25.9456 23.422 25.9449ZM29.8019 32.746C30.0354 32.4846 30.0354 32.0895 29.8019 31.8281V31.4799H30.9617V31.8056C30.6992 32.0736 30.6992 32.502 30.9617 32.77V33.2931H29.8019V32.746ZM37.3196 38.6102H23.422C22.7096 38.6094 22.1322 38.032 22.1315 37.3197V30.4453L28.4122 32.7134V33.9884C28.4122 34.3719 28.7231 34.6832 29.107 34.6832H31.6566C32.0401 34.6832 32.3515 34.3719 32.3515 33.9884V32.7056L38.6101 30.4453V37.3197C38.6093 38.032 38.0319 38.6094 37.3196 38.6102Z" fill="#03D4B4"/>
</g>
<defs>
<clipPath id="clip0">
<rect width="40" height="40" fill="white"/>
</clipPath>
</defs>
</svg>
