<svg width="40" height="40" viewBox="0 0 40 40" fill="none" xmlns="http://www.w3.org/2000/svg">
<g clip-path="url(#clip0)">
<path d="M6.24235 29.6036H5.87274C4.27077 29.6019 2.9722 28.3037 2.9705 26.7014V3.67387C2.97016 3.33873 3.02852 3.00599 3.14216 2.69064C1.99171 3.10632 1.22451 4.19774 1.22314 5.42122V28.4487C1.22485 30.051 2.52342 31.3493 4.12539 31.351H4.49499C5.71882 31.3496 6.81058 30.5824 7.2266 29.4316C6.91092 29.5456 6.57783 29.604 6.24235 29.6036Z" fill="#D4E1F4"/>
<path d="M9.17167 29.6036C9.93887 28.8327 10.3692 27.789 10.3689 26.7014V11.9509C10.3685 11.6158 10.4266 11.283 10.5405 10.9677C9.39009 11.3837 8.62289 12.4751 8.62153 13.6983V28.4487C8.62187 29.5364 8.19151 30.58 7.42432 31.351H20.5479C20.3643 30.7824 20.2356 30.1971 20.1636 29.6036H9.17167Z" fill="#D4E1F4"/>
<path d="M4.12539 32.5741H21.4924V31.3509H7.4242C8.1914 30.58 8.62175 29.5364 8.62141 28.4487V13.6982C8.62312 12.0963 9.92135 10.7977 11.5237 10.796H28.5491C30.1514 10.7977 31.4503 12.0959 31.4524 13.6982V20.1679H32.6755V13.6982C32.6728 11.4209 30.8268 9.57524 28.5491 9.57285H28.3658V9.46876C28.3634 7.1914 26.5178 5.34541 24.2401 5.34268H17.6449C17.5698 5.34268 17.4984 5.31129 17.4479 5.25566L15.0549 2.63838C14.2727 1.78416 13.1679 1.29715 12.0096 1.29613H4.12539C1.84837 1.29886 0.00273024 3.14382 0 5.42118V28.4487C0.00273024 30.7261 1.84803 32.5717 4.12539 32.5741ZM1.22315 5.42118C1.22519 3.81921 2.52342 2.52098 4.12539 2.51927H12.0096C12.8246 2.51996 13.6017 2.86294 14.1522 3.46394L16.5439 6.08019C16.8265 6.38973 17.2258 6.56617 17.6449 6.56617H24.2401C25.8427 6.56822 27.141 7.86679 27.1427 9.46944V9.57319H11.5237C9.2463 9.57592 7.401 11.4216 7.39827 13.6989V28.449C7.39622 30.0517 6.09765 31.3499 4.495 31.3513H4.12539C2.52308 31.3496 1.22485 30.051 1.22315 28.4487V5.42118Z" fill="#0772B6"/>
<path d="M36.5895 34.487C39.8405 30.6254 39.4419 24.8813 35.6889 21.5057C31.9355 18.1301 26.1812 18.3404 22.6847 21.9811C19.188 25.6219 19.2102 31.38 22.7346 34.9938C26.259 38.6076 32.015 38.7738 35.7421 35.3695L38.9559 38.5834C39.1945 38.8223 39.5818 38.8223 39.8207 38.5834C40.0596 38.3445 40.0596 37.9575 39.8207 37.7186L36.5895 34.487ZM29.4428 36.593C24.9553 36.593 21.3176 32.9553 21.3176 28.4678C21.3176 23.9804 24.9553 20.3427 29.4428 20.3427C33.9302 20.3427 37.5679 23.9804 37.5679 28.4678C37.5628 32.9533 33.9282 36.5879 29.4428 36.593Z" fill="#03D4B4"/>
</g>
<defs>
<clipPath id="clip0">
<rect width="40" height="40" fill="white"/>
</clipPath>
</defs>
</svg>
