<svg width="100" height="100" viewBox="0 0 100 100" fill="none" xmlns="http://www.w3.org/2000/svg">
<path d="M65.625 6.25C61.2331 6.24899 56.9021 7.27677 52.9789 9.25097C49.0557 11.2252 45.6496 14.0909 43.0333 17.6185C40.4171 21.1461 38.6635 25.2375 37.9132 29.5648C37.1629 33.8921 37.4366 38.335 38.7125 42.5375L6.25 75V93.75H25L57.4625 61.2875C61.331 62.4617 65.4071 62.7882 69.4131 62.2446C73.4191 61.701 77.2609 60.3002 80.6766 58.1376C84.0922 55.975 87.0016 53.1015 89.2062 49.7128C91.4109 46.3242 92.8592 42.5 93.4522 38.501C94.0453 34.502 93.7693 30.4222 92.643 26.5395C91.5167 22.6568 89.5666 19.0626 86.9256 16.0018C84.2846 12.9409 81.0148 10.4854 77.339 8.80253C73.6632 7.11968 69.6677 6.24906 65.625 6.25V6.25ZM65.625 56.25C63.4735 56.2488 61.3339 55.9308 59.275 55.3062L55.6906 54.2188L53.0438 56.8656L43.1031 66.8063L38.7938 62.5L34.375 66.9187L38.6844 71.2281L33.7281 76.1844L29.4188 71.875L25 76.2937L29.3094 80.6031L22.4125 87.5H12.5V77.5875L43.1313 46.9563L45.7813 44.3094L44.6938 40.725C43.3581 36.3218 43.4448 31.6096 44.9417 27.2586C46.4386 22.9077 49.2694 19.1395 53.0314 16.4901C56.7934 13.8407 61.295 12.4451 65.8959 12.5017C70.4969 12.5583 74.9628 14.0642 78.6585 16.8054C82.3541 19.5465 85.0913 23.3832 86.4807 27.7697C87.8701 32.1562 87.8409 36.8691 86.3973 41.2381C84.9537 45.607 82.1692 49.4095 78.4399 52.1047C74.7105 54.7998 70.2263 56.2504 65.625 56.25V56.25Z" fill="#0772B6"/>
<path d="M68.75 37.5C72.2018 37.5 75 34.7018 75 31.25C75 27.7982 72.2018 25 68.75 25C65.2982 25 62.5 27.7982 62.5 31.25C62.5 34.7018 65.2982 37.5 68.75 37.5Z" fill="#03D4B4"/>
</svg>
