<svg width="72" height="73" viewBox="0 0 72 73" fill="none" xmlns="http://www.w3.org/2000/svg">
<path d="M34.9987 27.9703L40.048 19.3171H36.8082C36.6186 19.3165 36.4422 19.4133 36.3408 19.5738L29.9062 29.6678H67.3994L66.3603 27.9703H34.9987Z" fill="#D0D6E0"/>
<path d="M36.2717 50.4302C35.9653 50.4296 35.7173 50.1816 35.7167 49.8752V32.0444H28.9268V54.9677C28.9274 55.274 29.1754 55.522 29.4818 55.5227H67.8236C68.1293 55.522 68.3773 55.274 68.3779 54.9677V50.4302H36.2717Z" fill="#D0D6E0"/>
<path d="M48.6521 32.0444C47.9957 32.0444 47.4639 31.5126 47.4639 30.8561V18.129C47.4639 17.4732 47.9957 16.9408 48.6521 16.9408C49.3086 16.9408 49.8403 17.4732 49.8403 18.129V30.8568C49.8403 31.5126 49.3079 32.0444 48.6521 32.0444Z" fill="#03D4B4"/>
<path d="M54.4967 57.8991C53.8403 57.8991 53.3085 57.3667 53.3085 56.7109V42.8128L43.9976 38.9086V56.7109C43.9976 57.3667 43.4658 57.8991 42.8093 57.8991C42.1529 57.8991 41.6211 57.3667 41.6211 56.7109V37.1216C41.6211 36.7237 41.82 36.3524 42.1516 36.1323C42.4824 35.9121 42.9022 35.8723 43.2688 36.0262L54.9562 40.9263C55.3979 41.1113 55.685 41.5436 55.685 42.0224V56.7102C55.685 57.3667 55.1532 57.8991 54.4967 57.8991Z" fill="#03D4B4"/>
<path d="M1.18824 5.05842H10.1133C13.306 5.0624 15.8927 7.64907 15.896 10.8411V55.1228C15.896 55.7793 16.4284 56.3111 17.0842 56.3111C17.7407 56.3111 18.2724 55.7793 18.2724 55.1228V10.8411C18.2678 6.3375 14.6176 2.68725 10.1133 2.68195H1.18824C0.531789 2.68195 0 3.2144 0 3.87018C0 4.52663 0.531789 5.05842 1.18824 5.05842Z" fill="#0772B6"/>
<path d="M24.3699 64.1121H70.8112C71.4677 64.1121 71.9995 63.5803 71.9995 62.9239C71.9995 62.2674 71.4677 61.7357 70.8112 61.7357H24.3699C23.7134 61.7357 23.1816 62.2674 23.1816 62.9239C23.1816 63.5803 23.7134 64.1121 24.3699 64.1121Z" fill="#0772B6"/>
<path d="M29.4816 57.8991H67.8234C69.4413 57.8971 70.7522 56.5855 70.7542 54.9676V30.8561C70.7536 30.8051 70.7502 30.754 70.743 30.7029C70.7416 30.691 70.7396 30.6791 70.7377 30.6671C70.7304 30.6234 70.7211 30.5796 70.7098 30.5372C70.7078 30.5305 70.7065 30.5246 70.7045 30.5179C70.6899 30.4689 70.672 30.4205 70.6508 30.3734C70.6475 30.3654 70.6442 30.3588 70.6402 30.3515C70.6216 30.3104 70.5997 30.2713 70.5759 30.2328C70.5732 30.2275 70.5706 30.2222 70.5679 30.2169L62.9684 18.2961C62.4319 17.45 61.499 16.9381 60.4971 16.9407H36.8079C35.806 16.9381 34.8731 17.45 34.3366 18.2961L26.7371 30.2176C26.7338 30.2229 26.7318 30.2282 26.7291 30.2328C26.7053 30.2713 26.6834 30.3111 26.6642 30.3522C26.6609 30.3588 26.6569 30.3661 26.6536 30.3734C26.633 30.4205 26.6151 30.4689 26.5998 30.5186C26.5985 30.5246 26.5972 30.5305 26.5952 30.5372C26.5833 30.5796 26.574 30.6234 26.5674 30.6671C26.5654 30.6791 26.5634 30.691 26.5614 30.7036C26.5548 30.754 26.5508 30.8051 26.5508 30.8561V54.9676C26.5528 56.5855 27.8637 57.8971 29.4816 57.8991ZM36.3391 19.5732C36.4406 19.4134 36.617 19.3166 36.8066 19.3166H60.4971C60.6867 19.3166 60.8631 19.4134 60.9645 19.5732L67.3991 29.6679H29.906L36.3391 19.5732ZM28.9259 32.0443H68.3778V54.9676C68.3771 55.274 68.1291 55.522 67.8234 55.5226H29.4816C29.1752 55.522 28.9273 55.274 28.9266 54.9676L28.9259 32.0443Z" fill="#0772B6"/>
<path d="M16.9163 71.2602C12.2622 71.2602 8.48926 67.4873 8.48926 62.8338C8.48926 58.1797 12.2622 54.4067 16.9163 54.4067C21.5705 54.4067 25.3434 58.1797 25.3434 62.8338C25.3374 67.4853 21.5678 71.2549 16.9163 71.2602ZM16.9163 56.7832C13.5751 56.7832 10.8657 59.4919 10.8657 62.8338C10.8657 66.1751 13.5751 68.8837 16.9163 68.8837C20.2576 68.8837 22.9669 66.1751 22.9669 62.8338C22.9629 59.4939 20.2562 56.7872 16.9163 56.7832Z" fill="#03D4B4"/>
</svg>
