<svg width="72" height="72" viewBox="0 0 72 72" fill="none" xmlns="http://www.w3.org/2000/svg">
<g clip-path="url(#clip0)">
<path d="M52.6921 34.0844H6.24194L16.2184 22.5828C16.8997 21.7701 16.8048 20.5609 16.0043 19.8644C15.2037 19.1679 13.9922 19.2416 13.2821 20.03L0.707954 34.5166C0.243877 34.8986 -0.0166437 35.4736 0.000825674 36.0736C0.0190545 36.6737 0.312995 37.2319 0.799098 37.5859L13.3747 50.1615C14.132 50.921 15.3624 50.9218 16.122 50.1645C16.8808 49.4065 16.8823 48.1768 16.1243 47.4173L6.67411 37.9732H52.6921C53.7661 37.9732 54.6365 37.102 54.6365 36.0288C54.6365 34.9548 53.7661 34.0844 52.6921 34.0844Z" fill="#03D4B4"/>
<path d="M64.2786 3.16816H38.1848C33.9086 3.13854 30.4185 6.58076 30.3896 10.8569V17.8067C30.3896 18.8807 31.2601 19.7511 32.3341 19.7511C33.4073 19.7511 34.2785 18.8807 34.2785 17.8067V10.8767C34.2944 8.75075 36.0315 7.04027 38.1574 7.05698H64.2786C66.3696 7.03116 68.0854 8.70594 68.1113 10.7969V10.8767V61.1572C68.131 63.2589 66.4441 64.98 64.3417 65.0005H38.1848C36.0482 65.021 34.299 63.3052 34.2785 61.1686V54.3708C34.2785 53.2968 33.4073 52.4264 32.3341 52.4264C31.2601 52.4264 30.3896 53.2968 30.3896 54.3708V61.1572C30.4064 65.4441 33.8949 68.906 38.1817 68.8893H64.2786C68.5305 68.9007 71.9879 65.463 72.0001 61.2112V10.8767C72.016 6.63544 68.5913 3.18411 64.35 3.16816C64.3265 3.16816 64.3029 3.16816 64.2786 3.16816Z" fill="#0772B6"/>
</g>
<defs>
<clipPath id="clip0">
<rect width="72" height="72" fill="white"/>
</clipPath>
</defs>
</svg>
