<svg width="72" height="72" viewBox="0 0 72 72" fill="none" xmlns="http://www.w3.org/2000/svg">
<g clip-path="url(#clip0)">
<path d="M51.471 59.2666H9.81814C7.10849 59.2631 4.91195 57.0671 4.90904 54.3575V26.4754C4.90846 25.9135 5.00551 25.3562 5.19436 24.8274C3.24072 25.5259 1.93616 27.3761 1.93384 29.4506V57.3327C1.93674 60.0423 4.13328 62.2383 6.84293 62.2418H48.4958C50.5703 62.2389 52.4205 60.9343 53.1196 58.9807C52.5902 59.1701 52.0329 59.2666 51.471 59.2666Z" fill="#D0D6E0"/>
<path d="M53.2726 31.7841L49.6297 34.6675L49.5524 34.7285C49.1009 35.0853 48.446 35.0092 48.0892 34.5577C47.7324 34.1068 47.8085 33.4519 48.2594 33.0951L49.0224 32.4907L51.0353 30.8979L53.2726 31.7841Z" fill="#0772B6"/>
<path d="M71.9999 22.2729C71.9883 19.4127 69.7284 17.0686 66.8706 16.9529L66.8456 8.92279C66.8445 8.57704 66.6725 8.25453 66.3854 8.06161C66.0989 7.86869 65.7346 7.83091 65.4144 7.9605L49.3837 14.4327L41.4669 14.46C39.0995 14.4699 37.1871 16.3945 37.1918 18.7619L37.2017 22.4914L37.2063 24.3584L37.211 26.014C37.2115 27.1523 37.6671 28.243 38.4766 29.0426C38.7869 29.3506 39.1419 29.6104 39.5301 29.812L41.6784 37.5074C41.7429 37.7387 41.8278 37.9642 41.9312 38.1809L30.6161 47.7777C29.0094 49.1479 26.6461 49.1491 25.0376 47.7806L2.17615 28.4226L1.7136 28.0309C1.45094 27.8095 1.09648 27.7317 0.765251 27.8229C0.434027 27.9136 0.169048 28.1617 0.056315 28.4865V28.4877C0.0034354 28.6434 -0.0122542 28.8102 0.0115707 28.9729C0.0458554 29.2257 0.173115 29.4564 0.368944 29.6197L2.08259 31.0718L23.6918 49.3693C26.0754 51.3997 29.5806 51.3985 31.9625 49.3664L43.2625 39.783C43.9807 40.3048 44.8454 40.5855 45.7333 40.5849H45.7484C47.0628 40.5808 48.2994 39.9626 49.0926 38.9143C49.8852 37.866 50.1432 36.5074 49.7899 35.2417L49.6295 34.6676L49.0223 32.4908L48.4005 30.2658L49.4314 30.2623L51.0352 30.8981L53.2724 31.7842L53.5537 31.8958L55.6363 32.7204L65.5033 36.6294C65.8247 36.7567 66.1884 36.7166 66.4737 36.5219C66.7596 36.3272 66.9299 36.0036 66.9287 35.6584L66.9032 27.6294C69.7616 27.4946 72.0075 25.1342 71.9999 22.2729ZM47.4324 37.6591C47.0326 38.1908 46.4062 38.5034 45.7408 38.5023H45.7333C44.778 38.5028 43.9394 37.8666 43.6832 36.9461L41.8254 30.2879L46.2406 30.2728L47.7846 35.8025C47.9653 36.4423 47.8345 37.1297 47.4324 37.6591ZM41.507 28.2064H41.4994C40.2844 28.2064 39.2982 27.2232 39.2936 26.0081L39.2744 18.7561C39.2721 17.5387 40.2553 16.5485 41.4727 16.5427L48.551 16.5189L48.5836 28.1832L41.507 28.2064ZM53.4897 29.6301C53.4717 29.6231 53.4537 29.6156 53.4363 29.6098L50.6679 28.5115L50.6319 16.1766L64.7671 10.4668L64.7909 17.917C64.788 17.9431 64.7868 17.9693 64.7868 17.996C64.7868 18.0227 64.7897 18.0477 64.7909 18.0745L64.8403 34.1272L53.4897 29.6301ZM68.9707 24.5903C68.4181 25.1493 67.6807 25.4875 66.8968 25.5427L66.877 19.0414C68.1502 19.1274 69.2572 19.9485 69.7075 21.1426C70.1585 22.3374 69.8702 23.6849 68.9707 24.5903Z" fill="#03D4B4"/>
<path d="M55.6364 32.7202V57.2581C55.6381 58.8904 55.0657 60.471 54.0192 61.7238C53.9692 61.8197 53.9047 61.908 53.8274 61.9841C53.7792 62.0306 53.7269 62.0731 53.6711 62.1102C52.3567 63.4781 50.5413 64.251 48.6446 64.2498H6.99174C5.09214 64.2498 3.27447 63.4752 1.95945 62.1044C1.90541 62.0684 1.85428 62.0272 1.80721 61.9824C1.72992 61.9057 1.66426 61.8174 1.61428 61.7209C0.570056 60.4681 -0.00116042 58.8887 1.76994e-06 57.2581V29.376C1.76994e-06 29.2406 0.00465053 29.1052 0.0116237 28.9727C0.0209212 28.8089 0.0354485 28.6485 0.056368 28.4875V28.4864C0.507879 24.9992 3.47553 22.3878 6.99174 22.3843H36.7438C36.903 22.3837 37.0593 22.4203 37.2017 22.4912L37.2064 24.3583C37.0628 24.4303 36.9042 24.4675 36.7438 24.4669H6.99174C4.28093 24.4675 2.08323 26.6646 2.08265 29.376V57.2581C2.08207 58.0769 2.28719 58.8834 2.67943 59.6022L15.1201 46.8774C15.5222 46.466 16.1818 46.459 16.5926 46.8612C17.004 47.2633 17.011 47.9228 16.6089 48.3337L4.04617 61.1822C4.89457 61.8226 5.92891 62.1684 6.99174 62.1672H48.6446C49.7045 62.1684 50.7366 61.8243 51.5844 61.1881L38.9514 48.3354C38.5487 47.9251 38.5545 47.2656 38.9647 46.8623C39.375 46.4596 40.0345 46.4654 40.4372 46.8757L52.9529 59.6098C53.3474 58.8887 53.5543 58.0798 53.5537 57.2581V31.8956L55.6364 32.7202Z" fill="#0772B6"/>
</g>
<defs>
<clipPath id="clip0">
<rect width="72" height="72" fill="white"/>
</clipPath>
</defs>
</svg>
