<svg width="72" height="72" viewBox="0 0 72 72" fill="none" xmlns="http://www.w3.org/2000/svg">
<g clip-path="url(#clip0)">
<path d="M55.5984 48.2912H22.6633C19.806 48.2875 17.4908 45.9724 17.4878 43.1157V21.7189C17.4871 21.1265 17.5895 20.5389 17.7886 19.9814C15.7295 20.7178 14.3535 22.6685 14.3511 24.8556V46.2524C14.3541 49.1091 16.6693 51.4242 19.5266 51.4279H52.4618C54.6488 51.4248 56.5995 50.0495 57.3365 47.9898C56.7784 48.1895 56.1908 48.2912 55.5984 48.2912Z" fill="#D0D6E0"/>
<path d="M35.7692 2.36584C41.6364 2.36584 47.5146 4.01873 52.7679 7.14622C56.6318 9.45156 60.0392 12.4455 62.8224 15.9804L52.5621 15.6422C51.9592 15.6269 51.4563 16.1005 51.4367 16.7033C51.4164 17.3061 51.8869 17.8122 52.4898 17.8367L64.9507 18.2477C65.2791 18.2428 65.5897 18.0989 65.8047 17.852C66.0204 17.6045 66.1202 17.2767 66.0792 16.9508L65.673 4.6528C65.6632 4.25888 65.4427 3.90049 65.0953 3.71364C64.7486 3.5274 64.3277 3.54087 63.9938 3.74978C63.6593 3.9593 63.4626 4.33117 63.4792 4.72509L63.7739 13.6646C60.9692 10.3337 57.6292 7.49297 53.8909 5.25992C48.2981 1.93026 42.0315 0.170166 35.7692 0.170166C25.6938 0.170166 16.4057 4.32443 9.61589 11.8684C6.58397 15.2526 4.17264 19.1452 2.49342 23.3669C0.862587 27.4893 0 31.8359 0 35.94C0 36.5459 0.491332 37.0378 1.09784 37.0378C1.70434 37.0378 2.19568 36.5459 2.19568 35.94C2.19568 28.0854 5.57986 19.636 11.2486 13.3375C17.6156 6.26219 26.3236 2.36584 35.7692 2.36584Z" fill="#03D4B4"/>
<path d="M70.9031 34.842C70.2972 34.842 69.8052 35.3334 69.8052 35.9399C69.8052 43.7938 66.4211 52.2439 60.7524 58.5424C54.3853 65.6171 45.6761 69.514 36.2311 69.514C30.3658 69.514 24.49 67.8617 19.2373 64.7361C15.3722 62.4307 11.9623 59.4356 9.17849 55.8989L19.4389 56.237C20.0423 56.253 20.5447 55.7788 20.5643 55.1759C20.5845 54.5731 20.114 54.0671 19.5118 54.0432L7.05021 53.6321C6.74695 53.6217 6.45228 53.7381 6.23785 53.9531C6.02282 54.1676 5.90703 54.4616 5.91684 54.7655L5.91806 54.8114C5.91806 54.8231 5.91806 54.8347 5.91929 54.847L6.3273 67.2264C6.3371 67.6204 6.55765 67.9794 6.90501 68.1656C7.25237 68.3525 7.67264 68.3384 8.00714 68.1295C8.34102 67.9206 8.53768 67.5481 8.52175 67.1542L8.22646 58.2146C11.0323 61.5473 14.3736 64.3893 18.1137 66.623C23.7059 69.9508 29.9706 71.7097 36.2305 71.7097C46.3065 71.7097 55.594 67.5554 62.3838 60.0115C65.4163 56.6273 67.8271 52.7346 69.5063 48.5129C71.1377 44.3905 72.0003 40.0439 72.0003 35.9399C72.0003 35.334 71.5096 34.8427 70.9031 34.842Z" fill="#03D4B4"/>
<path d="M44.9692 38.6736C44.5367 39.0987 44.5312 39.7935 44.9563 40.226L55.9458 51.4084C56.3715 51.8372 57.0638 51.8409 57.4945 51.4176C57.9252 50.9942 57.9331 50.302 57.5116 49.8694L46.5222 38.6871C46.0971 38.2545 45.4017 38.2484 44.9692 38.6736Z" fill="#03D4B4"/>
<path d="M25.4139 38.6888L14.4845 49.8663C14.0606 50.3001 14.0685 50.9954 14.5017 51.4194C14.9354 51.8433 15.6308 51.8353 16.0541 51.4016L26.9835 40.2229C27.4007 39.7885 27.3903 39.0987 26.9596 38.6772C26.5283 38.2563 25.8385 38.2606 25.4133 38.6882L25.4139 38.6888Z" fill="#03D4B4"/>
<path d="M59.0303 23.8087C58.7552 20.8215 56.2514 18.5352 53.2519 18.5315H18.7484C15.7398 18.5352 13.2323 20.8356 12.9688 23.832C12.9468 23.938 12.9407 24.0464 12.9505 24.1542C12.9486 24.2143 12.9456 24.2743 12.9456 24.3344V47.5458C12.9492 50.7486 15.545 53.345 18.7484 53.3487H53.2519C56.4554 53.345 59.0511 50.7486 59.0548 47.5458V24.3344C59.0548 24.2688 59.0523 24.2045 59.0499 24.1401C59.0603 24.0293 59.0535 23.9172 59.0303 23.8087ZM18.7484 20.7272H53.2519C54.9593 20.729 56.4321 21.9261 56.7831 23.5967L38.1364 39.4113C36.9099 40.4576 35.1051 40.4582 33.878 39.4131L15.2147 23.6096C15.5609 21.9328 17.0361 20.729 18.7484 20.7272ZM56.8591 47.5458C56.8573 49.5368 55.2436 51.1505 53.2519 51.153H18.7484C16.7574 51.1505 15.1437 49.5368 15.1412 47.5458V26.4253L32.4591 41.0893C34.5047 42.8304 37.5121 42.8291 39.5565 41.0862L56.8591 26.4112V47.5458Z" fill="#0772B6"/>
</g>
<defs>
<clipPath id="clip0">
<rect width="72" height="72" fill="white"/>
</clipPath>
</defs>
</svg>
