<svg width="70" height="70" viewBox="0 0 70 70" fill="none" xmlns="http://www.w3.org/2000/svg">
<path d="M24.9163 8.33268H64.2998C64.3005 4.65039 61.3154 1.66471 57.6331 1.66602H18.2497C14.5674 1.66471 11.5817 4.65039 11.583 8.33268V61.666C11.5817 65.3483 14.5674 68.334 18.2497 68.3327V14.9993C18.2484 11.3171 21.234 8.33138 24.9163 8.33268Z" fill="#D0D6E0"/>
<path d="M17.1494 11.9336H5.99967C5.0791 11.9336 4.33301 12.6797 4.33301 13.6003C4.33301 14.5202 5.0791 15.2669 5.99967 15.2669H17.1494C18.07 15.2669 18.8161 14.5202 18.8161 13.6003C18.8161 12.6797 18.07 11.9336 17.1494 11.9336Z" fill="#03D4B4"/>
<path d="M17.1494 26.1992H5.99967C5.0791 26.1992 4.33301 26.9453 4.33301 27.8659C4.33301 28.7865 5.0791 29.5326 5.99967 29.5326H17.1494C18.07 29.5326 18.8161 28.7865 18.8161 27.8659C18.8161 26.9453 18.07 26.1992 17.1494 26.1992Z" fill="#03D4B4"/>
<path d="M17.1494 40.4668H5.99967C5.0791 40.4668 4.33301 41.2129 4.33301 42.1335C4.33301 43.054 5.0791 43.8001 5.99967 43.8001H17.1494C18.07 43.8001 18.8161 43.054 18.8161 42.1335C18.8161 41.2129 18.07 40.4668 17.1494 40.4668Z" fill="#03D4B4"/>
<path d="M17.1494 54.7324H5.99967C5.0791 54.7324 4.33301 55.4792 4.33301 56.3991C4.33301 57.3197 5.0791 58.0658 5.99967 58.0658H17.1494C18.07 58.0658 18.8161 57.3197 18.8161 56.3991C18.8161 55.4792 18.07 54.7324 17.1494 54.7324Z" fill="#03D4B4"/>
<path d="M57.6338 0H18.2503C13.6488 0.00195313 9.91895 3.73177 9.91699 8.33333V61.6667C9.91895 66.2682 13.6488 69.998 18.2503 70H57.6338C62.2353 69.998 65.9652 66.2682 65.9671 61.6667V8.33333C65.9593 3.73438 62.2327 0.0078125 57.6338 0ZM13.2503 61.6667V8.33333C13.2581 5.57552 15.4925 3.34115 18.2503 3.33333H27.5173V66.6667H18.2503C15.4899 66.6647 13.2523 64.4271 13.2503 61.6667ZM62.6338 61.6667C62.6253 64.4245 60.3916 66.6589 57.6338 66.6667H30.8506V3.33333H57.6338C60.3916 3.34115 62.6253 5.57552 62.6338 8.33333V61.6667Z" fill="#0772B6"/>
</svg>
