<svg width="20" height="20" viewBox="0 0 20 20" fill="none" xmlns="http://www.w3.org/2000/svg">
<path fill-rule="evenodd" clip-rule="evenodd" d="M16.2561 2.20123C16.47 2.14092 16.696 2.13869 16.911 2.19479C17.126 2.2509 17.3222 2.36329 17.4793 2.52041C17.6364 2.67753 17.7488 2.87369 17.8049 3.08869C17.861 3.3037 17.8588 3.52977 17.7985 3.74362L13.6927 18.3005C13.6236 18.5454 13.4814 18.7634 13.2851 18.9254C13.0888 19.0873 12.8478 19.1855 12.5942 19.2068C12.3406 19.2281 12.0865 19.1714 11.866 19.0445C11.6455 18.9175 11.4689 18.7262 11.36 18.4963L8.19181 11.8079L1.50347 8.63975C1.27348 8.53081 1.08223 8.35427 0.955261 8.13372C0.828296 7.91317 0.771671 7.65913 0.792954 7.40553C0.814238 7.15194 0.912415 6.91089 1.07437 6.71459C1.23631 6.51829 1.45432 6.3761 1.69925 6.30701L16.2561 2.20123ZM16.5954 3.4043L2.03857 7.51008L8.72692 10.6782L8.45937 11.2431L8.72692 10.6782C8.98782 10.8018 9.1979 11.0119 9.32149 11.2728L8.75665 11.5404L9.32149 11.2728L12.4896 17.9611L16.5954 3.4043Z" fill="#0772B6"/>
<path fill-rule="evenodd" clip-rule="evenodd" d="M12.6386 7.36128C12.8827 7.60536 12.8827 8.00109 12.6386 8.24516L9.10308 11.7807C8.859 12.0248 8.46327 12.0248 8.21919 11.7807C7.97511 11.5366 7.97511 11.1409 8.21919 10.8968L11.7547 7.36128C11.9988 7.1172 12.3945 7.1172 12.6386 7.36128Z" fill="#0772B6"/>
</svg>
