<svg width="100" height="100" viewBox="0 0 100 100" fill="none" xmlns="http://www.w3.org/2000/svg">
<path d="M44.4795 32.1494C42.3594 30.4541 41.124 27.8857 41.124 25.1709V18.9688H37.3857C36.1514 18.9688 35.1514 17.9678 35.1514 16.7344V2.41797C35.1514 1.18457 36.1514 0.183594 37.3857 0.183594H22.0576C20.8242 0.183594 19.8242 1.18359 19.8242 2.41797V16.7344C19.8242 17.9678 20.8242 18.9678 22.0576 18.9678H25.7969V25.1709C25.7969 27.8857 27.0313 30.4531 29.1514 32.1494L51.4697 49.999L59.1338 43.8691L44.4795 32.1494Z" fill="#D0D6E0"/>
<path d="M35.1514 97.5811V87.0967C35.1514 85.8633 36.1514 84.8623 37.3857 84.8623H41.374V74.0996C41.374 71.3389 42.6504 68.7324 44.833 67.04L59.208 55.8887L51.4697 50L29.5059 67.0391C27.3242 68.7314 26.0469 71.3379 26.0469 74.0986V84.8623H22.0576C20.8242 84.8623 19.8242 85.8633 19.8242 87.0967V97.5811C19.8242 98.8145 20.8242 99.8154 22.0576 99.8154H37.3857C36.1523 99.8154 35.1514 98.8154 35.1514 97.5811Z" fill="#D0D6E0"/>
<path d="M49.9991 52.5C49.4317 52.5 48.8809 52.3076 48.4375 51.9522L27.1573 34.9326C24.5352 32.8457 23.0117 29.6758 23.0196 26.3262V16.9551C23.0196 15.5742 24.1387 14.4551 25.5196 14.4551C26.9004 14.4551 28.0196 15.5742 28.0196 16.9551V26.3262C28.0157 28.1563 28.8477 29.8877 30.2793 31.0273L49.9991 46.7998L69.7188 31.0283C71.1504 29.8897 71.9825 28.1572 71.9785 26.3272V16.9551C71.9785 15.5742 73.0977 14.4551 74.4785 14.4551C75.8594 14.4551 76.9785 15.5742 76.9785 16.9551V26.3262C76.9864 29.6768 75.4629 32.8467 72.8409 34.9326L51.5606 51.9522C51.1172 52.3076 50.5664 52.5 49.9991 52.5Z" fill="#03D4B4"/>
<path d="M74.7178 85.7826C73.337 85.7826 72.2178 84.6635 72.2178 83.2826V73.0287C72.212 71.1488 71.335 69.3793 69.8428 68.2367L50.0147 53.1518L30.5899 68.2221C29.1153 69.3588 28.254 71.1166 28.2598 72.9789V83.2826C28.2598 84.6635 27.1407 85.7826 25.7598 85.7826C24.379 85.7826 23.2598 84.6635 23.2598 83.2826V72.9789C23.2491 69.5707 24.8262 66.352 27.5254 64.2709L48.4678 48.0248C49.3624 47.3305 50.6124 47.3246 51.5137 48.0102L72.8702 64.2582C75.6016 66.3481 77.2081 69.5893 77.2178 73.0287V83.2836C77.2178 84.6635 76.0977 85.7826 74.7178 85.7826Z" fill="#03D4B4"/>
<path d="M82.5 4.62988C82.5 2.07324 80.4268 0 77.8701 0H21.8799C19.3232 0 17.25 2.07324 17.25 4.62988V14.6201C17.25 17.1768 19.3232 19.25 21.8799 19.25H77.8701C80.4268 19.25 82.5 17.1768 82.5 14.6201V4.62988ZM77.75 14.25H22.25V5H77.75V14.25Z" fill="#0772B6"/>
<path d="M82.5 85.3799C82.5 82.8232 80.4268 80.75 77.8701 80.75H21.8799C19.3232 80.75 17.25 82.8232 17.25 85.3799V95.3701C17.25 97.9268 19.3232 100 21.8799 100H77.8701C80.4268 100 82.5 97.9268 82.5 95.3701V85.3799ZM77.75 95H22.25V85.75H77.75V95Z" fill="#0772B6"/>
</svg>
