<svg width="146" height="53" viewBox="0 0 146 53" fill="none" xmlns="http://www.w3.org/2000/svg">
<path d="M0 3C0 1.34315 1.34315 0 3 0H143C144.657 0 146 1.34315 146 3V42H3C1.34314 42 0 40.6569 0 39V3Z" fill="#03D4B4"/>
<path d="M22.9141 23.0156C22.9141 22.5729 22.7578 22.2344 22.4453 22C22.1328 21.7604 21.5703 21.5104 20.7578 21.25C19.9453 20.9844 19.3021 20.724 18.8281 20.4688C17.5365 19.7708 16.8906 18.8307 16.8906 17.6484C16.8906 17.0339 17.0625 16.487 17.4062 16.0078C17.7552 15.5234 18.2526 15.1458 18.8984 14.875C19.5495 14.6042 20.2786 14.4688 21.0859 14.4688C21.8984 14.4688 22.6224 14.6172 23.2578 14.9141C23.8932 15.2057 24.3854 15.6198 24.7344 16.1562C25.0885 16.6927 25.2656 17.3021 25.2656 17.9844H22.9219C22.9219 17.4635 22.7578 17.0599 22.4297 16.7734C22.1016 16.4818 21.6406 16.3359 21.0469 16.3359C20.474 16.3359 20.0286 16.4583 19.7109 16.7031C19.3932 16.9427 19.2344 17.2604 19.2344 17.6562C19.2344 18.026 19.4193 18.3359 19.7891 18.5859C20.1641 18.8359 20.7135 19.0703 21.4375 19.2891C22.7708 19.6901 23.7422 20.1875 24.3516 20.7812C24.9609 21.375 25.2656 22.1146 25.2656 23C25.2656 23.9844 24.8932 24.7578 24.1484 25.3203C23.4036 25.8776 22.401 26.1562 21.1406 26.1562C20.2656 26.1562 19.4688 25.9974 18.75 25.6797C18.0312 25.3568 17.4818 24.9167 17.1016 24.3594C16.7266 23.8021 16.5391 23.1562 16.5391 22.4219H18.8906C18.8906 23.6771 19.6406 24.3047 21.1406 24.3047C21.6979 24.3047 22.1328 24.1927 22.4453 23.9688C22.7578 23.7396 22.9141 23.4219 22.9141 23.0156ZM29.0938 26H26.8281V17.5469H29.0938V26ZM26.6953 15.3594C26.6953 15.0208 26.8073 14.7422 27.0312 14.5234C27.2604 14.3047 27.5703 14.1953 27.9609 14.1953C28.3464 14.1953 28.6536 14.3047 28.8828 14.5234C29.112 14.7422 29.2266 15.0208 29.2266 15.3594C29.2266 15.7031 29.1094 15.9844 28.875 16.2031C28.6458 16.4219 28.3411 16.5312 27.9609 16.5312C27.5807 16.5312 27.2734 16.4219 27.0391 16.2031C26.8099 15.9844 26.6953 15.7031 26.6953 15.3594ZM33.0781 17.5469L33.1484 18.4922C33.7474 17.7578 34.5573 17.3906 35.5781 17.3906C36.6667 17.3906 37.4141 17.8203 37.8203 18.6797C38.4141 17.8203 39.2604 17.3906 40.3594 17.3906C41.276 17.3906 41.9583 17.6589 42.4062 18.1953C42.8542 18.7266 43.0781 19.5286 43.0781 20.6016V26H40.8125V20.6094C40.8125 20.1302 40.7188 19.7812 40.5312 19.5625C40.3438 19.3385 40.013 19.2266 39.5391 19.2266C38.862 19.2266 38.3932 19.5495 38.1328 20.1953L38.1406 26H35.8828V20.6172C35.8828 20.1276 35.7865 19.7734 35.5938 19.5547C35.401 19.3359 35.0729 19.2266 34.6094 19.2266C33.9688 19.2266 33.5052 19.4922 33.2188 20.0234V26H30.9609V17.5469H33.0781ZM49.8828 25.1406C49.3255 25.8177 48.5547 26.1562 47.5703 26.1562C46.6641 26.1562 45.9714 25.8958 45.4922 25.375C45.0182 24.8542 44.776 24.0911 44.7656 23.0859V17.5469H47.0234V23.0078C47.0234 23.888 47.4245 24.3281 48.2266 24.3281C48.9922 24.3281 49.5182 24.0625 49.8047 23.5312V17.5469H52.0703V26H49.9453L49.8828 25.1406ZM56.1562 26H53.8906V14H56.1562V26ZM62.9219 26C62.8177 25.7969 62.7422 25.5443 62.6953 25.2422C62.1484 25.8516 61.4375 26.1562 60.5625 26.1562C59.7344 26.1562 59.0469 25.9167 58.5 25.4375C57.9583 24.9583 57.6875 24.3542 57.6875 23.625C57.6875 22.7292 58.0182 22.0417 58.6797 21.5625C59.3464 21.0833 60.3073 20.8411 61.5625 20.8359H62.6016V20.3516C62.6016 19.9609 62.5 19.6484 62.2969 19.4141C62.099 19.1797 61.7839 19.0625 61.3516 19.0625C60.9714 19.0625 60.6719 19.1536 60.4531 19.3359C60.2396 19.5182 60.1328 19.7682 60.1328 20.0859H57.875C57.875 19.5964 58.026 19.1432 58.3281 18.7266C58.6302 18.3099 59.0573 17.9844 59.6094 17.75C60.1615 17.5104 60.7812 17.3906 61.4688 17.3906C62.5104 17.3906 63.3359 17.6536 63.9453 18.1797C64.5599 18.7005 64.8672 19.4349 64.8672 20.3828V24.0469C64.8724 24.849 64.9844 25.4557 65.2031 25.8672V26H62.9219ZM61.0547 24.4297C61.388 24.4297 61.6953 24.3568 61.9766 24.2109C62.2578 24.0599 62.4661 23.8594 62.6016 23.6094V22.1562H61.7578C60.6276 22.1562 60.026 22.5469 59.9531 23.3281L59.9453 23.4609C59.9453 23.7422 60.0443 23.974 60.2422 24.1562C60.4401 24.3385 60.7109 24.4297 61.0547 24.4297ZM69.3047 15.4688V17.5469H70.75V19.2031H69.3047V23.4219C69.3047 23.7344 69.3646 23.9583 69.4844 24.0938C69.6042 24.2292 69.8333 24.2969 70.1719 24.2969C70.4219 24.2969 70.6432 24.2786 70.8359 24.2422V25.9531C70.3932 26.0885 69.9375 26.1562 69.4688 26.1562C67.8854 26.1562 67.0781 25.3568 67.0469 23.7578V19.2031H65.8125V17.5469H67.0469V15.4688H69.3047ZM74.3906 26H72.125V17.5469H74.3906V26ZM71.9922 15.3594C71.9922 15.0208 72.1042 14.7422 72.3281 14.5234C72.5573 14.3047 72.8672 14.1953 73.2578 14.1953C73.6432 14.1953 73.9505 14.3047 74.1797 14.5234C74.4089 14.7422 74.5234 15.0208 74.5234 15.3594C74.5234 15.7031 74.4062 15.9844 74.1719 16.2031C73.9427 16.4219 73.638 16.5312 73.2578 16.5312C72.8776 16.5312 72.5703 16.4219 72.3359 16.2031C72.1068 15.9844 71.9922 15.7031 71.9922 15.3594ZM75.9062 21.6953C75.9062 20.8568 76.0677 20.1094 76.3906 19.4531C76.7135 18.7969 77.1771 18.2891 77.7812 17.9297C78.3906 17.5703 79.0964 17.3906 79.8984 17.3906C81.0391 17.3906 81.9688 17.7396 82.6875 18.4375C83.4115 19.1354 83.8151 20.0833 83.8984 21.2812L83.9141 21.8594C83.9141 23.1562 83.5521 24.1979 82.8281 24.9844C82.1042 25.7656 81.1328 26.1562 79.9141 26.1562C78.6953 26.1562 77.7214 25.7656 76.9922 24.9844C76.2682 24.2031 75.9062 23.1406 75.9062 21.7969V21.6953ZM78.1641 21.8594C78.1641 22.6615 78.3151 23.276 78.6172 23.7031C78.9193 24.125 79.3516 24.3359 79.9141 24.3359C80.4609 24.3359 80.888 24.1276 81.1953 23.7109C81.5026 23.2891 81.6562 22.6172 81.6562 21.6953C81.6562 20.9089 81.5026 20.2995 81.1953 19.8672C80.888 19.4349 80.4557 19.2188 79.8984 19.2188C79.3464 19.2188 78.9193 19.4349 78.6172 19.8672C78.3151 20.2943 78.1641 20.9583 78.1641 21.8594ZM87.3828 17.5469L87.4531 18.5234C88.0573 17.7682 88.8672 17.3906 89.8828 17.3906C90.7786 17.3906 91.4453 17.6536 91.8828 18.1797C92.3203 18.7057 92.5443 19.4922 92.5547 20.5391V26H90.2969V20.5938C90.2969 20.1146 90.1927 19.7682 89.9844 19.5547C89.776 19.3359 89.4297 19.2266 88.9453 19.2266C88.3099 19.2266 87.8333 19.4974 87.5156 20.0391V26H85.2578V17.5469H87.3828ZM107.75 20.5703C107.75 21.6901 107.552 22.6719 107.156 23.5156C106.76 24.3594 106.193 25.0104 105.453 25.4688C104.719 25.9271 103.875 26.1562 102.922 26.1562C101.979 26.1562 101.138 25.9297 100.398 25.4766C99.6589 25.0234 99.0859 24.3776 98.6797 23.5391C98.2734 22.6953 98.0677 21.7266 98.0625 20.6328V20.0703C98.0625 18.9505 98.263 17.9661 98.6641 17.1172C99.0703 16.263 99.6406 15.6094 100.375 15.1562C101.115 14.6979 101.958 14.4688 102.906 14.4688C103.854 14.4688 104.695 14.6979 105.43 15.1562C106.169 15.6094 106.74 16.263 107.141 17.1172C107.547 17.9661 107.75 18.9479 107.75 20.0625V20.5703ZM105.375 20.0547C105.375 18.862 105.161 17.9557 104.734 17.3359C104.307 16.7161 103.698 16.4062 102.906 16.4062C102.12 16.4062 101.513 16.7135 101.086 17.3281C100.659 17.9375 100.443 18.8333 100.438 20.0156V20.5703C100.438 21.7318 100.651 22.6328 101.078 23.2734C101.505 23.9141 102.12 24.2344 102.922 24.2344C103.708 24.2344 104.312 23.9271 104.734 23.3125C105.156 22.6927 105.37 21.7917 105.375 20.6094V20.0547ZM111.383 17.5469L111.453 18.5234C112.057 17.7682 112.867 17.3906 113.883 17.3906C114.779 17.3906 115.445 17.6536 115.883 18.1797C116.32 18.7057 116.544 19.4922 116.555 20.5391V26H114.297V20.5938C114.297 20.1146 114.193 19.7682 113.984 19.5547C113.776 19.3359 113.43 19.2266 112.945 19.2266C112.31 19.2266 111.833 19.4974 111.516 20.0391V26H109.258V17.5469H111.383ZM120.656 26H118.391V14H120.656V26ZM125.68 22.8047L127.242 17.5469H129.664L126.266 27.3125L126.078 27.7578C125.573 28.862 124.74 29.4141 123.578 29.4141C123.25 29.4141 122.917 29.3646 122.578 29.2656V27.5547L122.922 27.5625C123.349 27.5625 123.667 27.4974 123.875 27.3672C124.089 27.237 124.255 27.0208 124.375 26.7188L124.641 26.0234L121.68 17.5469H124.109L125.68 22.8047Z" fill="white"/>
<path d="M135 53L135 42L146 42L135 53Z" fill="#008470" style="mix-blend-mode:darken"/>
</svg>
