<svg width="300" height="300" viewBox="0 0 300 300" fill="none" xmlns="http://www.w3.org/2000/svg">
<path d="M197.126 206.431H58.4341C46.6402 206.417 37.0849 196.862 37.0688 185.07V41.7075C26.0754 42.7191 17.6625 51.9366 17.6504 62.9762V204.49C17.6625 216.28 27.2198 225.838 39.0117 225.852H191.982L197.126 206.431Z" fill="#D0D6E0"/>
<path d="M236.992 63.3925V164.608C235.57 164.242 234.103 164.059 232.637 164.059C231.062 164.057 229.5 164.268 227.985 164.69V94.4881H18.2744V204.022C18.2884 215.737 27.7855 225.234 39.5029 225.248H184.885L179.277 234.254H39.5029C22.8117 234.234 9.28818 220.711 9.26807 204.022V63.3925C9.28617 46.6993 22.8117 33.1758 39.5029 33.1577H206.757C223.448 33.1758 236.971 46.7013 236.992 63.3925ZM227.985 85.4818V63.3925C227.973 51.6731 218.476 42.174 206.757 42.164H39.5029C27.7834 42.174 18.2864 51.6731 18.2744 63.3925V85.4818H227.985Z" fill="#0772B6"/>
<path d="M247.378 172.248C245.033 168.453 241.31 165.716 236.99 164.608C235.568 164.242 234.102 164.058 232.636 164.058C231.061 164.056 229.498 164.268 227.984 164.69C226.663 165.05 225.392 165.567 224.195 166.233C221.614 167.667 219.444 169.738 217.89 172.248L184.883 225.248L179.276 234.254L177.371 237.316C174.037 242.673 173.868 249.415 176.931 254.928C179.994 260.445 185.806 263.866 192.114 263.866H273.15C279.457 263.866 285.27 260.445 288.333 254.928C291.396 249.415 291.227 242.673 287.892 237.316L247.378 172.248ZM280.457 250.555C279.003 253.23 276.193 254.884 273.15 254.859H192.114C189.077 254.857 186.281 253.21 184.805 250.555C183.333 247.901 183.413 244.656 185.02 242.078L191.122 232.267L225.534 177.007C227.059 174.557 229.744 173.065 232.63 173.065C235.518 173.063 238.203 174.553 239.732 177.003V177.007L280.244 242.078C281.877 244.648 281.957 247.907 280.457 250.555Z" fill="#03D4B4"/>
<path d="M232.636 234.049C230.149 234.049 228.133 236.064 228.133 238.552V241.851C228.133 244.339 230.149 246.354 232.636 246.354C235.124 246.354 237.14 244.339 237.14 241.851V238.552C237.14 236.064 235.124 234.049 232.636 234.049Z" fill="#03D4B4"/>
<path d="M232.636 193.151C230.149 193.151 228.133 195.166 228.133 197.654V227.056C228.133 229.544 230.149 231.559 232.636 231.559C235.124 231.559 237.14 229.544 237.14 227.056V197.654C237.14 195.166 235.124 193.151 232.636 193.151Z" fill="#03D4B4"/>
<path d="M122.73 64.1888C122.75 57.24 117.136 51.5904 110.186 51.5623H110.147C103.199 51.5522 97.553 57.1776 97.543 64.1284C97.5309 71.0792 103.158 76.7228 110.111 76.7328H110.147C117.078 76.7248 122.703 71.1195 122.73 64.1888ZM112.669 66.6847C112.004 67.3544 111.093 67.7326 110.147 67.7265H110.135C108.158 67.7245 106.557 66.1196 106.563 64.1405C106.565 62.1635 108.17 60.5645 110.147 60.5686H110.161C111.111 60.5686 112.02 60.9467 112.69 61.6224C113.357 62.2962 113.729 63.2093 113.723 64.1566C113.729 65.1079 113.347 66.019 112.669 66.6847Z" fill="#03D4B4"/>
<path d="M86.424 64.0743C86.4381 57.1255 80.8267 51.4759 73.88 51.4458H73.8397C66.8889 51.4357 61.2454 57.0631 61.2354 64.0139C61.2253 70.9627 66.8507 76.6083 73.8015 76.6183H73.8397C80.7724 76.6123 86.3958 71.007 86.424 64.0743ZM76.3618 66.5763C75.6921 67.242 74.785 67.614 73.8397 67.612H73.8277C71.8486 67.606 70.2517 65.999 70.2557 64.024C70.2618 62.049 71.8647 60.45 73.8397 60.4521H73.8518C75.2999 60.4601 76.6012 61.339 77.1482 62.6785C77.6993 64.018 77.3875 65.5566 76.3618 66.5763Z" fill="#03D4B4"/>
<path d="M37.5353 76.5096C42.6177 76.5076 47.1992 73.4485 49.1521 68.7543C51.103 64.0601 50.0411 58.6539 46.4551 55.0477C44.11 52.6725 40.9121 51.335 37.5715 51.335H37.5272C30.5764 51.325 24.9329 56.9524 24.9229 63.9032C24.9128 70.852 30.5382 76.4975 37.489 76.5096H37.5353ZM33.9513 63.9132C33.9553 61.9402 35.5542 60.3433 37.5272 60.3413H37.5393C38.9874 60.3473 40.2907 61.2202 40.8417 62.5597C41.3908 63.8992 41.0831 65.4398 40.0554 66.4595C39.3856 67.1272 38.4785 67.5013 37.5353 67.5033H37.5212C35.5442 67.4932 33.9493 65.8883 33.9513 63.9132Z" fill="#03D4B4"/>
</svg>
