<svg width="100" height="100" viewBox="0 0 100 100" fill="none" xmlns="http://www.w3.org/2000/svg">
<path d="M51.1857 66.8751C51.187 66.0205 51.2349 65.1658 51.3293 64.3169H18.6829C14.9407 64.3131 11.9076 61.2807 11.9032 57.5385V12.041C8.415 12.3627 5.74446 15.2873 5.73999 18.7908V63.701C5.7451 67.4432 8.7769 70.4756 12.5191 70.4807H51.4698C51.2808 69.2872 51.1857 68.0827 51.1857 66.8751Z" fill="#D0D6E0"/>
<path d="M75.3737 18.9467V43.9077C74.9167 43.879 74.4552 43.8649 73.9893 43.8649C73.4933 43.8649 73.0038 43.8815 72.5155 43.9141V28.8151H5.96268V63.5755C5.96715 67.2953 8.98108 70.3086 12.6997 70.3125H51.4065C51.5246 71.0701 51.6816 71.8207 51.8756 72.5624C51.9293 72.7666 51.9867 72.9709 52.0454 73.1706H12.6997C7.40263 73.1655 3.11087 68.8725 3.10449 63.5755V18.9467C3.11024 13.6497 7.40263 9.35731 12.6997 9.35156H65.7785C71.0756 9.35795 75.3673 13.6497 75.3737 18.9467ZM72.5155 25.9569V18.9467C72.511 15.2281 69.4971 12.2142 65.7785 12.2098H12.6997C8.98044 12.2136 5.96651 15.2275 5.96268 18.9467V25.9569H72.5155Z" fill="#0772B6"/>
<path d="M54.5544 71.4994C54.5385 71.4355 54.5238 71.3698 54.5098 71.3047C54.5295 71.3685 54.5449 71.433 54.5544 71.4994Z" fill="#0772B6"/>
<path d="M75.3739 43.908C74.9169 43.8793 74.4554 43.8652 73.9895 43.8652C73.4936 43.8652 73.004 43.8818 72.5157 43.9144C65.7008 44.3663 59.4432 47.8366 55.4501 53.3787C51.4571 58.9203 50.1467 65.9547 51.8758 72.5628C51.9294 72.767 51.9869 72.9713 52.0456 73.171C55.3142 84.3128 66.4138 91.2355 77.8575 89.2703C89.3011 87.3057 97.4551 77.0767 96.82 65.483C96.1855 53.89 86.9637 44.6127 75.3739 43.908ZM73.9895 86.737C64.9056 86.7382 56.9597 80.6197 54.6408 71.8364L54.5546 71.5C54.5387 71.4362 54.524 71.3705 54.51 71.3054C53.1192 65.3643 54.5138 59.1137 58.2988 54.3272C62.0825 49.5408 67.8435 46.7419 73.9448 46.7234H73.9895C85.0393 46.7234 93.9963 55.681 93.9963 66.7302C93.9963 77.78 85.0393 86.737 73.9895 86.737Z" fill="#03D4B4"/>
<path d="M80.8469 59.8744C80.5795 59.6057 80.2157 59.4551 79.8366 59.4551C79.4574 59.4551 79.0936 59.6057 78.8262 59.8744L73.9893 64.7087L69.155 59.8744C68.5971 59.3159 67.6927 59.3159 67.1342 59.8744C66.5764 60.4329 66.5764 61.3367 67.1342 61.8952L71.9685 66.7295L67.1342 71.5657C66.5764 72.1242 66.5764 73.0293 67.1342 73.5865C67.6927 74.145 68.5971 74.145 69.155 73.5865L73.9893 68.7509L78.8262 73.5865C79.384 74.145 80.2891 74.145 80.8469 73.5865C81.4048 73.0293 81.4048 72.1242 80.8469 71.5657L76.0107 66.7295L80.8469 61.8952C81.4042 61.3367 81.4042 60.4329 80.8469 59.8744Z" fill="#03D4B4"/>
<path d="M35.1078 23.1814H35.12C37.3252 23.1852 39.1168 21.4 39.12 19.1941C39.1232 16.9876 37.3373 15.1966 35.1314 15.1934H35.12C32.9141 15.1902 31.1231 16.9754 31.1199 19.1813C31.1154 21.3872 32.9013 23.1782 35.1078 23.1814ZM34.3176 18.3822C34.5296 18.169 34.8193 18.0503 35.12 18.0509H35.1212C35.5814 18.0522 35.995 18.3305 36.1699 18.7556C36.3448 19.1813 36.2446 19.669 35.9178 19.9932C35.4729 20.4349 34.7542 20.4323 34.3119 19.9875C33.8702 19.5432 33.8728 18.8239 34.3176 18.3822Z" fill="#03D4B4"/>
<path d="M23.5824 23.1443H23.5952C25.796 23.143 27.5812 21.3635 27.5908 19.1634C27.5966 16.9587 25.8151 15.1658 23.6099 15.1563H23.5952C21.39 15.1531 19.5983 16.939 19.5945 19.1442C19.5913 21.3501 21.3772 23.1411 23.5824 23.1443ZM22.7948 18.3451C23.0067 18.1332 23.2946 18.0145 23.5952 18.0145H23.5997C24.2271 18.0157 24.7345 18.5264 24.7326 19.1538V19.1557C24.7294 19.7818 24.2214 20.2874 23.5952 20.2867H23.5933C23.1337 20.2854 22.7201 20.0072 22.5452 19.5821C22.3704 19.1582 22.4693 18.6693 22.7948 18.3451Z" fill="#03D4B4"/>
<path d="M12.0731 23.1098C13.686 23.1098 15.1419 22.1389 15.7623 20.6492C16.3814 19.1595 16.0444 17.4438 14.9064 16.2994C14.1615 15.5443 13.1454 15.1198 12.0852 15.1211H12.0731C9.8672 15.1173 8.07619 16.9032 8.073 19.1097C8.06981 21.3156 9.85507 23.1066 12.061 23.1098H12.0731ZM10.9382 19.1103C10.9389 18.4842 11.4469 17.978 12.0731 17.9793H12.0769C12.7043 17.9812 13.2118 18.4906 13.2098 19.118C13.2067 19.7441 12.6992 20.2496 12.0731 20.2516H12.0692C11.4425 20.2477 10.9363 19.7371 10.9382 19.1103Z" fill="#03D4B4"/>
</svg>
