<svg width="72" height="72" viewBox="0 0 72 72" fill="none" xmlns="http://www.w3.org/2000/svg">
<g clip-path="url(#clip0_8704_30084)">
<path d="M22.2366 64.2246V21.9575H14.4612V64.2246C14.4606 67.6604 17.2457 70.4461 20.6815 70.4449H28.4569C25.0211 70.4461 22.236 67.6604 22.2366 64.2246Z" fill="#D0D6E0"/>
<path d="M33.4956 3.43706C33.4944 2.93774 33.6924 2.45846 34.0454 2.10553C34.3983 1.75199 34.8776 1.55457 35.3769 1.55518H27.6015C27.1022 1.55457 26.6229 1.75199 26.27 2.10553C25.917 2.45846 25.719 2.93774 25.7202 3.43706V9.53284H33.4956V3.43706Z" fill="#D0D6E0"/>
<path d="M17.5713 14.9909C17.5707 13.5434 18.1453 12.1547 19.1695 11.1306C20.193 10.107 21.5817 9.53235 23.0298 9.53296H15.2545C13.8063 9.53235 12.4177 10.107 11.3941 11.1306C10.3699 12.1547 9.79529 13.5434 9.7959 14.9909C9.79529 16.4391 10.3699 17.8277 11.3941 18.8519C12.4177 19.8754 13.8063 20.4501 15.2545 20.4495H23.0298C21.5817 20.4501 20.193 19.8754 19.1695 18.8519C18.1453 17.8277 17.5707 16.4391 17.5713 14.9909Z" fill="#D0D6E0"/>
<path d="M56.8058 7.96187H47.9109V3.43696C47.9103 1.53867 46.3716 0.000607451 44.474 0H27.5862C25.6879 0.000607451 24.1499 1.53867 24.1492 3.43696V7.97766H15.2543C11.8313 7.97827 8.9095 10.4488 8.33971 13.8238C7.76992 17.1988 9.71984 20.4918 12.9527 21.6156C12.9217 21.7267 12.9065 21.8421 12.9059 21.9575V64.2246C12.9077 68.5181 16.3878 71.9982 20.6813 72H51.394C55.6875 71.9982 59.1682 68.5181 59.1694 64.2246V21.9575C59.1706 21.8421 59.1548 21.7267 59.1226 21.6156C62.3598 20.4881 64.3091 17.1884 63.7356 13.8092C63.1622 10.4299 60.2331 7.95883 56.8058 7.96187ZM27.2752 3.43696C27.2758 3.25655 27.4216 3.11137 27.6014 3.11015H44.4897C44.6696 3.11137 44.8153 3.25655 44.816 3.43696V7.97766H27.2752V3.43696ZM56.0441 64.2246C56.0362 66.7978 53.952 68.8826 51.3789 68.8899H20.6813C18.1081 68.8826 16.024 66.7978 16.0161 64.2246V22.0043H56.0593V64.2246H56.0441ZM56.8058 18.8942H15.2543C13.0985 18.8942 11.3509 17.1465 11.3509 14.9907C11.3509 12.8354 13.0985 11.0878 15.2543 11.0878H56.8058C58.9617 11.0878 60.7093 12.8354 60.7093 14.9907C60.7093 17.1465 58.9617 18.8942 56.8058 18.8942Z" fill="#0772B6"/>
<path d="M36.0297 39.7322C35.172 39.7346 34.477 40.4295 34.4746 41.2873V60.2592C34.4746 61.1181 35.1714 61.8142 36.0297 61.8142C36.8886 61.8142 37.5847 61.1181 37.5847 60.2592V41.2873C37.5823 40.4295 36.888 39.7346 36.0297 39.7322Z" fill="#03D4B4"/>
<path d="M45.9823 39.7322C45.1246 39.7346 44.4297 40.4295 44.4272 41.2873V60.2592C44.4272 61.1181 45.124 61.8142 45.9823 61.8142C46.8413 61.8142 47.5374 61.1181 47.5374 60.2592V41.2873C47.535 40.4295 46.8406 39.7346 45.9823 39.7322Z" fill="#03D4B4"/>
<path d="M26.0773 39.7322C25.2196 39.7346 24.5246 40.4295 24.5222 41.2873V60.2592C24.5222 61.1181 25.219 61.8142 26.0773 61.8142C26.9362 61.8142 27.6324 61.1181 27.6324 60.2592V41.2873C27.6299 40.4295 26.9356 39.7346 26.0773 39.7322Z" fill="#03D4B4"/>
</g>
<defs>
<clipPath id="clip0_8704_30084">
<rect width="72" height="72" fill="white"/>
</clipPath>
</defs>
</svg>
