<svg width="72" height="72" viewBox="0 0 72 72" fill="none" xmlns="http://www.w3.org/2000/svg">
<g clip-path="url(#clip0_8278_29199)">
<path d="M19.1671 20.0034C19.1671 11.807 25.8109 5.16315 34.0073 5.16315C34.4883 5.16315 34.9535 5.19404 35.4187 5.22494C30.4425 1.3221 23.5406 0.999844 18.2227 4.42293C12.9055 7.84601 10.3401 14.2621 11.8327 20.4074C13.3253 26.5527 18.5474 31.0777 24.8424 31.6804C21.2587 28.8655 19.1659 24.5604 19.1671 20.0034Z" fill="#D0D6E0"/>
<path d="M33.9916 41.6369C35.7428 41.635 37.4891 41.8168 39.2022 42.1796C35.3066 39.776 30.815 38.5136 26.238 38.5354C12.5765 38.5663 1.51983 49.468 1.55072 64.3082L9.45937 64.2924C10.8708 51.0653 21.3072 41.6678 33.9916 41.6369Z" fill="#D0D6E0"/>
<path d="M48.3205 68.1207C43.274 62.7725 42.6755 54.6167 46.8867 48.5889C51.0979 42.5611 58.9617 40.3174 65.7194 43.2159C61.2496 38.897 54.633 37.6637 48.9075 40.0818C43.182 42.5005 39.453 48.1037 39.4336 54.3193C39.4136 60.5349 43.1062 66.1617 48.8166 68.6168L48.3205 68.1207Z" fill="#D0D6E0"/>
<path d="M26.2378 40.0861H26.2845C32.2008 40.0552 37.8966 42.3304 42.1641 46.4283L44.3194 44.1955C39.4722 39.5409 33.0046 36.9544 26.2845 36.9846H26.2378C19.136 36.9998 12.5455 39.7602 7.66072 44.7849C2.69843 49.8556 -0.0153248 56.7872 -0.000181102 64.3081C0.00284763 64.7194 0.163977 65.1138 0.44989 65.4094C0.741255 65.7007 1.13802 65.8631 1.55053 65.8588L43.2648 65.7813V62.6799L3.14789 62.7574C3.47379 56.663 5.8459 51.0962 9.87776 46.9559C14.1737 42.5363 19.9889 40.1012 26.2378 40.0861Z" fill="#0772B6"/>
<path d="M26.2537 33.2956C35.306 33.2956 42.6447 25.9569 42.6447 16.9046C42.6447 7.85171 35.306 0.513672 26.2537 0.513672C17.2014 0.513672 9.86279 7.85171 9.86279 16.9046C9.87127 25.9533 17.2045 33.2871 26.2537 33.2956ZM26.2537 3.6151C33.5936 3.6151 39.5432 9.56476 39.5432 16.9046C39.5432 24.2445 33.5936 30.1941 26.2537 30.1941C18.9139 30.1941 12.9642 24.2445 12.9642 16.9046C12.9727 9.5684 18.9175 3.62358 26.2537 3.6151Z" fill="#0772B6"/>
<path fill-rule="evenodd" clip-rule="evenodd" d="M37.8839 54.3667C37.8839 44.9461 45.5212 37.3088 54.9418 37.3088C59.4728 37.2858 63.8251 39.0758 67.0289 42.2796C70.2333 45.4834 72.0226 49.8357 71.9996 54.3667C71.9996 63.7879 64.3624 71.4245 54.9418 71.4245C45.5212 71.4245 37.8839 63.7879 37.8839 54.3667ZM40.9853 54.3667C40.9853 62.0748 47.2336 68.3231 54.9418 68.3231C58.2589 68.3231 61.3056 67.166 63.7004 65.2333L44.0752 45.6081C42.1425 48.003 40.9853 51.0497 40.9853 54.3667ZM65.8853 63.0292C67.7717 60.6493 68.8982 57.6396 68.8982 54.3667C68.8982 46.6591 62.6499 40.4102 54.9418 40.4102C51.6689 40.4102 48.6592 41.5368 46.2793 43.4233L65.8853 63.0292Z" fill="#03D4B4"/>
</g>
<defs>
<clipPath id="clip0_8278_29199">
<rect width="72" height="72" fill="white"/>
</clipPath>
</defs>
</svg>
