<svg width="72" height="72" viewBox="0 0 72 72" fill="none" xmlns="http://www.w3.org/2000/svg">
<g clip-path="url(#clip0_8082_22847)">
<path d="M16.1699 20.9402C16.1652 14.9185 20.3008 9.68433 26.1596 8.29507C25.1764 8.0648 24.1697 7.94937 23.1596 7.94995C15.9854 7.94995 10.1699 13.766 10.1699 20.9402C10.1699 28.1144 15.9854 33.9298 23.1596 33.9298C24.1697 33.9304 25.1764 33.815 26.1596 33.5847C20.3008 32.196 16.1652 26.9613 16.1699 20.9402Z" fill="#D0D6E0"/>
<path d="M26.1598 41.7598C25.166 41.6215 24.1635 41.5512 23.1598 41.55C11.1902 41.5653 1.5 51.0903 1.5 64.0799H7.5C7.5 52.2 15.6152 43.2153 26.1598 41.7598Z" fill="#D0D6E0"/>
<path d="M47.7749 22.6652C47.7766 17.8916 51.0836 13.756 55.7401 12.7049C51.645 11.7726 47.3963 13.4414 45.0309 16.9119C42.6655 20.3824 42.6655 24.9474 45.0309 28.4179C47.3963 31.8885 51.645 33.5578 55.7401 32.625C51.0813 31.5785 47.7713 27.44 47.7749 22.6652Z" fill="#D0D6E0"/>
<path d="M55.7254 40.5151C54.9789 40.419 54.2277 40.3692 53.4754 40.3651C47.5492 40.3276 42.0467 43.4325 39.0156 48.5248L44.0705 58.0651H48.5705L43.5156 48.5248C46.1488 44.1303 50.6459 41.1807 55.7254 40.5151Z" fill="#D0D6E0"/>
<path d="M23.1596 6.44995C15.1574 6.44995 8.66992 12.9375 8.66992 20.9402C8.66992 28.9423 15.1574 35.4298 23.1596 35.4298C31.1623 35.4298 37.6498 28.9423 37.6498 20.9402C37.6393 12.9416 31.1582 6.4605 23.1596 6.44995ZM23.1596 32.4298C16.8139 32.4298 11.6699 27.2859 11.6699 20.9402C11.6699 14.5945 16.8139 9.44995 23.1596 9.44995C29.5053 9.44995 34.6498 14.5945 34.6498 20.9402C34.6439 27.2835 29.5029 32.424 23.1596 32.4298Z" fill="#0772B6"/>
<path d="M65.6406 16.4097C64.9451 16.4068 64.256 16.5445 63.6156 16.8152C62.4572 14.8277 60.7486 13.2175 58.6955 12.1798C58.6234 12.1388 58.5478 12.1036 58.4705 12.0749C56.9142 11.3378 55.2127 10.9587 53.4906 10.9652C47.0418 10.974 41.8094 16.1865 41.7754 22.6347V22.6652C41.7736 28.3288 45.826 33.1822 51.3988 34.1923C56.9723 35.2019 62.4695 32.0794 64.4553 26.7749C64.849 26.8652 65.2515 26.9103 65.6553 26.9097C68.5551 26.9056 70.9017 24.5519 70.8976 21.6527C70.8935 18.7529 68.5398 16.4056 65.6406 16.4097ZM53.4754 13.9652C54.318 13.9687 55.1559 14.09 55.9656 14.3249C55.3205 15.8097 54.5705 17.0701 53.6851 18.0902C53.6406 18.1347 53.6101 18.1798 53.5656 18.2249C52.2156 19.7701 50.5803 20.7902 48.7053 21.2548C47.4455 21.5695 46.1359 21.6357 44.8504 21.4499C45.468 17.1597 49.1406 13.9722 53.4754 13.9652ZM53.4754 31.3798C49.3703 31.3728 45.8236 28.5076 44.9553 24.4951C45.3889 24.5396 45.8248 24.5595 46.2602 24.5548C47.2703 24.556 48.2769 24.4406 49.2602 24.2097C51.2107 23.7515 53.0148 22.8128 54.5101 21.4798C54.9601 22.0646 55.4623 22.6066 56.0101 23.0999C57.7205 24.6597 59.6254 25.5152 61.6351 25.6499C60.3988 29.0917 57.1328 31.3851 53.4754 31.3798ZM62.1906 22.6798C59.3705 22.6499 57.4504 20.4597 56.5955 19.2298C57.4088 18.1189 58.0978 16.9212 58.6504 15.6597C59.9236 16.6031 60.9185 17.8728 61.5303 19.3347C61.5631 19.4829 61.6187 19.6247 61.6955 19.7548C62.0224 20.6952 62.1894 21.6843 62.1906 22.6798ZM65.6406 23.9097C65.4683 23.9132 65.2967 23.8927 65.1303 23.8499C65.173 23.4562 65.193 23.0607 65.1906 22.6652C65.1889 21.621 65.0471 20.5816 64.7705 19.5749C65.0459 19.4601 65.3418 19.4038 65.6406 19.4097C66.8828 19.4097 67.8906 20.4175 67.8906 21.6597C67.8906 22.9025 66.8828 23.9097 65.6406 23.9097Z" fill="#0772B6"/>
<path d="M53.475 38.8653C47.5951 38.8653 42.2402 41.5653 38.8049 46.1702C34.5604 42.2116 28.9641 40.0225 23.1598 40.0501C16.9049 40.0501 11.0848 42.4799 6.76523 46.8903C2.4 51.3598 0 57.4653 0 64.0799C0.00234375 64.9073 0.672656 65.5776 1.5 65.5799H44.8201C45.6475 65.5776 46.3178 64.9073 46.3201 64.0799C46.3201 62.5665 46.1895 61.0559 45.9299 59.5653H70.5C71.3273 59.563 71.9977 58.8926 72 58.0653C72 52.7848 70.0799 47.9098 66.5848 44.3403C63.1383 40.8124 58.4068 38.8366 53.475 38.8653ZM3.04512 62.5799C3.375 57.3299 5.42988 52.5598 8.90977 48.9903C12.6773 45.1887 17.8078 43.0501 23.1598 43.0501C28.5123 43.0501 33.6422 45.1887 37.4098 48.9903C40.8902 52.5598 42.9451 57.3299 43.275 62.5799H3.04512ZM45.225 56.5653C44.3309 53.5864 42.8578 50.8132 40.8902 48.4049C43.5146 44.6737 47.659 42.2977 52.2059 41.9186C56.7522 41.5389 61.2328 43.1948 64.4402 46.4403C67.05 49.1098 68.6098 52.6653 68.9402 56.5653H45.225Z" fill="#03D4B4"/>
</g>
<defs>
<clipPath id="clip0_8082_22847">
<rect width="72" height="72" fill="white"/>
</clipPath>
</defs>
</svg>
