<svg width="72" height="72" viewBox="0 0 72 72" fill="none" xmlns="http://www.w3.org/2000/svg">
<g clip-path="url(#clip0)">
<path d="M19.167 20.0046C19.167 11.8082 25.8108 5.16437 34.0072 5.16437C34.4882 5.16437 34.9534 5.19526 35.4186 5.22616C30.4424 1.32332 23.5405 1.00106 18.2226 4.42415C12.9054 7.84723 10.34 14.2633 11.8326 20.4086C13.3252 26.5539 18.5473 31.0789 24.8423 31.6816C21.2586 28.8667 19.1658 24.5616 19.167 20.0046Z" fill="#D0D6E0"/>
<path d="M33.9914 41.6371C35.7427 41.6353 37.489 41.817 39.2021 42.1799C35.3065 39.7763 30.8149 38.5139 26.2379 38.5357C12.5764 38.5666 1.51971 49.4682 1.5506 64.3085L9.45925 64.2927C10.8706 51.0656 21.3071 41.668 33.9914 41.6371Z" fill="#D0D6E0"/>
<path d="M44.0869 59.0204C44.0869 53.3475 47.1853 48.1266 52.1651 45.4092C57.145 42.6912 63.2122 42.9099 67.9836 45.9792C64.7986 41.0315 59.0888 38.3123 53.2409 38.958C47.3924 39.6037 42.4138 43.5035 40.3852 49.0261C38.3565 54.5493 39.628 60.7443 43.6683 65.0221C44.5279 65.9332 45.4965 66.7358 46.5523 67.41C44.9367 64.9107 44.0802 61.9964 44.0869 59.0204Z" fill="#D0D6E0"/>
<path d="M26.2537 33.2943C35.306 33.2943 42.6447 25.9557 42.6447 16.9034C42.6447 7.85048 35.306 0.512451 26.2537 0.512451C17.2014 0.512451 9.86279 7.85048 9.86279 16.9034C9.87127 25.9521 17.2045 33.2858 26.2537 33.2943ZM26.2537 3.61388C33.5936 3.61388 39.5432 9.56354 39.5432 16.9034C39.5432 24.2432 33.5936 30.1929 26.2537 30.1929C18.9139 30.1929 12.9642 24.2432 12.9642 16.9034C12.9727 9.56717 18.9175 3.62236 26.2537 3.61388Z" fill="#0772B6"/>
<path d="M26.2376 40.0863H26.2842C32.2005 40.0554 37.8964 42.3306 42.1639 46.4285L44.3191 44.1957C39.4719 39.5411 33.0044 36.9546 26.2842 36.9849H26.2376C19.1358 37 12.5452 39.7604 7.66047 44.7851C2.69818 49.8558 -0.0155689 56.7874 -0.000425242 64.3084C0.00260349 64.7197 0.163733 65.114 0.449646 65.4096C0.74101 65.701 1.13778 65.8633 1.55029 65.8591L42.9544 65.7816V62.6801L3.14765 62.7577C3.47354 56.6632 5.83051 51.0964 9.87751 46.9561C14.1735 42.5366 19.9887 40.1015 26.2376 40.0863Z" fill="#0772B6"/>
<path d="M60.1678 49.6383L52.6777 55.7327L49.9331 52.5228C49.3764 51.8723 48.3975 51.7953 47.7469 52.352C47.0958 52.9087 47.0194 53.8882 47.5761 54.5388L51.2978 58.8965C51.5934 59.2394 52.0235 59.4375 52.4766 59.4393C52.8316 59.4423 53.1769 59.3218 53.4531 59.0976L62.122 52.0419C62.4412 51.7814 62.6435 51.404 62.6841 50.9939C62.7247 50.5838 62.6005 50.1744 62.3388 49.8557C62.0808 49.5371 61.7064 49.3348 61.2987 49.2942C60.8911 49.2536 60.484 49.3772 60.1678 49.6383Z" fill="#0772B6"/>
<path d="M54.9419 37.3103C45.5213 37.3103 37.884 44.9475 37.884 54.3681C37.884 63.7893 45.5213 71.426 54.9419 71.426C64.3625 71.426 71.9998 63.7893 71.9998 54.3681C72.0228 49.8371 70.2334 45.4848 67.029 42.281C63.8252 39.0772 59.4729 37.2873 54.9419 37.3103ZM54.9419 68.3246C47.2338 68.3246 40.9855 62.0763 40.9855 54.3681C40.9855 46.6606 47.2338 40.4117 54.9419 40.4117C62.65 40.4117 68.8983 46.6606 68.8983 54.3681C68.8983 62.0763 62.65 68.3246 54.9419 68.3246Z" fill="#03D4B4"/>
</g>
<defs>
<clipPath id="clip0">
<rect width="72" height="72" fill="white"/>
</clipPath>
</defs>
</svg>
