<svg width="40" height="40" viewBox="0 0 40 40" fill="none" xmlns="http://www.w3.org/2000/svg">
<g clip-path="url(#clip0)">
<path d="M19.6723 15.3079C16.0823 15.3095 12.8813 13.0485 11.6822 9.66493C10.483 6.28133 11.5462 2.50938 14.3357 0.25C10.9617 1.08585 8.44001 3.89722 7.97419 7.3419C7.50836 10.7869 9.19325 14.1666 12.2242 15.8686C15.2551 17.5705 19.0181 17.249 21.7166 15.0581C21.0479 15.2243 20.3612 15.3082 19.6723 15.3079Z" fill="#D0D6E0"/>
<path d="M24.61 33.1178L24.508 32.624H6.50406C6.1858 32.624 5.92797 32.3658 5.92797 32.0479C5.92797 28.1126 7.35599 24.4856 9.94907 21.8344C10.5634 21.2059 11.2379 20.6388 11.9622 20.1411C9.95453 20.8191 8.13655 21.9636 6.65709 23.4807C4.06401 26.1316 2.63599 29.7586 2.63599 33.6942C2.63599 34.0124 2.89382 34.2703 3.21208 34.2703H24.61C24.9279 34.2703 25.186 34.0124 25.186 33.6942C25.186 33.3759 24.9279 33.1181 24.61 33.1181V33.1178Z" fill="#D0D6E0"/>
<path d="M7.90332 8.47685C7.90332 13.1586 11.6984 16.9537 16.3802 16.9537C21.0616 16.9537 24.857 13.1586 24.857 8.47685C24.857 3.7951 21.0616 0 16.3802 0C11.7007 0.0054652 7.90846 3.79735 7.90332 8.47685ZM23.7048 8.47685C23.7048 12.5221 20.4254 15.8015 16.3802 15.8015C12.335 15.8015 9.05551 12.5221 9.05551 8.47685C9.05551 4.43163 12.335 1.15219 16.3802 1.15219C20.4235 1.15669 23.7003 4.43356 23.7048 8.47685Z" fill="#0772B6"/>
<path d="M24.61 33.1177H3.79911C3.93027 29.7093 5.22585 26.5913 7.48073 24.2863C9.82176 21.8931 12.9823 20.5751 16.38 20.5751C18.4552 20.5712 20.4992 21.0817 22.3287 22.0616C22.51 22.1606 22.7302 22.1548 22.9064 22.0468C23.0823 21.9388 23.1871 21.7449 23.181 21.5385C23.1745 21.3322 23.0585 21.1451 22.8762 21.0476C20.8785 19.9774 18.6465 19.419 16.38 19.4229C12.6698 19.4229 9.21673 20.8641 6.65709 23.4806C4.06401 26.1316 2.63599 29.7585 2.63599 33.6941C2.63599 34.0124 2.89382 34.2702 3.21208 34.2702H24.61C24.9279 34.2702 25.186 34.0124 25.186 33.6941C25.186 33.3758 24.9279 33.118 24.61 33.118V33.1177Z" fill="#0772B6"/>
<path d="M34.0581 22.0542C33.9823 21.815 33.7601 21.6526 33.5094 21.6526H30.898L30.0943 19.2454C30.0158 19.0101 29.7956 18.8516 29.5478 18.8516C29.2999 18.8516 29.0797 19.0101 29.0012 19.2454L28.1975 21.6526H25.5861C25.3354 21.6526 25.1132 21.815 25.037 22.0542C24.9612 22.2933 25.0486 22.5541 25.2537 22.6991L27.3524 24.1833L26.5525 26.5781C26.4737 26.8144 26.5557 27.0744 26.7557 27.223C26.9556 27.3715 27.2283 27.3747 27.4318 27.231L29.5474 25.7351L31.6631 27.231C31.8666 27.3747 32.1392 27.3715 32.3392 27.223C32.5391 27.0744 32.6211 26.8144 32.5424 26.5781L31.7425 24.1833L33.8411 22.6991C34.0463 22.5544 34.134 22.2933 34.0581 22.0542ZM30.7282 23.4896C30.5209 23.6362 30.4341 23.9014 30.5145 24.1425L30.8928 25.2754L29.8808 24.5595C29.6815 24.4187 29.415 24.4187 29.2157 24.5595L28.2033 25.2754L28.5817 24.1425C28.6624 23.9017 28.5753 23.6365 28.3679 23.4896L27.3996 22.8051H28.6132C28.8611 22.8051 29.0813 22.6467 29.1597 22.4113L29.5484 21.2469L29.9367 22.4117C30.0155 22.6467 30.2354 22.8051 30.4833 22.8051H31.6972L30.7282 23.4896Z" fill="#0772B6"/>
<path d="M37.3055 23.3358C37.3055 19.1646 33.8255 15.771 29.5481 15.771C25.2705 15.771 21.7908 19.1646 21.7908 23.3358C21.7943 25.3746 22.6334 27.3231 24.1119 28.7267V39.424C24.1122 39.6529 24.2475 39.8603 24.4575 39.9519C24.6674 40.0435 24.9117 40.0021 25.0795 39.8465L29.5481 35.7074L34.0171 39.8465C34.1849 40.0021 34.4292 40.0435 34.6391 39.9519C34.8487 39.8603 34.9844 39.6529 34.9844 39.424V28.7267C36.4632 27.3228 37.302 25.3746 37.3055 23.3358ZM22.943 23.3358C22.943 19.7998 25.9057 16.9232 29.5481 16.9232C33.1905 16.9232 36.1533 19.7998 36.1533 23.3358C36.1488 25.0869 35.4165 26.7573 34.1312 27.9468C34.0528 27.9902 33.9852 28.051 33.9344 28.1246C31.4108 30.2895 27.6855 30.2895 25.1622 28.1246C25.111 28.051 25.0435 27.9899 24.9648 27.9468C23.6798 26.7573 22.9475 25.0869 22.943 23.3358ZM33.8319 38.105L29.9394 34.4996C29.7182 34.2951 29.3771 34.2951 29.1563 34.4996L25.2637 38.105V29.6391C27.8723 31.3208 31.2231 31.3208 33.8313 29.6391L33.8319 38.105Z" fill="#03D4B4"/>
</g>
<defs>
<clipPath id="clip0">
<rect width="40" height="40" fill="white"/>
</clipPath>
</defs>
</svg>
