<svg width="72" height="72" viewBox="0 0 72 72" fill="none" xmlns="http://www.w3.org/2000/svg">
<path d="M10.6202 19.9689C10.6202 17.3097 12.776 15.1539 15.4359 15.1539H17.2978L13.4974 9.75391H10.0359C7.376 9.75391 5.22021 11.9097 5.22021 14.5689V65.3845C5.22021 68.0444 7.376 70.2002 10.0359 70.2002H10.6202V19.9689Z" fill="#D0D6E0"/>
<path d="M18.5738 12.0165C18.5738 9.35656 20.7296 7.20078 23.3888 7.20078H50.8838L51.2241 7.23453L45.8241 1.83453L45.4838 1.80078H17.9888C15.3296 1.80078 13.1738 3.95656 13.1738 6.61578V57.432C13.1738 60.0913 15.3296 62.247 17.9888 62.247H18.5738V12.0165Z" fill="#D0D6E0"/>
<path d="M46.1481 71.9994H10.0356C6.38359 71.9952 3.42414 69.0357 3.41992 65.3844V14.5681C3.42414 10.9161 6.38359 7.95734 10.0356 7.95312H13.4971C14.4913 7.95312 15.2971 8.75891 15.2971 9.75312C15.2971 10.7466 14.4913 11.5531 13.4971 11.5531H10.0356C8.37063 11.5545 7.02203 12.9038 7.01992 14.5681V65.3844C7.02203 67.0487 8.37063 68.3973 10.0356 68.3994H46.1481C47.8124 68.3973 49.161 67.0487 49.1631 65.3844V62.993C49.1631 61.9988 49.9689 61.193 50.9631 61.193C51.9573 61.193 52.7631 61.9988 52.7631 62.993V65.3844C52.7589 69.0357 49.7994 71.9952 46.1481 71.9994Z" fill="#03D4B4"/>
<path d="M56.6005 26.6191C55.9529 25.8654 54.8166 25.7789 54.0622 26.4271C53.3084 27.0747 53.2226 28.2117 53.8702 28.9654L53.892 28.99L60.8839 36.9761C61.3036 37.4704 61.9561 37.7004 62.5932 37.5787C63.2295 37.4571 63.7519 37.0021 63.9601 36.3883C64.1682 35.7745 64.0297 35.096 63.5986 34.6122L63.5916 34.6052L56.6005 26.6191Z" fill="#0772B6"/>
<path d="M58.8462 36.938C57.852 36.938 57.0462 37.7438 57.0462 38.738V57.4313C57.0462 59.0941 55.7644 60.48 54.1015 60.48H17.989C16.3085 60.4659 14.948 59.1117 14.9262 57.4313V6.615C14.9508 4.94156 16.3155 3.59859 17.989 3.6H43.9062V14.9266C43.9062 15.9209 44.7963 16.74 45.7906 16.74H57.0462V24.7683C57.0462 25.7618 57.852 26.5683 58.8462 26.5683C59.8404 26.5683 60.6462 25.7618 60.6462 24.7683V14.8929C60.6595 14.419 60.4816 13.9598 60.1533 13.6181L47.078 0.559687C47.0723 0.554063 47.0752 0.549141 47.0695 0.543516C46.7327 0.196172 46.2701 0 45.7856 0C45.735 0 45.6865 0.00351562 45.6366 0.00773438C45.5852 0.00351562 45.5353 0 45.484 0H17.989C14.3278 0 11.3529 2.95453 11.3262 6.615V57.4313C11.3501 61.0988 14.3215 64.0638 17.989 64.08H54.1015C57.7493 64.08 60.6462 61.0791 60.6462 57.4313V38.738C60.6462 37.7438 59.8404 36.938 58.8462 36.938ZM47.5062 6.13828L54.5986 13.14H47.5062V6.13828Z" fill="#0772B6"/>
<path d="M22.4157 22.8598H35.1542C36.1478 22.8598 36.9542 22.054 36.9542 21.0598C36.9542 20.0655 36.1478 19.2598 35.1542 19.2598H22.4157C21.4222 19.2598 20.6157 20.0655 20.6157 21.0598C20.6157 22.054 21.4222 22.8598 22.4157 22.8598Z" fill="#0772B6"/>
<path d="M22.4157 33.1195H42.5321C43.5264 33.1195 44.3321 32.3137 44.3321 31.3195C44.3321 30.3253 43.5264 29.5195 42.5321 29.5195H22.4157C21.4222 29.5195 20.6157 30.3253 20.6157 31.3195C20.6157 32.3137 21.4222 33.1195 22.4157 33.1195Z" fill="#0772B6"/>
<path d="M36.9568 52.6423C36.414 52.6423 35.9 52.3969 35.5583 51.9757C35.2166 51.5538 35.0837 51.0012 35.1955 50.4703L36.9885 41.9822C37.0686 41.6025 37.2697 41.2587 37.5615 41.0027L56.8356 24.0567C59.6769 21.5592 64.0061 21.8377 66.5036 24.679L66.5127 24.6895L66.8558 25.0812C69.3343 27.9232 69.0559 32.2327 66.2321 34.7316L56.0699 43.6908L46.9271 51.6952C46.6255 51.9595 46.2444 52.1156 45.8443 52.1381L37.0602 52.6395C37.025 52.6409 36.9906 52.6423 36.9568 52.6423ZM40.3874 43.3111L39.2047 48.9108L45.021 48.5789L53.8923 40.8122L63.8514 32.0316C65.1915 30.8461 65.3237 28.8007 64.1474 27.4528L63.8043 27.0605C62.6216 25.7105 60.5685 25.5741 59.2178 26.756L59.2128 26.7609L40.3874 43.3111Z" fill="#03D4B4"/>
</svg>
