<svg width="40" height="40" viewBox="0 0 40 40" fill="none" xmlns="http://www.w3.org/2000/svg">
<path d="M18.01 7.1875L3.59751 30.3352C2.62564 31.8961 3.74829 33.918 5.58735 33.918H7.9311C6.09204 33.918 4.96939 31.8961 5.94126 30.3352L20.3538 7.1875C20.5564 6.85938 20.8375 6.5868 21.1717 6.39429C20.6447 6.09093 20.0204 6.00409 19.4306 6.15206C18.8408 6.30004 18.3314 6.67127 18.01 7.1875Z" fill="#D4E1F4"/>
<path d="M24.3773 5.70044C23.9143 4.95679 23.2694 4.34336 22.5036 3.91804C21.7378 3.49272 20.8762 3.26953 20.0002 3.26953C19.1241 3.26953 18.2626 3.49272 17.4967 3.91804C16.7309 4.34336 16.086 4.95679 15.623 5.70044L1.21028 28.8484C0.724175 29.6291 0.455724 30.5257 0.43276 31.4451C0.409796 32.3645 0.633155 33.2733 1.07968 34.0773C1.52621 34.8813 2.17966 35.5512 2.97228 36.0177C3.76491 36.4841 4.66786 36.7301 5.58755 36.73H34.4128C35.3325 36.7301 36.2354 36.4841 37.028 36.0176C37.8206 35.5512 38.4741 34.8813 38.9206 34.0772C39.3671 33.2732 39.5905 32.3644 39.5675 31.445C39.5445 30.5256 39.2761 29.6291 38.79 28.8484L24.3773 5.70044ZM38.1009 33.6223C37.7354 34.28 37.2008 34.828 36.5523 35.2096C35.9039 35.5912 35.1652 35.7926 34.4128 35.7928H5.58755C4.83509 35.7928 4.09632 35.5915 3.44782 35.2099C2.79932 34.8283 2.2647 34.2801 1.89937 33.6223C1.53403 32.9645 1.35129 32.2209 1.37008 31.4687C1.38887 30.7165 1.6085 29.983 2.00622 29.3442L16.4189 6.19599C16.7977 5.58755 17.3253 5.08566 17.9519 4.73768C18.5785 4.38969 19.2834 4.20708 20.0002 4.20708C20.7169 4.20708 21.4218 4.38969 22.0484 4.73768C22.675 5.08566 23.2026 5.58755 23.5815 6.19599L37.994 29.344C38.3916 29.9828 38.6111 30.7163 38.6299 31.4685C38.6487 32.2207 38.466 32.9642 38.1009 33.6221V33.6223Z" fill="#F44437"/>
<path d="M14.4024 17.6831C14.4822 17.6831 14.5606 17.6629 14.6303 17.6242C14.7 17.5855 14.7587 17.5297 14.8009 17.462L15.4337 16.4451C15.4994 16.3395 15.5205 16.2122 15.4923 16.0911C15.4642 15.97 15.389 15.8651 15.2835 15.7993C15.1779 15.7336 15.0506 15.7125 14.9295 15.7407C14.8084 15.7689 14.7035 15.844 14.6378 15.9495L14.0049 16.9665C13.9608 17.0374 13.9363 17.1189 13.9342 17.2025C13.9321 17.286 13.9524 17.3686 13.9929 17.4417C14.0335 17.5148 14.0928 17.5757 14.1648 17.6181C14.2368 17.6606 14.3189 17.683 14.4024 17.6831Z" fill="#F44437"/>
<path d="M13.6642 18.4004C13.5587 18.3347 13.4314 18.3136 13.3103 18.3418C13.1892 18.3699 13.0843 18.445 13.0186 18.5506L8.94827 25.0884C8.88256 25.1939 8.86146 25.3212 8.88963 25.4423C8.9178 25.5634 8.99292 25.6684 9.09847 25.7341C9.20401 25.7998 9.33134 25.8209 9.45244 25.7927C9.57354 25.7646 9.6785 25.6895 9.74421 25.5839L13.8145 19.0461C13.8471 18.9938 13.869 18.9357 13.879 18.8749C13.8891 18.8142 13.8871 18.7521 13.8731 18.6921C13.8592 18.6322 13.8335 18.5755 13.7977 18.5255C13.7618 18.4754 13.7165 18.4329 13.6642 18.4004Z" fill="#F44437"/>
<path d="M22.3877 6.9393C22.1351 6.53365 21.7834 6.19904 21.3657 5.96703C20.9479 5.73503 20.478 5.61328 20.0001 5.61328C19.5223 5.61328 19.0523 5.73503 18.6346 5.96703C18.2168 6.19904 17.8651 6.53365 17.6125 6.9393L3.19987 30.0873C2.93473 30.5132 2.7883 31.0022 2.77578 31.5037C2.76325 32.0052 2.88509 32.5009 3.12864 32.9394C3.3722 33.378 3.72862 33.7434 4.16096 33.9978C4.59329 34.2523 5.08581 34.3864 5.58745 34.3864H9.53503C9.65935 34.3864 9.77858 34.337 9.86649 34.2491C9.9544 34.1612 10.0038 34.042 10.0038 33.9177C10.0038 33.7933 9.9544 33.6741 9.86649 33.5862C9.77858 33.4983 9.65935 33.4489 9.53503 33.4489H5.6262C5.29559 33.4521 4.9698 33.3695 4.68067 33.2091C4.39155 33.0487 4.14898 32.816 3.97667 32.5338C3.79815 32.239 3.70537 31.9003 3.70875 31.5556C3.71213 31.211 3.81154 30.8741 3.99581 30.5829L18.4085 7.43485C18.5768 7.16445 18.8113 6.94141 19.0898 6.78676C19.3683 6.63211 19.6816 6.55096 20.0001 6.55096C20.3186 6.55096 20.6319 6.63211 20.9104 6.78676C21.1889 6.94141 21.4234 7.16445 21.5917 7.43485L36.0044 30.5829C36.1887 30.8741 36.2881 31.211 36.2915 31.5556C36.2948 31.9003 36.2021 32.239 36.0235 32.5338C35.8512 32.816 35.6087 33.0487 35.3195 33.2091C35.0304 33.3695 34.7046 33.4521 34.374 33.4489H12.66C12.5357 33.4489 12.4165 33.4983 12.3286 33.5862C12.2407 33.6741 12.1913 33.7933 12.1913 33.9177C12.1913 34.042 12.2407 34.1612 12.3286 34.2491C12.4165 34.337 12.5357 34.3864 12.66 34.3864H34.4128C34.9144 34.3864 35.4069 34.2523 35.8393 33.9978C36.2716 33.7434 36.628 33.378 36.8716 32.9394C37.1151 32.5009 37.237 32.0052 37.2244 31.5037C37.2119 31.0022 37.0655 30.5132 36.8003 30.0873L22.3877 6.9393Z" fill="#F44437"/>
<path d="M19.5336 26.6314C19.5459 26.7465 19.6003 26.8529 19.6864 26.9302C19.7724 27.0076 19.884 27.0503 19.9997 27.0503C20.1154 27.0503 20.227 27.0076 20.3131 26.9302C20.3991 26.8529 20.4535 26.7465 20.4658 26.6314L21.5346 16.6577C21.5577 16.4424 21.5352 16.2245 21.4687 16.0184C21.4021 15.8122 21.2928 15.6224 21.1481 15.4613C21.0033 15.3001 20.8262 15.1713 20.6284 15.083C20.4305 14.9948 20.2163 14.9492 19.9997 14.9492C19.7831 14.9492 19.5689 14.9948 19.3711 15.083C19.1732 15.1713 18.9961 15.3001 18.8514 15.4613C18.7066 15.6224 18.5974 15.8122 18.5308 16.0184C18.4642 16.2245 18.4417 16.4424 18.4649 16.6577L19.5336 26.6314ZM19.5493 16.0881C19.6349 15.9928 19.7486 15.9271 19.8739 15.9004C19.9993 15.8737 20.1299 15.8875 20.2469 15.9397C20.364 15.9918 20.4615 16.0798 20.5254 16.1909C20.5894 16.3019 20.6165 16.4304 20.6028 16.5578L19.9997 22.1823L19.397 16.5578C19.3874 16.4732 19.3961 16.3876 19.4223 16.3066C19.4484 16.2256 19.4916 16.1511 19.5489 16.0881H19.5493Z" fill="#F0888E" style="mix-blend-mode:darken"/>
<path d="M21.332 29.2122C21.332 28.9617 21.2577 28.7169 21.1186 28.5087C20.9795 28.3004 20.7817 28.1381 20.5503 28.0422C20.3189 27.9464 20.0643 27.9213 19.8186 27.9701C19.573 28.019 19.3474 28.1396 19.1702 28.3167C18.9931 28.4938 18.8725 28.7194 18.8237 28.9651C18.7748 29.2107 18.7999 29.4653 18.8957 29.6967C18.9915 29.9281 19.1539 30.1259 19.3621 30.265C19.5704 30.4042 19.8152 30.4785 20.0656 30.4785C20.4014 30.4781 20.7232 30.3446 20.9606 30.1072C21.198 29.8698 21.3316 29.5479 21.332 29.2122ZM20.0656 29.541C20.0006 29.5409 19.9371 29.5216 19.883 29.4855C19.829 29.4494 19.7868 29.398 19.762 29.338C19.7371 29.2779 19.7306 29.2118 19.7433 29.148C19.756 29.0843 19.7873 29.0257 19.8333 28.9797C19.8793 28.9338 19.9379 28.9024 20.0016 28.8898C20.0654 28.8771 20.1315 28.8836 20.1916 28.9085C20.2516 28.9334 20.303 28.9755 20.3391 29.0296C20.3752 29.0836 20.3945 29.1472 20.3945 29.2122C20.3944 29.2994 20.3597 29.383 20.298 29.4446C20.2364 29.5062 20.1528 29.5409 20.0656 29.541Z" fill="#F0888E" style="mix-blend-mode:darken"/>
</svg>
