<svg width="14" height="12" viewBox="0 0 14 12" fill="none" xmlns="http://www.w3.org/2000/svg">
<path fill-rule="evenodd" clip-rule="evenodd" d="M0.25 6C0.25 5.68934 0.50184 5.4375 0.8125 5.4375H13.1875C13.4982 5.4375 13.75 5.68934 13.75 6C13.75 6.31066 13.4982 6.5625 13.1875 6.5625H0.8125C0.50184 6.5625 0.25 6.31066 0.25 6Z" fill="#0772B6"/>
<path fill-rule="evenodd" clip-rule="evenodd" d="M6.27275 0.539752C6.49242 0.759422 6.49242 1.11558 6.27275 1.33525L1.608 6L6.27275 10.6648C6.49242 10.8844 6.49242 11.2406 6.27275 11.4602C6.05308 11.6799 5.69692 11.6799 5.47725 11.4602L0.414752 6.39775C0.195083 6.17808 0.195083 5.82192 0.414752 5.60225L5.47725 0.539752C5.69692 0.320083 6.05308 0.320083 6.27275 0.539752Z" fill="#0772B6"/>
</svg>
