<svg width="14" height="11" viewBox="0 0 14 11" fill="none" xmlns="http://www.w3.org/2000/svg">
<path fill-rule="evenodd" clip-rule="evenodd" d="M4.35355 0.146447C4.54882 0.341709 4.54882 0.658291 4.35355 0.853553L1.70711 3.5L4.35355 6.14645C4.54882 6.34171 4.54882 6.65829 4.35355 6.85355C4.15829 7.04882 3.84171 7.04882 3.64645 6.85355L0.646447 3.85355C0.451184 3.65829 0.451184 3.34171 0.646447 3.14645L3.64645 0.146447C3.84171 -0.0488155 4.15829 -0.0488155 4.35355 0.146447Z" fill="#909090"/>
<path fill-rule="evenodd" clip-rule="evenodd" d="M0.5 3.5C0.5 3.22386 0.723858 3 1 3H9.50001C10.0253 3 10.5454 3.10346 11.0307 3.30448C11.516 3.5055 11.957 3.80014 12.3284 4.17157C12.6999 4.543 12.9945 4.98396 13.1955 5.46926C13.3965 5.95456 13.5 6.47471 13.5 6.99999C13.5 8.06087 13.0786 9.07828 12.3284 9.82843C11.5783 10.5786 10.5609 11 9.5 11H4C3.72386 11 3.5 10.7761 3.5 10.5C3.5 10.2239 3.72386 10 4 10H9.5C10.2956 10 11.0587 9.68393 11.6213 9.12132C12.1839 8.55871 12.5 7.79565 12.5 6.99999C12.5 6.60603 12.4224 6.21592 12.2716 5.85195C12.1209 5.48797 11.8999 5.15725 11.6213 4.87868C11.3427 4.6001 11.012 4.37912 10.6481 4.22836C10.2841 4.0776 9.89397 4 9.50001 4H1C0.723858 4 0.5 3.77614 0.5 3.5Z" fill="#909090"/>
</svg>
