<svg width="12" height="10" viewBox="0 0 12 10" fill="none" xmlns="http://www.w3.org/2000/svg">
<path fill-rule="evenodd" clip-rule="evenodd" d="M0 5C0 4.72386 0.223858 4.5 0.5 4.5H11.5C11.7761 4.5 12 4.72386 12 5C12 5.27614 11.7761 5.5 11.5 5.5H0.5C0.223858 5.5 0 5.27614 0 5Z" fill="#0772B6"/>
<path fill-rule="evenodd" clip-rule="evenodd" d="M6.64645 0.146447C6.84171 -0.0488155 7.15829 -0.0488155 7.35355 0.146447L11.8536 4.64645C12.0488 4.84171 12.0488 5.15829 11.8536 5.35355L7.35355 9.85355C7.15829 10.0488 6.84171 10.0488 6.64645 9.85355C6.45118 9.65829 6.45118 9.34171 6.64645 9.14645L10.7929 5L6.64645 0.853553C6.45118 0.658291 6.45118 0.341709 6.64645 0.146447Z" fill="#0772B6"/>
</svg>
