<svg width="24" height="24" viewBox="0 0 24 24" fill="none" xmlns="http://www.w3.org/2000/svg">
<path fill-rule="evenodd" clip-rule="evenodd" d="M8.25 21C8.25 20.5858 8.58579 20.25 9 20.25H15C15.4142 20.25 15.75 20.5858 15.75 21C15.75 21.4142 15.4142 21.75 15 21.75H9C8.58579 21.75 8.25 21.4142 8.25 21Z" fill="#909090"/>
<path fill-rule="evenodd" clip-rule="evenodd" d="M12.0463 3.75011C11.2559 3.74527 10.4725 3.89687 9.74095 4.19618C9.00931 4.49555 8.34415 4.93677 7.78383 5.49441C7.2235 6.05204 6.77908 6.71507 6.4762 7.44526C6.17331 8.17545 6.01794 8.95837 6.01904 9.7489L6.01904 9.74995L6.01904 10.4999C6.01904 13.9633 5.29336 16.0474 4.59557 17.2478L4.59431 17.2499H19.4057L19.4044 17.2478C18.707 16.0475 17.9817 13.9634 17.9817 10.4999V9.83468C17.9817 6.51063 15.3314 3.77479 12.0463 3.75011ZM9.1729 2.8079C10.0877 2.43357 11.0676 2.24401 12.0561 2.25014L12.057 2.25015C16.1947 2.28091 19.4817 5.71503 19.4817 9.83468V10.4999C19.4817 13.7519 20.1614 15.5647 20.7014 16.4942L20.0529 16.871L20.7001 16.492C20.8334 16.7195 20.9043 16.9783 20.9057 17.242C20.9072 17.5058 20.839 17.7652 20.7081 17.9942C20.5772 18.2233 20.3883 18.4137 20.1603 18.5464C19.9324 18.679 19.6735 18.7493 19.4097 18.7499L19.4078 18.7499H4.59222L4.59029 18.7499C4.3265 18.7493 4.06756 18.679 3.83958 18.5463C3.6116 18.4136 3.42265 18.2231 3.2918 17.9941C3.16094 17.765 3.0928 17.5055 3.09426 17.2417C3.09572 16.9785 3.16643 16.7203 3.29928 16.493C3.83952 15.5633 4.51904 13.7506 4.51904 10.4999L4.51904 9.75046" fill="#909090"/>
<path fill-rule="evenodd" clip-rule="evenodd" d="M11.9532 3.75012C12.7519 3.74527 13.5437 3.89687 14.283 4.19618C15.0223 4.49556 15.6945 4.93678 16.2608 5.49442C16.827 6.05205 17.2762 6.71508 17.5823 7.44528C17.8884 8.17547 18.0454 8.9584 18.0442 9.74892L18.0442 9.74997L18.0443 10.5C18.0443 13.9634 18.7776 16.0474 19.4828 17.2478L19.4841 17.25H4.51595L4.51721 17.2478C5.222 16.0475 5.95499 13.9635 5.95499 10.5V9.8347C5.95499 6.51065 8.63333 3.77479 11.9532 3.75012ZM14.857 2.8079C13.9325 2.43357 12.9422 2.24401 11.9433 2.25014L11.9424 2.25015C7.7609 2.28091 4.43912 5.71504 4.43912 9.8347V10.5C4.43912 13.7519 3.75227 15.5648 3.20651 16.4943L3.86186 16.8711L3.20786 16.492C3.07314 16.7196 3.00145 16.9783 3.00002 17.2421C2.9986 17.5058 3.06749 17.7653 3.19974 17.9943C3.332 18.2233 3.52294 18.4138 3.75331 18.5464C3.98369 18.6791 4.24534 18.7493 4.5119 18.75L4.51384 18.75H19.4862L19.4881 18.75C19.7547 18.7493 20.0164 18.6791 20.2468 18.5464C20.4772 18.4137 20.6681 18.2232 20.8004 17.9941C20.9326 17.7651 21.0014 17.5056 21 17.2418C20.9985 16.9786 20.927 16.7203 20.7928 16.4931C20.2468 15.5633 19.5601 13.7507 19.5601 10.5L19.5601 9.75049" fill="#909090"/>
</svg>
