<svg width="24" height="24" viewBox="0 0 24 24" fill="none" xmlns="http://www.w3.org/2000/svg">
<path fill-rule="evenodd" clip-rule="evenodd" d="M12 2.375C6.68426 2.375 2.375 6.68426 2.375 12C2.375 17.3157 6.68426 21.625 12 21.625C17.3157 21.625 21.625 17.3157 21.625 12C21.625 6.68426 17.3157 2.375 12 2.375ZM0.625 12C0.625 5.71776 5.71776 0.625 12 0.625C18.2822 0.625 23.375 5.71776 23.375 12C23.375 18.2822 18.2822 23.375 12 23.375C5.71776 23.375 0.625 18.2822 0.625 12Z" fill="#909090"/>
<path fill-rule="evenodd" clip-rule="evenodd" d="M7.47716 10.0371C7.83636 9.71385 8.38961 9.74297 8.71289 10.1022L12 13.7545L15.2871 10.1022C15.6104 9.74297 16.1637 9.71385 16.5229 10.0371C16.882 10.3604 16.9112 10.9137 16.5879 11.2729L12.6504 15.6479C12.4845 15.8322 12.2481 15.9375 12 15.9375C11.752 15.9375 11.5156 15.8322 11.3496 15.6479L7.41213 11.2729C7.08885 10.9137 7.11797 10.3604 7.47716 10.0371Z" fill="#909090"/>
</svg>
