<svg width="18" height="18" viewBox="0 0 18 18" fill="none" xmlns="http://www.w3.org/2000/svg">
<path fill-rule="evenodd" clip-rule="evenodd" d="M9 2.125C5.20304 2.125 2.125 5.20304 2.125 9C2.125 12.797 5.20304 15.875 9 15.875C12.797 15.875 15.875 12.797 15.875 9C15.875 5.20304 12.797 2.125 9 2.125ZM0.875 9C0.875 4.51269 4.51269 0.875 9 0.875C13.4873 0.875 17.125 4.51269 17.125 9C17.125 13.4873 13.4873 17.125 9 17.125C4.51269 17.125 0.875 13.4873 0.875 9Z" fill="white"/>
<path fill-rule="evenodd" clip-rule="evenodd" d="M7.59795 5.7694C7.82886 5.51283 8.22404 5.49203 8.48061 5.72295L11.6056 8.53545C11.7373 8.65397 11.8125 8.82283 11.8125 9C11.8125 9.17718 11.7373 9.34604 11.6056 9.46456L8.48061 12.2771C8.22404 12.508 7.82886 12.4872 7.59795 12.2306C7.36703 11.974 7.38783 11.5789 7.6444 11.3479L10.2532 9L7.6444 6.65206C7.38783 6.42115 7.36703 6.02597 7.59795 5.7694Z" fill="white"/>
</svg>
