<svg width="19" height="19" viewBox="0 0 19 19" fill="none" xmlns="http://www.w3.org/2000/svg">
<path fill-rule="evenodd" clip-rule="evenodd" d="M9.25 1.51562C4.97842 1.51562 1.51562 4.97842 1.51562 9.25C1.51562 13.5216 4.97842 16.9844 9.25 16.9844C13.5216 16.9844 16.9844 13.5216 16.9844 9.25C16.9844 4.97842 13.5216 1.51562 9.25 1.51562ZM0.109375 9.25C0.109375 4.20177 4.20177 0.109375 9.25 0.109375C14.2982 0.109375 18.3906 4.20177 18.3906 9.25C18.3906 14.2982 14.2982 18.3906 9.25 18.3906C4.20177 18.3906 0.109375 14.2982 0.109375 9.25Z" fill="white"/>
<path fill-rule="evenodd" clip-rule="evenodd" d="M10.0887 6.56481C9.52523 6.38891 8.92075 6.39472 8.36081 6.58144C7.80087 6.76815 7.31387 7.12629 6.96878 7.60514C6.62368 8.084 6.43798 8.65928 6.43799 9.24953C6.43799 9.83978 6.62369 10.4151 6.9688 10.8939C7.3139 11.3728 7.8009 11.7309 8.36084 11.9176C8.92078 12.1043 9.52527 12.1101 10.0887 11.9342C10.6521 11.7583 11.1459 11.4096 11.5002 10.9375C11.7332 10.6268 12.1739 10.564 12.4846 10.797C12.7952 11.0301 12.858 11.4708 12.625 11.7814C12.0936 12.4896 11.3529 13.0127 10.5078 13.2766C9.66266 13.5404 8.75593 13.5317 7.91602 13.2516C7.07611 12.9716 6.3456 12.4344 5.82795 11.7161C5.3103 10.9978 5.03174 10.1349 5.03174 9.24954C5.03173 8.36417 5.31028 7.50124 5.82792 6.78296C6.34556 6.06468 7.07607 5.52747 7.91597 5.2474C8.75588 4.96733 9.66261 4.9586 10.5077 5.22246C11.3529 5.48631 12.0936 6.00937 12.625 6.71756C12.858 7.02817 12.7951 7.4689 12.4845 7.70196C12.1739 7.93502 11.7332 7.87215 11.5001 7.56154C11.1459 7.08942 10.6521 6.74071 10.0887 6.56481Z" fill="white"/>
</svg>
