<svg width="24" height="24" viewBox="0 0 24 24" fill="none" xmlns="http://www.w3.org/2000/svg">
<path d="M4.91626 3.37165C4.86657 3.31699 4.8066 3.27264 4.73978 3.24116C4.67295 3.20967 4.60058 3.19165 4.52679 3.18814C4.453 3.18462 4.37925 3.19567 4.30973 3.22066C4.24021 3.24565 4.1763 3.28408 4.12164 3.33377C4.06697 3.38346 4.02263 3.44343 3.99115 3.51026C3.95966 3.57708 3.94164 3.64945 3.93813 3.72324C3.93461 3.79703 3.94566 3.87079 3.97065 3.9403C3.99564 4.00982 4.03407 4.07373 4.08376 4.1284L6.0407 6.2809C2.54645 8.33402 1.05132 11.6245 0.985979 11.7716C0.954016 11.8435 0.9375 11.9213 0.9375 12C0.9375 12.0787 0.954016 12.1566 0.985979 12.2285C1.01832 12.3012 1.79851 14.0313 3.53973 15.7724C5.15467 17.3871 7.93314 19.3118 12 19.3118C13.6998 19.3222 15.3814 18.9622 16.9279 18.2569L19.0839 20.6284C19.1334 20.6837 19.1934 20.7286 19.2603 20.7606C19.3273 20.7926 19.3999 20.811 19.474 20.8148C19.5482 20.8186 19.6223 20.8077 19.6922 20.7827C19.7621 20.7577 19.8263 20.7191 19.8812 20.6692C19.9361 20.6193 19.9806 20.559 20.0121 20.4918C20.0436 20.4246 20.0615 20.3518 20.0648 20.2777C20.068 20.2035 20.0565 20.1295 20.031 20.0598C20.0055 19.9901 19.9665 19.9261 19.9162 19.8716L4.91626 3.37165ZM9.4742 10.0579L13.6943 14.6998C13.061 15.0979 12.3079 15.2604 11.5669 15.1591C10.8258 15.0577 10.144 14.6989 9.6409 14.1455C9.13777 13.5921 8.84537 12.8793 8.81489 12.1319C8.78441 11.3846 9.01781 10.6504 9.4742 10.0578V10.0579ZM12 18.1867C9.05832 18.1867 6.48939 17.1164 4.36426 15.0057C3.47331 14.1208 2.71938 13.1078 2.12739 12.0003C2.5292 11.2313 4.0111 8.70218 6.81582 7.13346L8.70892 9.21584C8.0331 10.0144 7.67071 11.0315 7.68926 12.0775C7.70782 13.1234 8.10607 14.127 8.80978 14.9011C9.5135 15.6752 10.4747 16.167 11.5142 16.2849C12.5537 16.4028 13.6005 16.1387 14.4597 15.5418L16.1294 17.3785C14.8205 17.9201 13.4166 18.1948 12 18.1866V18.1867ZM23.0139 12.2284C22.9753 12.3155 22.0419 14.3827 19.9324 16.272C19.8212 16.3716 19.6751 16.4229 19.5261 16.4146C19.3772 16.4064 19.2376 16.3394 19.138 16.2282C19.0385 16.1171 18.9872 15.971 18.9954 15.822C19.0036 15.673 19.0707 15.5334 19.1818 15.4339C20.2718 14.4546 21.1825 13.2927 21.8731 12.0004C21.281 10.8923 20.5269 9.87877 19.6357 8.99327C17.5106 6.88221 14.9416 5.81177 12 5.81177C11.3815 5.81093 10.764 5.86116 10.1538 5.96196C10.0066 5.98656 9.85575 5.95171 9.73431 5.86505C9.61287 5.7784 9.53082 5.64706 9.50621 5.49991C9.48161 5.35277 9.51647 5.20188 9.60312 5.08043C9.68977 4.95899 9.82112 4.87694 9.96826 4.85234C10.6398 4.74134 11.3194 4.68596 12 4.68677C16.0669 4.68677 18.8455 6.61193 20.4603 8.22696C22.2016 9.96846 22.9817 11.6988 23.014 11.7716C23.046 11.8436 23.0625 11.9214 23.0625 12.0001C23.0625 12.0788 23.046 12.1566 23.014 12.2285L23.0139 12.2284ZM12.6005 8.86896C12.5279 8.85515 12.4588 8.82718 12.397 8.78664C12.3353 8.74611 12.2821 8.69381 12.2405 8.63273C12.199 8.57164 12.1699 8.50298 12.1549 8.43064C12.1399 8.35831 12.1392 8.28373 12.1531 8.21116C12.1669 8.13859 12.1948 8.06946 12.2354 8.0077C12.2759 7.94594 12.3282 7.89277 12.3893 7.85122C12.4504 7.80967 12.519 7.78056 12.5914 7.76555C12.6637 7.75054 12.7383 7.74993 12.8109 7.76374C13.7268 7.94158 14.5607 8.41067 15.1884 9.10107C15.816 9.79148 16.2037 10.6662 16.2937 11.5949C16.3005 11.6685 16.2929 11.7427 16.2711 11.8133C16.2493 11.8838 16.2138 11.9494 16.1666 12.0063C16.1195 12.0632 16.0616 12.1102 15.9963 12.1447C15.931 12.1792 15.8595 12.2004 15.7859 12.2073C15.7681 12.209 15.7505 12.2097 15.7329 12.2097C15.5929 12.2096 15.4581 12.1572 15.3546 12.0628C15.2512 11.9685 15.1867 11.8389 15.1736 11.6996C15.1072 11.0134 14.8207 10.3671 14.357 9.85703C13.8933 9.34693 13.2772 9.00036 12.6005 8.86896Z" fill="#8F8F8F"/>
</svg>
