<svg width="24" height="24" viewBox="0 0 24 24" fill="none" xmlns="http://www.w3.org/2000/svg">
<path fill-rule="evenodd" clip-rule="evenodd" d="M3.40714 8.09409C5.195 6.30603 8.00054 4.49902 12 4.49902C15.9995 4.49902 18.805 6.30603 20.5929 8.09409C21.4846 8.98595 22.1277 9.87651 22.5488 10.5454C22.7597 10.8804 22.916 11.1615 23.0208 11.3617C23.0733 11.4619 23.113 11.542 23.1402 11.5986C23.1539 11.6269 23.1644 11.6494 23.1719 11.6657L23.1809 11.6853L23.1837 11.6915L23.1851 11.6945C23.1852 11.6948 23.1854 11.6952 22.5 11.9998C23.1853 12.3044 23.1852 12.3047 23.185 12.3051L23.1847 12.3059L23.1837 12.3081L23.1809 12.3143L23.1719 12.3339C23.1644 12.3501 23.1539 12.3726 23.1402 12.4009C23.1129 12.4576 23.0733 12.5377 23.0208 12.6378C22.9159 12.838 22.7596 13.119 22.5487 13.454C22.1276 14.1227 21.4846 15.0131 20.5928 15.9047C18.8049 17.6924 15.9994 19.499 12 19.499C8.00059 19.499 5.19508 17.6924 3.4072 15.9047C2.51543 15.0131 1.87238 14.1227 1.45128 13.454C1.24037 13.119 1.08406 12.838 0.979197 12.6378C0.926735 12.5377 0.887061 12.4576 0.859785 12.4009C0.846145 12.3726 0.835597 12.3501 0.828093 12.3339L0.819111 12.3143L0.816319 12.3081L0.815346 12.3059L0.814965 12.3051C0.814803 12.3047 0.814654 12.3044 1.5 11.9998C0.814629 11.6952 0.814779 11.6948 0.81494 11.6945L0.815321 11.6936L0.816294 11.6915L0.819086 11.6853L0.828067 11.6657C0.83557 11.6494 0.846117 11.6269 0.859757 11.5986C0.887032 11.542 0.926705 11.4619 0.979166 11.3617C1.08403 11.1615 1.24033 10.8804 1.45124 10.5454C1.87233 9.87651 2.51538 8.98595 3.40714 8.09409ZM1.5 11.9998L0.814629 11.6952C0.728448 11.8891 0.728457 12.1105 0.814654 12.3044L1.5 11.9998ZM2.33859 11.9997C2.42682 11.8344 2.55354 11.6099 2.72063 11.3445C3.09642 10.7476 3.67213 9.95051 4.46786 9.15469C6.055 7.56738 8.49946 5.99902 12 5.99902C15.5005 5.99902 17.945 7.56738 19.5321 9.15469C20.3279 9.95051 20.9036 10.7476 21.2794 11.3445C21.4465 11.6099 21.5732 11.8344 21.6614 11.9997C21.5732 12.165 21.4465 12.3894 21.2794 12.6547C20.9036 13.2515 20.3279 14.0484 19.5322 14.844C17.9451 16.431 15.5006 17.999 12 17.999C8.49941 17.999 6.05492 16.431 4.4678 14.844C3.67207 14.0484 3.09637 13.2515 2.72059 12.6547C2.55352 12.3894 2.42682 12.165 2.33859 11.9997ZM22.5 11.9998L23.1853 12.3044C23.2715 12.1105 23.2716 11.8891 23.1854 11.6952L22.5 11.9998Z" fill="#8F8F8F"/>
<path fill-rule="evenodd" clip-rule="evenodd" d="M12 9C10.3431 9 9 10.3431 9 12C9 13.6569 10.3431 15 12 15C13.6569 15 15 13.6569 15 12C15 10.3431 13.6569 9 12 9ZM7.5 12C7.5 9.51472 9.51472 7.5 12 7.5C14.4853 7.5 16.5 9.51472 16.5 12C16.5 14.4853 14.4853 16.5 12 16.5C9.51472 16.5 7.5 14.4853 7.5 12Z" fill="#8F8F8F"/>
</svg>
