<svg width="16" height="16" viewBox="0 0 16 16" fill="none" xmlns="http://www.w3.org/2000/svg">
<path d="M7.99976 5.50011C7.33672 5.50011 6.70084 5.7635 6.23199 6.23234C5.76315 6.70118 5.49976 7.33706 5.49976 8.00011C5.49976 8.66315 5.76315 9.29903 6.23199 9.76787C6.70084 10.2367 7.33672 10.5001 7.99976 10.5001C8.6628 10.5001 9.29869 10.2367 9.76753 9.76787C10.2364 9.29903 10.4998 8.66315 10.4998 8.00011C10.4998 7.33706 10.2364 6.70118 9.76753 6.23234C9.29869 5.7635 8.6628 5.50011 7.99976 5.50011ZM6.49976 8.00011C6.49976 7.60228 6.6578 7.22075 6.9391 6.93945C7.22041 6.65814 7.60194 6.50011 7.99976 6.50011C8.39759 6.50011 8.77912 6.65814 9.06042 6.93945C9.34173 7.22075 9.49976 7.60228 9.49976 8.00011C9.49976 8.39793 9.34173 8.77946 9.06042 9.06077C8.77912 9.34207 8.39759 9.50011 7.99976 9.50011C7.60194 9.50011 7.22041 9.34207 6.9391 9.06077C6.6578 8.77946 6.49976 8.39793 6.49976 8.00011ZM6.41976 14.8141C6.93726 14.9376 7.46776 15.0001 7.99976 15.0001C8.53127 14.9993 9.06086 14.9364 9.57776 14.8126C9.72628 14.7776 9.86033 14.6975 9.96149 14.5833C10.0627 14.469 10.126 14.3263 10.1428 14.1746L10.2598 13.1096C10.271 12.9934 10.3098 12.8816 10.3729 12.7834C10.4359 12.6852 10.5215 12.6033 10.6224 12.5447C10.7233 12.4861 10.8368 12.4523 10.9533 12.4462C11.0699 12.4401 11.1863 12.4618 11.2928 12.5096L12.2703 12.9376C12.4102 12.9992 12.5658 13.0157 12.7156 12.9848C12.8653 12.9538 13.0017 12.8771 13.1058 12.7651C13.828 11.9869 14.3672 11.057 14.6838 10.0436C14.7292 9.89702 14.7278 9.73994 14.6799 9.59416C14.6319 9.44838 14.5398 9.32115 14.4163 9.23011L13.5518 8.59261C13.4573 8.5238 13.3805 8.43362 13.3276 8.32945C13.2747 8.22527 13.2472 8.11006 13.2474 7.99322C13.2475 7.87639 13.2753 7.76124 13.3285 7.6572C13.3816 7.55316 13.4587 7.46318 13.5533 7.39461L14.4133 6.75961C14.5375 6.6688 14.6302 6.54137 14.6784 6.39521C14.7265 6.24905 14.7277 6.09148 14.6818 5.94461C14.3658 4.9308 13.8263 4.0008 13.1033 3.22311C12.9987 3.11133 12.8621 3.03471 12.7122 3.00382C12.5623 2.97293 12.4065 2.98927 12.2663 3.05061L11.2933 3.47861C11.1866 3.52509 11.0705 3.54584 10.9544 3.53915C10.8382 3.53247 10.7253 3.49856 10.6247 3.44015C10.5241 3.38173 10.4386 3.30047 10.3752 3.20292C10.3118 3.10537 10.2723 2.99427 10.2598 2.87861L10.1418 1.81861C10.1253 1.66513 10.0611 1.5207 9.95818 1.40562C9.8553 1.29055 9.71893 1.21063 9.56826 1.17711C9.05483 1.06238 8.53082 1.00155 8.00476 0.995605C7.47558 1.00187 6.94846 1.06269 6.43176 1.17711C6.28107 1.21005 6.14458 1.28961 6.04165 1.40448C5.93871 1.51935 5.87455 1.66372 5.85826 1.81711L5.73976 2.87811C5.72682 2.99394 5.68693 3.10514 5.62328 3.2028C5.55964 3.30045 5.47401 3.38184 5.37326 3.44045C5.27251 3.49907 5.15944 3.53327 5.04309 3.54033C4.92674 3.54739 4.81036 3.52711 4.70326 3.48111L3.73026 3.05261C3.58987 2.99298 3.43458 2.97778 3.2853 3.00907C3.13601 3.04036 2.99989 3.11662 2.89526 3.22761C2.17208 4.00606 1.63223 4.93645 1.31526 5.95061C1.27015 6.09711 1.27171 6.25401 1.31973 6.39958C1.36774 6.54516 1.45984 6.6722 1.58326 6.76311L2.44576 7.39911C2.53972 7.46824 2.6161 7.5585 2.66874 7.66259C2.72138 7.76669 2.74881 7.88171 2.74881 7.99836C2.74881 8.11501 2.72138 8.23002 2.66874 8.33412C2.6161 8.43821 2.53972 8.52847 2.44576 8.59761L1.58326 9.23511C1.45937 9.32619 1.36701 9.45368 1.31906 9.59979C1.2711 9.74589 1.26995 9.90332 1.31576 10.0501C1.63258 11.0649 2.17243 11.996 2.89576 12.7751C2.96453 12.849 3.0479 12.9079 3.1406 12.9479C3.23329 12.9879 3.33329 13.0083 3.43426 13.0076C3.53576 13.0076 3.63626 12.9866 3.72976 12.9461L4.70726 12.5166C4.81388 12.4705 4.92981 12.4501 5.04575 12.457C5.16169 12.4639 5.2744 12.4979 5.37482 12.5562C5.47524 12.6146 5.56057 12.6957 5.62395 12.793C5.68733 12.8903 5.727 13.0012 5.73976 13.1166L5.85726 14.1796C5.87433 14.3305 5.93749 14.4724 6.03816 14.586C6.13882 14.6996 6.27208 14.7795 6.41976 14.8146V14.8141ZM9.17026 13.8811C8.39879 14.0393 7.60323 14.0393 6.83176 13.8811L6.73426 13.0111C6.6866 12.5855 6.48365 12.1924 6.16426 11.9071C5.9142 11.6869 5.60698 11.5419 5.27805 11.4888C4.94912 11.4358 4.61189 11.4768 4.30526 11.6071L3.50226 11.9571C2.98426 11.3639 2.58563 10.6764 2.32826 9.93211L3.04026 9.40611C3.26023 9.24402 3.43904 9.03251 3.56227 8.78864C3.6855 8.54476 3.7497 8.27534 3.7497 8.00211C3.7497 7.72887 3.6855 7.45945 3.56227 7.21558C3.43904 6.9717 3.26023 6.76019 3.04026 6.59811L2.32976 6.07361C2.58743 5.33008 2.98604 4.64321 3.50376 4.05061L4.30376 4.40061C4.52426 4.49797 4.76272 4.54805 5.00376 4.54761C5.43301 4.54626 5.84678 4.3872 6.1664 4.10068C6.48602 3.81415 6.68919 3.42015 6.73726 2.99361L6.83426 2.12011C7.22126 2.04511 7.61426 2.00511 8.00776 2.00011C8.39876 2.00511 8.78876 2.04511 9.17276 2.12011L9.26576 2.99011C9.31208 3.41693 9.51456 3.81156 9.83426 4.09811C10.0845 4.31964 10.3925 4.46547 10.7225 4.51858C11.0524 4.5717 11.3907 4.52992 11.6978 4.39811L12.4978 4.04811C13.0162 4.64055 13.4152 5.32766 13.6728 6.07161L12.9613 6.59461C12.7402 6.75613 12.5603 6.96756 12.4363 7.2117C12.3123 7.45583 12.2477 7.72579 12.2477 7.99961C12.2477 8.27342 12.3123 8.54338 12.4363 8.78751C12.5603 9.03165 12.7402 9.24308 12.9613 9.40461L13.6723 9.92961C13.4145 10.6721 13.0164 11.3582 12.4998 11.9506L11.6998 11.6006C11.4494 11.4892 11.1763 11.4386 10.9026 11.453C10.629 11.4674 10.3626 11.5463 10.1254 11.6833C9.88807 11.8204 9.68658 12.0116 9.53735 12.2414C9.38812 12.4712 9.2954 12.7331 9.26676 13.0056L9.17026 13.8806V13.8811Z" fill="#8F8F8F"/>
</svg>
