<svg width="74" height="74" viewBox="0 0 74 74" fill="none" xmlns="http://www.w3.org/2000/svg">
<path d="M68.2057 0.333496H5.79437C4.34653 0.335148 2.95846 0.911032 1.93469 1.93481C0.910909 2.95859 0.335026 4.34665 0.333374 5.79449V68.2058C0.335026 69.6537 0.910909 71.0417 1.93469 72.0655C2.95846 73.0893 4.34653 73.6652 5.79437 73.6668H68.2057C69.6536 73.6652 71.0416 73.0893 72.0654 72.0655C73.0892 71.0417 73.6651 69.6537 73.6667 68.2058V5.79449C73.6651 4.34665 73.0892 2.95859 72.0654 1.93481C71.0416 0.911032 69.6536 0.335148 68.2057 0.333496ZM68.9859 68.2058C68.9855 68.4127 68.9033 68.6109 68.757 68.7571C68.6108 68.9034 68.4125 68.9857 68.2057 68.986H5.79437C5.58756 68.9857 5.3893 68.9034 5.24307 68.7571C5.09683 68.6109 5.01453 68.4127 5.01423 68.2058V56.6929L17.7251 43.9824C17.8715 43.8363 18.07 43.7543 18.2768 43.7543C18.4837 43.7543 18.6821 43.8363 18.8286 43.9824L26.898 52.0518C27.405 52.5589 28.007 52.9611 28.6695 53.2356C29.332 53.51 30.042 53.6513 30.7591 53.6513C31.4762 53.6513 32.1862 53.51 32.8487 53.2356C33.5112 52.9611 34.1132 52.5589 34.6202 52.0518L52.0513 34.6207C52.1978 34.4747 52.3962 34.3928 52.6031 34.3928C52.8099 34.3928 53.0083 34.4747 53.1548 34.6207L68.9859 50.4514V68.2058ZM68.9859 43.8326L56.4646 31.311C55.9575 30.8038 55.3556 30.4016 54.693 30.1271C54.0305 29.8526 53.3204 29.7114 52.6033 29.7114C51.8861 29.7114 51.176 29.8526 50.5135 30.1271C49.851 30.4016 49.249 30.8038 48.742 31.311L31.3109 48.7421C31.1644 48.8883 30.9659 48.9704 30.7589 48.9704C30.5519 48.9704 30.3534 48.8883 30.207 48.7421L22.1383 40.6727C21.1136 39.6501 19.725 39.0757 18.2773 39.0756C16.8296 39.0756 15.441 39.6498 14.4161 40.6723L5.01423 50.0734V5.79449C5.01453 5.58768 5.09683 5.38943 5.24307 5.24319C5.3893 5.09695 5.58756 5.01466 5.79437 5.01435H68.2057C68.4125 5.01466 68.6108 5.09695 68.757 5.24319C68.9033 5.38943 68.9855 5.58768 68.9859 5.79449V43.8326ZM29.9792 22.9576V22.9588C29.979 23.9934 29.5679 24.9855 28.8362 25.717C28.1046 26.4485 27.1124 26.8594 26.0778 26.8593C25.0432 26.8592 24.051 26.4482 23.3195 25.7166C22.5879 24.985 22.177 23.9928 22.177 22.9582C22.177 21.9236 22.5879 20.9314 23.3195 20.1998C24.051 19.4682 25.0432 19.0572 26.0778 19.0571C27.1124 19.057 28.1046 19.4679 28.8362 20.1994C29.5679 20.9309 29.979 21.923 29.9792 22.9576Z" fill="#F2F2F2"/>
</svg>
