<svg width="22" height="22" viewBox="0 0 22 22" fill="none" xmlns="http://www.w3.org/2000/svg">
<path fill-rule="evenodd" clip-rule="evenodd" d="M7.21875 3.78125C5.32027 3.78125 3.78125 5.32027 3.78125 7.21875V14.7812C3.78125 16.6797 5.32027 18.2188 7.21875 18.2188H14.7812C16.6797 18.2188 18.2188 16.6797 18.2188 14.7812V7.21875C18.2188 5.32027 16.6797 3.78125 14.7812 3.78125H7.21875ZM2.40625 7.21875C2.40625 4.56088 4.56088 2.40625 7.21875 2.40625H14.7812C17.4391 2.40625 19.5938 4.56088 19.5938 7.21875V14.7812C19.5938 17.4391 17.4391 19.5938 14.7812 19.5938H7.21875C4.56088 19.5938 2.40625 17.4391 2.40625 14.7812V7.21875ZM11 8.25C9.48122 8.25 8.25 9.48122 8.25 11C8.25 12.5188 9.48122 13.75 11 13.75C12.5188 13.75 13.75 12.5188 13.75 11C13.75 9.48122 12.5188 8.25 11 8.25ZM6.875 11C6.875 8.72183 8.72183 6.875 11 6.875C13.2782 6.875 15.125 8.72183 15.125 11C15.125 13.2782 13.2782 15.125 11 15.125C8.72183 15.125 6.875 13.2782 6.875 11ZM16.5 6.53125C16.5 7.10079 16.0383 7.5625 15.4688 7.5625C14.8992 7.5625 14.4375 7.10079 14.4375 6.53125C14.4375 5.96171 14.8992 5.5 15.4688 5.5C16.0383 5.5 16.5 5.96171 16.5 6.53125Z" fill="white"/>
</svg>
