<svg width="16" height="16" viewBox="0 0 16 16" fill="none" xmlns="http://www.w3.org/2000/svg">
<path d="M10.5 1C9.7973 0.999839 9.10433 1.16428 8.47662 1.48015C7.84892 1.79603 7.30393 2.25454 6.88533 2.81896C6.46673 3.38337 6.18617 4.038 6.06611 4.73037C5.94606 5.42274 5.98986 6.1336 6.194 6.806L1 12V15H4L9.194 9.806C9.81295 9.99388 10.4651 10.0461 11.1061 9.95914C11.7471 9.87217 12.3617 9.64804 12.9082 9.30202C13.4548 8.95601 13.9202 8.49624 14.273 7.95405C14.6257 7.41187 14.8575 6.8 14.9524 6.16016C15.0473 5.52033 15.0031 4.86755 14.8229 4.24632C14.6427 3.62509 14.3307 3.05002 13.9081 2.56028C13.4855 2.07054 12.9624 1.67766 12.3742 1.40841C11.7861 1.13915 11.1468 0.99985 10.5 1ZM10.5 9C10.1558 8.99981 9.81342 8.94893 9.484 8.849L8.9105 8.675L8.487 9.0985L6.8965 10.689L6.207 10L5.5 10.707L6.1895 11.3965L5.3965 12.1895L4.707 11.5L4 12.207L4.6895 12.8965L3.586 14H2V12.414L6.901 7.513L7.325 7.0895L7.151 6.516C6.93729 5.8115 6.95117 5.05754 7.19068 4.36138C7.43018 3.66522 7.8831 3.06231 8.48502 2.63841C9.08694 2.21451 9.8072 1.99121 10.5433 2.00027C11.2795 2.00932 11.994 2.25028 12.5854 2.68886C13.1767 3.12744 13.6146 3.74131 13.8369 4.44315C14.0592 5.14499 14.0545 5.89906 13.8236 6.59809C13.5926 7.29712 13.1471 7.90553 12.5504 8.33675C11.9537 8.76797 11.2362 9.00006 10.5 9Z" fill="#8F8F8F"/>
<path d="M11 6C11.5523 6 12 5.55228 12 5C12 4.44772 11.5523 4 11 4C10.4477 4 10 4.44772 10 5C10 5.55228 10.4477 6 11 6Z" fill="#8F8F8F"/>
</svg>
