<svg width="22" height="23" viewBox="0 0 22 23" fill="none" xmlns="http://www.w3.org/2000/svg">
<path fill-rule="evenodd" clip-rule="evenodd" d="M2.75 4.3125C2.75 3.51859 3.36561 2.875 4.125 2.875H17.875C18.6344 2.875 19.25 3.51859 19.25 4.3125V18.6875C19.25 19.4814 18.6344 20.125 17.875 20.125H4.125C3.36561 20.125 2.75 19.4814 2.75 18.6875V4.3125ZM17.875 4.3125H4.125V18.6875H17.875V4.3125ZM10.3125 9.34375C10.6391 9.34375 10.9125 9.58184 10.9826 9.90105C11.4913 9.54048 12.0953 9.34375 12.7188 9.34375C13.5393 9.34375 14.3262 9.68451 14.9064 10.2911C15.4866 10.8976 15.8125 11.7203 15.8125 12.5781V15.8125C15.8125 16.2095 15.5047 16.5312 15.125 16.5312C14.7453 16.5312 14.4375 16.2095 14.4375 15.8125V12.5781C14.4375 12.1016 14.2564 11.6445 13.9341 11.3075C13.6118 10.9706 13.1746 10.7812 12.7188 10.7812C12.2629 10.7812 11.8257 10.9706 11.5034 11.3075C11.1811 11.6445 11 12.1016 11 12.5781V15.8125C11 16.2095 10.6922 16.5312 10.3125 16.5312C9.9328 16.5312 9.625 16.2095 9.625 15.8125V12.5781V10.0625C9.625 9.66555 9.9328 9.34375 10.3125 9.34375ZM8.25 10.0625C8.25 9.66555 7.9422 9.34375 7.5625 9.34375C7.1828 9.34375 6.875 9.66555 6.875 10.0625V15.8125C6.875 16.2095 7.1828 16.5312 7.5625 16.5312C7.9422 16.5312 8.25 16.2095 8.25 15.8125V10.0625ZM8.59375 7.1875C8.59375 7.78293 8.13204 8.26562 7.5625 8.26562C6.99296 8.26562 6.53125 7.78293 6.53125 7.1875C6.53125 6.59207 6.99296 6.10938 7.5625 6.10938C8.13204 6.10938 8.59375 6.59207 8.59375 7.1875Z" fill="white"/>
</svg>
