<svg width="24" height="24" viewBox="0 0 24 24" fill="none" xmlns="http://www.w3.org/2000/svg">
<path d="M18.75 21H14.1131C14.8933 20.3046 15.629 19.561 16.316 18.7734C18.8896 15.8137 20.25 12.6935 20.25 9.75C20.25 7.56196 19.3808 5.46354 17.8336 3.91637C16.2865 2.36919 14.188 1.5 12 1.5C9.81196 1.5 7.71354 2.36919 6.16637 3.91637C4.61919 5.46354 3.75 7.56196 3.75 9.75C3.75 12.6934 5.11031 15.8137 7.68403 18.7734C8.37102 19.561 9.10674 20.3046 9.88688 21H5.25C5.05109 21 4.86032 21.079 4.71967 21.2197C4.57902 21.3603 4.5 21.5511 4.5 21.75C4.5 21.9489 4.57902 22.1397 4.71967 22.2803C4.86032 22.421 5.05109 22.5 5.25 22.5H18.75C18.9489 22.5 19.1397 22.421 19.2803 22.2803C19.421 22.1397 19.5 21.9489 19.5 21.75C19.5 21.5511 19.421 21.3603 19.2803 21.2197C19.1397 21.079 18.9489 21 18.75 21ZM5.25 9.75C5.25 7.95979 5.96116 6.2429 7.22703 4.97703C8.4929 3.71116 10.2098 3 12 3C13.7902 3 15.5071 3.71116 16.773 4.97703C18.0388 6.2429 18.75 7.95979 18.75 9.75C18.75 15.1156 13.5497 19.5952 12 20.8106C10.45 19.595 5.25 15.1156 5.25 9.75ZM15.75 9.75C15.75 9.00832 15.5301 8.2833 15.118 7.66661C14.706 7.04993 14.1203 6.56928 13.4351 6.28545C12.7498 6.00162 11.9958 5.92736 11.2684 6.07205C10.541 6.21675 9.8728 6.5739 9.34835 7.09835C8.8239 7.6228 8.46675 8.29098 8.32205 9.01841C8.17736 9.74584 8.25162 10.4998 8.53545 11.1851C8.81928 11.8703 9.29993 12.456 9.91661 12.868C10.5333 13.2801 11.2583 13.5 12 13.5C12.9942 13.4989 13.9474 13.1034 14.6504 12.4004C15.3534 11.6974 15.7489 10.7442 15.75 9.75ZM9.75 9.75C9.75 9.30499 9.88196 8.86998 10.1292 8.49997C10.3764 8.12996 10.7278 7.84157 11.139 7.67127C11.5501 7.50097 12.0025 7.45642 12.439 7.54323C12.8754 7.63005 13.2763 7.84434 13.591 8.15901C13.9057 8.47368 14.12 8.87459 14.2068 9.31105C14.2936 9.7475 14.249 10.1999 14.0787 10.611C13.9084 11.0222 13.62 11.3736 13.25 11.6208C12.88 11.868 12.445 12 12 12C11.4035 11.9993 10.8316 11.7621 10.4097 11.3403C9.98794 10.9184 9.75067 10.3465 9.75 9.75Z" fill="white"/>
</svg>
