<svg width="16" height="16" viewBox="0 0 16 16" fill="none" xmlns="http://www.w3.org/2000/svg">
<path fill-rule="evenodd" clip-rule="evenodd" d="M10.522 5.0214C10.7173 4.82616 11.0339 4.82621 11.2291 5.02149L13.8534 7.64649C14.0486 7.84174 14.0486 8.15826 13.8534 8.35351L11.2291 10.9785C11.0339 11.1738 10.7173 11.1738 10.522 10.9786C10.3267 10.7834 10.3267 10.4668 10.5219 10.2715L12.7928 8L10.5219 5.72851C10.3267 5.53322 10.3267 5.21664 10.522 5.0214Z" fill="#909090"/>
<path fill-rule="evenodd" clip-rule="evenodd" d="M6 8C6 7.72386 6.22386 7.5 6.5 7.5H13.4982C13.7743 7.5 13.9982 7.72386 13.9982 8C13.9982 8.27614 13.7743 8.5 13.4982 8.5H6.5C6.22386 8.5 6 8.27614 6 8Z" fill="#909090"/>
<path fill-rule="evenodd" clip-rule="evenodd" d="M2.29289 2.29289C2.48043 2.10536 2.73478 2 3 2H6.5C6.77614 2 7 2.22386 7 2.5C7 2.77614 6.77614 3 6.5 3L3 3L3 13H6.5C6.77614 13 7 13.2239 7 13.5C7 13.7761 6.77614 14 6.5 14H3C2.73478 14 2.48043 13.8946 2.29289 13.7071C2.10536 13.5196 2 13.2652 2 13V3C2 2.73478 2.10536 2.48043 2.29289 2.29289Z" fill="#909090"/>
</svg>
