<svg width="23" height="23" viewBox="0 0 23 23" fill="none" xmlns="http://www.w3.org/2000/svg">
<path fill-rule="evenodd" clip-rule="evenodd" d="M2.34517 4.54558C2.61341 4.25296 3.06806 4.23319 3.36068 4.50142L11.5 11.9625L19.6393 4.50142C19.9319 4.23319 20.3866 4.25296 20.6548 4.54558C20.9231 4.83819 20.9033 5.29285 20.6107 5.56108L11.9857 13.4673C11.7109 13.7192 11.2891 13.7192 11.0143 13.4673L2.38933 5.56108C2.09671 5.29285 2.07694 4.83819 2.34517 4.54558Z" fill="white"/>
<path fill-rule="evenodd" clip-rule="evenodd" d="M2.15625 5.03125C2.15625 4.6343 2.47805 4.3125 2.875 4.3125H20.125C20.522 4.3125 20.8438 4.6343 20.8438 5.03125V17.25C20.8438 17.6312 20.6923 17.9969 20.4227 18.2665C20.1531 18.5361 19.7875 18.6875 19.4062 18.6875H3.59375C3.2125 18.6875 2.84687 18.5361 2.57728 18.2665C2.3077 17.9969 2.15625 17.6312 2.15625 17.25V5.03125ZM3.59375 5.75V17.25H19.4062V5.75H3.59375Z" fill="white"/>
<path fill-rule="evenodd" clip-rule="evenodd" d="M10.4616 11.0143C10.7298 11.3069 10.71 11.7616 10.4174 12.0298L3.58224 18.2955C3.28962 18.5637 2.83497 18.5439 2.56673 18.2513C2.2985 17.9587 2.31827 17.504 2.61088 17.2358L9.44607 10.9702C9.73869 10.7019 10.1933 10.7217 10.4616 11.0143Z" fill="white"/>
<path fill-rule="evenodd" clip-rule="evenodd" d="M12.5383 11.0143C12.8065 10.7217 13.2612 10.7019 13.5538 10.9702L20.3891 17.2358C20.6817 17.5041 20.7015 17.9587 20.4333 18.2513C20.165 18.544 19.7104 18.5637 19.4177 18.2955L12.5824 12.0298C12.2898 11.7616 12.2701 11.3069 12.5383 11.0143Z" fill="white"/>
</svg>
