<svg width="15" height="18" viewBox="0 0 15 18" fill="none" xmlns="http://www.w3.org/2000/svg">
<path fill-rule="evenodd" clip-rule="evenodd" d="M10.5537 1.11239C10.9328 0.955342 11.3392 0.874512 11.7495 0.874512C12.1599 0.874512 12.5663 0.955342 12.9454 1.11239C13.3246 1.26943 13.6691 1.49962 13.9593 1.7898C14.2494 2.07999 14.4796 2.42448 14.6367 2.80363C14.7937 3.18277 14.8745 3.58913 14.8745 3.99951C14.8745 4.40989 14.7937 4.81625 14.6367 5.1954C14.4799 5.57385 14.2503 5.91778 13.9608 6.20763C13.9603 6.20816 13.9598 6.20869 13.9593 6.20922L6.20084 14.0757C5.84921 14.4274 5.37228 14.6249 4.875 14.6249C4.37772 14.6249 3.90081 14.4273 3.54918 14.0757C3.19754 13.7241 3 13.2472 3 12.7499C3 12.2536 3.19679 11.7775 3.54717 11.4261L10.054 4.81122C10.296 4.56515 10.6918 4.56189 10.9378 4.80395C11.1839 5.04601 11.1872 5.44172 10.9451 5.6878L4.43307 12.308C4.31586 12.4252 4.25 12.5841 4.25 12.7499C4.25 12.9157 4.31585 13.0746 4.43306 13.1918C4.55027 13.309 4.70924 13.3749 4.875 13.3749C5.04016 13.3749 5.19859 13.3095 5.31568 13.1931C5.3161 13.1927 5.31652 13.1923 5.31694 13.1918L13.0754 5.32533C13.2495 5.15122 13.3876 4.94453 13.4818 4.71704C13.576 4.48956 13.6245 4.24574 13.6245 3.99951C13.6245 3.75328 13.576 3.50947 13.4818 3.28198C13.3876 3.0545 13.2495 2.8478 13.0754 2.67369C12.9013 2.49958 12.6946 2.36146 12.4671 2.26724C12.2396 2.17301 11.9958 2.12451 11.7495 2.12451C11.5033 2.12451 11.2595 2.17301 11.032 2.26724C10.8052 2.36121 10.599 2.49882 10.4252 2.67225L2.6653 10.5402C2.07925 11.1262 1.75 11.9211 1.75 12.7499C1.75 13.5787 2.07924 14.3736 2.66529 14.9596C3.25134 15.5457 4.0462 15.8749 4.875 15.8749C5.7038 15.8749 6.49866 15.5457 7.08471 14.9596L13.4954 8.55728C13.7396 8.31336 14.1354 8.31362 14.3793 8.55786C14.6232 8.8021 14.6229 9.19783 14.3787 9.44174L7.96859 15.8435C7.14812 16.664 6.03532 17.1249 4.875 17.1249C3.71468 17.1249 2.60188 16.664 1.78141 15.8435C0.960936 15.023 0.5 13.9102 0.5 12.7499C0.5 11.5903 0.960343 10.4782 1.77982 9.65789L9.53982 1.78979C9.83001 1.49961 10.1745 1.26943 10.5537 1.11239Z" fill="#909090"/>
</svg>
