<svg width="23" height="22" viewBox="0 0 23 22" fill="none" xmlns="http://www.w3.org/2000/svg">
<path fill-rule="evenodd" clip-rule="evenodd" d="M7.44414 3.46394C7.44414 3.46394 7.44414 3.46394 7.44414 3.46394V3.46394ZM7.44486 3.46555L9.25005 7.49453L7.75621 9.67782C7.62032 9.87481 7.53998 10.1021 7.523 10.3376C7.50598 10.5738 7.5533 10.8102 7.66035 11.0237L8.30842 10.7264L7.66277 11.0284C8.47903 12.6247 9.83175 13.9127 11.5042 14.6862L11.5093 14.6885C11.7339 14.7903 11.9823 14.8344 12.2301 14.8165C12.4771 14.7986 12.715 14.7197 12.9205 14.5875C12.9212 14.5871 12.9218 14.5867 12.9225 14.5863L15.1685 13.1537L19.3765 14.8787C19.2644 15.7059 18.8421 16.4662 18.1875 17.0175C17.5312 17.5701 16.6869 17.875 15.8125 17.8751M8.95809 10.4321L10.4528 8.2475C10.5827 8.05778 10.6614 7.8403 10.6821 7.61443C10.7027 7.38855 10.6647 7.16129 10.5713 6.95289L8.76721 2.92635C8.76704 2.92595 8.76686 2.92555 8.76668 2.92516C8.64495 2.65177 8.43375 2.42353 8.1648 2.27475C7.89547 2.12575 7.5828 2.06452 7.27392 2.10028L7.26916 2.10084C6.05498 2.24926 4.93898 2.81592 4.13014 3.69472C3.3213 4.57351 2.87506 5.70418 2.875 6.87502C2.875 10.1571 4.23805 13.3047 6.66431 15.6255C9.09056 17.9463 12.3813 19.2501 15.8125 19.2501C17.0366 19.25 18.2187 18.8232 19.1374 18.0495C20.0561 17.2758 20.6486 16.2083 20.8037 15.0469L20.8043 15.0424C20.8417 14.7469 20.7777 14.4479 20.6219 14.1902C20.4663 13.9329 20.2276 13.7309 19.9417 13.6144C19.9414 13.6143 19.941 13.6142 19.9407 13.614L15.7348 11.8899C15.515 11.7998 15.2752 11.7635 15.037 11.7845C14.7989 11.8054 14.57 11.8828 14.371 12.0097L12.1217 13.4444C10.7456 12.8057 9.63198 11.7455 8.95809 10.4321ZM7.44486 3.46555C6.58006 3.5728 5.78542 3.97713 5.20908 4.6033C4.6313 5.23105 4.31255 6.03873 4.3125 6.87509C4.3125 9.79247 5.5241 12.5903 7.68077 14.6532C9.83743 16.7161 12.7625 17.875 15.8125 17.8751" fill="white"/>
</svg>
