<svg width="24" height="24" viewBox="0 0 24 24" fill="none" xmlns="http://www.w3.org/2000/svg">
<path fill-rule="evenodd" clip-rule="evenodd" d="M12 2.375C6.68426 2.375 2.375 6.68426 2.375 12C2.375 17.3157 6.68426 21.625 12 21.625C17.3157 21.625 21.625 17.3157 21.625 12C21.625 6.68426 17.3157 2.375 12 2.375ZM0.625 12C0.625 5.71776 5.71776 0.625 12 0.625C18.2822 0.625 23.375 5.71776 23.375 12C23.375 18.2822 18.2822 23.375 12 23.375C5.71776 23.375 0.625 18.2822 0.625 12Z" fill="white"/>
<path fill-rule="evenodd" clip-rule="evenodd" d="M6.75 12C6.75 11.5168 7.14175 11.125 7.625 11.125H16.375C16.8582 11.125 17.25 11.5168 17.25 12C17.25 12.4832 16.8582 12.875 16.375 12.875H7.625C7.14175 12.875 6.75 12.4832 6.75 12Z" fill="white"/>
<path fill-rule="evenodd" clip-rule="evenodd" d="M12 6.75C12.4832 6.75 12.875 7.14175 12.875 7.625V16.375C12.875 16.8582 12.4832 17.25 12 17.25C11.5168 17.25 11.125 16.8582 11.125 16.375V7.625C11.125 7.14175 11.5168 6.75 12 6.75Z" fill="white"/>
</svg>
