<svg width="20" height="20" viewBox="0 0 20 20" fill="none" xmlns="http://www.w3.org/2000/svg">
<path d="M10 0.4375C8.10872 0.4375 6.25991 0.998331 4.68736 2.04907C3.11482 3.09981 1.88917 4.59327 1.16541 6.34059C0.441643 8.08791 0.252274 10.0106 0.621245 11.8656C0.990216 13.7205 1.90096 15.4244 3.2383 16.7617C4.57564 18.0991 6.27951 19.0098 8.13445 19.3788C9.9894 19.7477 11.9121 19.5584 13.6594 18.8346C15.4067 18.1108 16.9002 16.8852 17.9509 15.3126C19.0017 13.7401 19.5625 11.8913 19.5625 10C19.5597 7.46474 18.5513 5.03414 16.7586 3.24144C14.9659 1.44874 12.5353 0.440354 10 0.4375ZM10 18.4375C8.33122 18.4375 6.69992 17.9426 5.31238 17.0155C3.92484 16.0884 2.84339 14.7706 2.20477 13.2289C1.56616 11.6871 1.39907 9.99064 1.72463 8.35393C2.05019 6.71721 2.85379 5.21379 4.03379 4.03379C5.2138 2.85378 6.71722 2.05019 8.35393 1.72462C9.99065 1.39906 11.6871 1.56615 13.2289 2.20477C14.7706 2.84338 16.0884 3.92484 17.0155 5.31238C17.9427 6.69992 18.4375 8.33122 18.4375 10C18.435 12.237 17.5452 14.3816 15.9634 15.9634C14.3816 17.5452 12.237 18.435 10 18.4375ZM10.9375 14.875C10.9375 15.0604 10.8825 15.2417 10.7795 15.3958C10.6765 15.55 10.5301 15.6702 10.3588 15.7411C10.1875 15.8121 9.99897 15.8307 9.81711 15.7945C9.63525 15.7583 9.4682 15.669 9.33709 15.5379C9.20598 15.4068 9.11669 15.2398 9.08052 15.0579C9.04434 14.876 9.06291 14.6875 9.13387 14.5162C9.20483 14.3449 9.32499 14.1985 9.47916 14.0955C9.63333 13.9925 9.81458 13.9375 10 13.9375C10.2486 13.9375 10.4871 14.0363 10.6629 14.2121C10.8387 14.3879 10.9375 14.6264 10.9375 14.875ZM13.1875 8.12547C13.1865 8.87306 12.9233 9.59662 12.4436 10.17C11.9639 10.7434 11.2982 11.1303 10.5625 11.2633V11.5005C10.5625 11.6497 10.5032 11.7927 10.3978 11.8982C10.2923 12.0037 10.1492 12.063 10 12.063C9.85082 12.063 9.70775 12.0037 9.60226 11.8982C9.49677 11.7927 9.4375 11.6497 9.4375 11.5005V10.7505C9.4375 10.6013 9.49677 10.4582 9.60226 10.3527C9.70775 10.2472 9.85082 10.188 10 10.188C10.4079 10.188 10.8067 10.067 11.1459 9.84038C11.485 9.61375 11.7494 9.29163 11.9055 8.91475C12.0616 8.53788 12.1025 8.12318 12.0229 7.7231C11.9433 7.32301 11.7469 6.95551 11.4584 6.66706C11.17 6.37862 10.8025 6.18218 10.4024 6.1026C10.0023 6.02302 9.58759 6.06386 9.21072 6.21997C8.83385 6.37607 8.51173 6.64043 8.2851 6.97961C8.05847 7.31878 7.9375 7.71755 7.9375 8.12547C7.9375 8.27465 7.87824 8.41773 7.77275 8.52322C7.66726 8.62871 7.52419 8.68797 7.375 8.68797C7.22582 8.68797 7.08275 8.62871 6.97726 8.52322C6.87177 8.41773 6.8125 8.27465 6.8125 8.12547C6.8125 7.28009 7.14833 6.46934 7.7461 5.87157C8.34387 5.27379 9.15463 4.93797 10 4.93797C10.8454 4.93797 11.6561 5.27379 12.2539 5.87157C12.8517 6.46934 13.1875 7.28009 13.1875 8.12547Z" fill="#909090"/>
</svg>
