<svg width="20" height="20" viewBox="0 0 20 20" fill="none" xmlns="http://www.w3.org/2000/svg">
<path fill-rule="evenodd" clip-rule="evenodd" d="M3.125 9.0625C3.125 5.78331 5.78331 3.125 9.0625 3.125C12.3417 3.125 15 5.78331 15 9.0625C15 12.3417 12.3417 15 9.0625 15C5.78331 15 3.125 12.3417 3.125 9.0625ZM9.0625 1.875C5.09295 1.875 1.875 5.09295 1.875 9.0625C1.875 13.032 5.09295 16.25 9.0625 16.25C10.8221 16.25 12.4341 15.6177 13.6835 14.5679L17.0576 17.942C17.3017 18.1861 17.6974 18.1861 17.9415 17.942C18.1856 17.6979 18.1856 17.3022 17.9415 17.0581L14.5674 13.684C15.6175 12.4345 16.25 10.8224 16.25 9.0625C16.25 5.09295 13.032 1.875 9.0625 1.875Z" fill="#909090"/>
</svg>
