<svg width="16" height="17" viewBox="0 0 16 17" fill="none" xmlns="http://www.w3.org/2000/svg">
<path fill-rule="evenodd" clip-rule="evenodd" d="M1.12451 2.75L14.8745 2.75C15.2197 2.75 15.4995 3.02982 15.4995 3.375C15.4995 3.72018 15.2197 4 14.8745 4L1.12451 4C0.779334 4 0.499512 3.72018 0.499512 3.375C0.499512 3.02983 0.779334 2.75 1.12451 2.75Z" fill="#909090"/>
<path fill-rule="evenodd" clip-rule="evenodd" d="M6.125 6.5C6.47018 6.5 6.75 6.77982 6.75 7.125V12.125C6.75 12.4702 6.47018 12.75 6.125 12.75C5.77982 12.75 5.5 12.4702 5.5 12.125V7.125C5.5 6.77982 5.77982 6.5 6.125 6.5Z" fill="#909090"/>
<path fill-rule="evenodd" clip-rule="evenodd" d="M9.875 6.5C10.2202 6.5 10.5 6.77982 10.5 7.125V12.125C10.5 12.4702 10.2202 12.75 9.875 12.75C9.52982 12.75 9.25 12.4702 9.25 12.125V7.125C9.25 6.77982 9.52982 6.5 9.875 6.5Z" fill="#909090"/>
<path fill-rule="evenodd" clip-rule="evenodd" d="M4.25 0.875C4.25 0.529822 4.52982 0.25 4.875 0.25H11.125C11.4702 0.25 11.75 0.529822 11.75 0.875C11.75 1.22018 11.4702 1.5 11.125 1.5H4.875C4.52982 1.5 4.25 1.22018 4.25 0.875Z" fill="#909090"/>
<path fill-rule="evenodd" clip-rule="evenodd" d="M2.37451 2.75C2.71969 2.75 2.99951 3.02982 2.99951 3.375V15.25H12.9995V3.375C12.9995 3.02983 13.2793 2.75 13.6245 2.75C13.9697 2.75 14.2495 3.02983 14.2495 3.375V15.25C14.2495 15.5815 14.1178 15.8995 13.8834 16.1339C13.649 16.3683 13.331 16.5 12.9995 16.5H2.99951C2.66799 16.5 2.35005 16.3683 2.11563 16.1339C1.88121 15.8995 1.74951 15.5815 1.74951 15.25V3.375C1.74951 3.02982 2.02933 2.75 2.37451 2.75Z" fill="#909090"/>
</svg>
