<svg width="28" height="28" viewBox="0 0 28 28" fill="none" xmlns="http://www.w3.org/2000/svg">
<path fill-rule="evenodd" clip-rule="evenodd" d="M14 10.5C14.4832 10.5 14.875 10.8918 14.875 11.375V15.75C14.875 16.2332 14.4832 16.625 14 16.625C13.5168 16.625 13.125 16.2332 13.125 15.75V11.375C13.125 10.8918 13.5168 10.5 14 10.5Z" fill="#DFA100"/>
<path fill-rule="evenodd" clip-rule="evenodd" d="M12.6888 2.97596C13.0876 2.74603 13.5398 2.625 14.0001 2.625C14.4604 2.625 14.9126 2.74603 15.3113 2.97596C15.7101 3.20589 16.0414 3.53662 16.272 3.93499L15.5212 4.36955L16.272 3.93499L25.8944 20.5592C26.1253 20.9582 26.2471 21.4109 26.2475 21.872C26.2479 22.333 26.1268 22.786 25.8965 23.1854C25.6662 23.5848 25.3348 23.9165 24.9356 24.1471C24.5364 24.3777 24.0835 24.4992 23.6225 24.4992H4.37769C3.91666 24.4992 3.46376 24.3777 3.06456 24.1471C2.66536 23.9165 2.33394 23.5848 2.10365 23.1854C1.87335 22.786 1.75231 22.333 1.75269 21.872C1.75307 21.411 1.87486 20.9582 2.10582 20.5592L11.7282 3.93499L12.4982 4.38069L11.7282 3.93499C11.9588 3.53662 12.2901 3.20589 12.6888 2.97596ZM14.0001 4.375C13.8467 4.375 13.6959 4.41534 13.563 4.49199C13.4301 4.56863 13.3197 4.67887 13.2428 4.81166L3.6204 21.4358L2.86311 20.9975L3.6204 21.4358C3.54341 21.5688 3.50281 21.7198 3.50269 21.8734C3.50256 22.0271 3.54291 22.1781 3.61967 22.3112C3.69644 22.4444 3.80691 22.5549 3.93998 22.6318C4.07305 22.7087 4.22402 22.7492 4.37769 22.7492H23.6225C23.7762 22.7492 23.9271 22.7087 24.0602 22.6318C24.1933 22.5549 24.3037 22.4444 24.3805 22.3112C24.4573 22.1781 24.4976 22.0271 24.4975 21.8734C24.4974 21.7198 24.4568 21.5688 24.3798 21.4358L25.1371 20.9975L24.3798 21.4358L14.7574 4.81166C14.6805 4.67887 14.5701 4.56863 14.4372 4.49199C14.3043 4.41534 14.1535 4.375 14.0001 4.375Z" fill="#DFA100"/>
<path d="M14 21C14.7249 21 15.3125 20.4124 15.3125 19.6875C15.3125 18.9626 14.7249 18.375 14 18.375C13.2751 18.375 12.6875 18.9626 12.6875 19.6875C12.6875 20.4124 13.2751 21 14 21Z" fill="#DFA100"/>
</svg>
