<svg width="18" height="18" viewBox="0 0 18 18" fill="none" xmlns="http://www.w3.org/2000/svg">
<path fill-rule="evenodd" clip-rule="evenodd" d="M9 2.125C5.20304 2.125 2.125 5.20304 2.125 9C2.125 12.797 5.20304 15.875 9 15.875C12.797 15.875 15.875 12.797 15.875 9C15.875 5.20304 12.797 2.125 9 2.125ZM0.875 9C0.875 4.51269 4.51269 0.875 9 0.875C13.4873 0.875 17.125 4.51269 17.125 9C17.125 13.4873 13.4873 17.125 9 17.125C4.51269 17.125 0.875 13.4873 0.875 9ZM11.9419 6.05806C12.186 6.30214 12.186 6.69786 11.9419 6.94194L9.88388 9L11.9419 11.0581C12.186 11.3021 12.186 11.6979 11.9419 11.9419C11.6979 12.186 11.3021 12.186 11.0581 11.9419L9 9.88388L6.94194 11.9419C6.69786 12.186 6.30214 12.186 6.05806 11.9419C5.81398 11.6979 5.81398 11.3021 6.05806 11.0581L8.11612 9L6.05806 6.94194C5.81398 6.69786 5.81398 6.30214 6.05806 6.05806C6.30214 5.81398 6.69786 5.81398 6.94194 6.05806L9 8.11612L11.0581 6.05806C11.3021 5.81398 11.6979 5.81398 11.9419 6.05806Z" fill="#F44437"/>
</svg>
