<svg width="22" height="22" viewBox="0 0 22 22" fill="none" xmlns="http://www.w3.org/2000/svg">
<path fill-rule="evenodd" clip-rule="evenodd" d="M9.31886 7.67797C9.10789 7.53732 8.83664 7.52421 8.6131 7.64385C8.38955 7.76349 8.25 7.99645 8.25 8.25V13.75C8.25 14.0035 8.38955 14.2365 8.6131 14.3562C8.83664 14.4758 9.10789 14.4627 9.31886 14.322L13.4439 11.572C13.6351 11.4445 13.75 11.2299 13.75 11C13.75 10.7701 13.6351 10.5555 13.4439 10.428L9.31886 7.67797ZM11.8231 11L9.625 12.4654V9.53461L11.8231 11Z" fill="white"/>
<path fill-rule="evenodd" clip-rule="evenodd" d="M1.02988 6.36762C1.19568 5.37016 1.91742 4.59866 2.8974 4.34957C4.46828 3.9503 7.22134 3.4375 11 3.4375C14.7787 3.4375 17.5317 3.9503 19.1026 4.34957C20.0826 4.59866 20.8043 5.37016 20.9701 6.36762C21.1415 7.39886 21.3125 8.94299 21.3125 11C21.3125 13.057 21.1415 14.6011 20.9701 15.6324C20.8043 16.6298 20.0826 17.4013 19.1026 17.6504C17.5317 18.0497 14.7787 18.5625 11 18.5625C7.22134 18.5625 4.46828 18.0497 2.8974 17.6504C1.91742 17.4013 1.19568 16.6298 1.02988 15.6324C0.858461 14.6011 0.6875 13.057 0.6875 11C0.6875 8.94299 0.858461 7.39886 1.02988 6.36762ZM18.7639 16.3178C17.2926 16.6918 14.6535 17.1875 11 17.1875C7.34649 17.1875 4.7074 16.6918 3.23612 16.3178C2.77462 16.2005 2.46085 15.8556 2.38627 15.4069C2.22707 14.4492 2.0625 12.9804 2.0625 11C2.0625 9.01956 2.22707 7.55084 2.38627 6.59308C2.46085 6.14441 2.77462 5.7995 3.23612 5.6822C4.7074 5.30824 7.34649 4.8125 11 4.8125C14.6535 4.8125 17.2926 5.30824 18.7639 5.6822C19.2254 5.7995 19.5392 6.14441 19.6137 6.59308C19.7729 7.55084 19.9375 9.01956 19.9375 11C19.9375 12.9804 19.7729 14.4492 19.6137 15.4069C19.5392 15.8556 19.2254 16.2005 18.7639 16.3178Z" fill="white"/>
</svg>
