<svg width="331" height="178" viewBox="0 0 331 178" fill="none" xmlns="http://www.w3.org/2000/svg">
<mask id="mask0_7368_15694" style="mask-type:alpha" maskUnits="userSpaceOnUse" x="0" y="32" width="326" height="146">
<rect y="32" width="326" height="146" rx="10" fill="#0772B6"/>
</mask>
<g mask="url(#mask0_7368_15694)">
<ellipse cx="85" cy="209.5" rx="204" ry="137.5" fill="#2296F3"/>
</g>
<g clip-path="url(#clip0_7368_15694)">
<path d="M112.244 7.04185C112.244 7.04185 107.659 -1.09902 93.9044 0.936198C80.1499 2.97141 67.4143 11.1123 62.8294 25.8676C58.2446 40.6229 48.5655 63.0103 53.6598 73.6952C58.754 84.3801 65.3766 88.9593 80.6593 84.8889C95.9421 80.8184 108.168 83.3624 112.244 85.9065C116.319 88.4505 124.47 90.9945 131.093 88.4505C137.715 85.9065 146.375 72.6776 142.3 53.8518C138.224 35.0261 131.602 3.48022 112.244 7.04185Z" fill="#00446B"/>
<path d="M18 177.491V142.384C18 142.384 23.6037 109.311 65.3767 102.188C65.3767 102.188 71.9024 87.499 83.1607 84.6701C94.419 81.8411 120.395 82.3448 123.961 101.679C123.961 101.679 147.394 101.171 162.168 129.664C176.941 158.157 174.903 178 174.903 178C174.903 178 17.6689 177.16 18 177.491Z" fill="#03D4B4"/>
<path d="M75.5 97.5002C77.5 89.9002 81.6667 83.0002 83.5 80.5002C87 73.5002 97.5001 65.2002 111.5 88.0002C125.5 110.8 117.333 143.834 111.5 157.5H103H95.5001L88.0001 154C87.5001 150.5 86.5001 142.6 86.5001 139C86.5001 134.5 79 127 75.5 120.5C72 114 73 107 75.5 97.5002Z" fill="#E9F5FE"/>
<path d="M89.829 176.982C89.3196 176.474 107.659 123.049 107.659 123.049C107.659 123.049 109.697 115.417 118.357 115.926C127.017 116.435 158.092 115.926 158.092 115.926C158.092 115.926 166.243 115.926 162.677 125.084C159.111 134.243 143.828 177.491 143.828 177.491L89.829 176.982Z" fill="#909090"/>
<path d="M114.281 19.7619C114.312 19.2531 122.942 23.8324 124.47 30.9556C125.998 38.0789 123.961 39.0965 125.998 47.7462C128.036 56.3958 126.508 76.2392 111.734 81.836V91.5033C111.734 91.5033 107.659 103.715 95.9421 102.188C84.2253 100.662 79.1311 90.9945 79.1311 90.9945L80.1499 73.6952C80.1499 73.6952 75.0556 69.6247 74.0368 56.9046C73.0179 44.1845 79.6405 31.9732 88.8102 29.4292C97.9798 26.8852 113.772 28.9204 114.281 19.7619Z" fill="#F3F5F4"/>
<path d="M84.2253 157.139C84.2253 157.139 91.8667 175.965 96.961 176.982C102.055 178 113.263 171.894 117.338 168.333C121.413 164.771 127.017 159.683 122.942 156.63C122.942 156.63 127.017 151.033 124.979 150.016C122.942 148.998 121.413 150.525 119.376 152.56C117.338 154.595 113.772 155.613 114.791 153.577C115.81 151.542 122.432 147.472 122.432 144.928C122.432 142.384 120.395 140.857 118.357 142.893C116.319 144.928 111.225 151.033 109.697 150.016C108.168 148.998 110.715 146.454 112.753 144.419C114.791 142.384 116.829 138.822 113.772 137.804C111.306 136.985 109.977 140.069 108.678 141.366C107.15 142.893 97.9798 150.016 97.9798 150.016L101.546 140.349C101.546 140.349 97.4704 139.331 95.4327 141.875C93.395 144.419 84.2253 152.051 84.2253 157.139Z" fill="#F3F5F4"/>
<path d="M145.866 170.877C145.866 170.877 151.979 174.438 158.602 172.912C165.224 171.386 169.238 166.903 167.231 161.515C165.224 156.127 159.111 147.981 159.111 147.981L157.42 139.331L145.866 170.877Z" fill="white"/>
<path d="M142.483 144.419H134.842C133.436 144.419 132.708 143.279 133.222 141.875L137.114 131.19C137.393 130.481 137.868 129.866 138.483 129.416C139.098 128.966 139.828 128.699 140.588 128.646H148.23C149.636 128.646 150.364 129.786 149.85 131.19L145.958 141.875C145.678 142.584 145.204 143.199 144.589 143.649C143.974 144.099 143.244 144.366 142.483 144.419Z" fill="white"/>
<path d="M150.838 114.674C150.763 114.674 150.689 114.657 150.621 114.624C150.553 114.592 150.493 114.544 150.446 114.486C141.398 103.358 124.608 102.188 124.44 102.188C124.373 102.184 124.307 102.167 124.247 102.138C124.186 102.109 124.132 102.068 124.088 102.018C124.044 101.968 124.009 101.909 123.988 101.846C123.966 101.783 123.957 101.716 123.961 101.649C123.965 101.582 123.982 101.517 124.011 101.456C124.04 101.396 124.081 101.342 124.131 101.298C124.181 101.253 124.24 101.219 124.303 101.197C124.367 101.176 124.434 101.166 124.501 101.171C124.674 101.171 141.913 102.371 151.235 113.845C151.296 113.92 151.334 114.01 151.346 114.106C151.357 114.201 151.341 114.298 151.299 114.385C151.258 114.472 151.192 114.545 151.111 114.596C151.029 114.648 150.934 114.675 150.838 114.674Z" fill="#04446C" style="mix-blend-mode:darken"/>
<path d="M96.1971 48.2552C97.1818 48.2552 97.98 47.344 97.98 46.22C97.98 45.096 97.1818 44.1848 96.1971 44.1848C95.2123 44.1848 94.4141 45.096 94.4141 46.22C94.4141 47.344 95.2123 48.2552 96.1971 48.2552Z" fill="#04446C" style="mix-blend-mode:darken"/>
<path d="M115.555 48.2552C116.54 48.2552 117.338 47.344 117.338 46.22C117.338 45.096 116.54 44.1848 115.555 44.1848C114.57 44.1848 113.772 45.096 113.772 46.22C113.772 47.344 114.57 48.2552 115.555 48.2552Z" fill="#04446C" style="mix-blend-mode:darken"/>
<path d="M109.697 57.9221C109.603 57.9218 109.51 57.8955 109.43 57.8461C109.35 57.7967 109.286 57.7261 109.243 57.6422C109.183 57.5221 109.173 57.3829 109.215 57.2551C109.257 57.1274 109.347 57.0214 109.467 56.9604C109.936 56.7213 111.291 55.8614 111.342 55.0168C111.368 54.6047 111.062 54.1824 110.435 53.7651C109.009 52.8188 108.398 50.2697 108.55 46.1992C108.64 44.2964 108.853 42.4014 109.187 40.5261C109.213 40.3939 109.29 40.2774 109.402 40.2021C109.514 40.1268 109.651 40.0987 109.783 40.1241C109.916 40.15 110.032 40.2271 110.108 40.3387C110.183 40.4503 110.211 40.5872 110.186 40.7194C109.641 43.5992 108.713 51.4043 110.986 52.9307C111.938 53.5616 112.397 54.2892 112.346 55.0931C112.249 56.6704 110.155 57.7593 109.916 57.8763C109.847 57.9088 109.772 57.9245 109.697 57.9221Z" fill="#04446C" style="mix-blend-mode:darken"/>
<path d="M106.64 66.9482C106.492 66.9482 106.34 66.9482 106.192 66.9482C101.571 66.7141 98.2703 63.005 98.1327 62.8472C98.0504 62.7451 98.0107 62.6152 98.0219 62.4846C98.0331 62.354 98.0944 62.2327 98.1929 62.1461C98.2914 62.0595 98.4197 62.0142 98.5508 62.0197C98.682 62.0252 98.8059 62.0811 98.8968 62.1756C98.9274 62.2112 102.065 65.7372 106.248 65.9306C108.591 66.0476 110.833 65.1165 112.942 63.1576C113.042 63.0764 113.169 63.0363 113.298 63.0452C113.427 63.0542 113.547 63.1117 113.635 63.206C113.723 63.3003 113.772 63.4245 113.772 63.5534C113.772 63.6823 113.723 63.8063 113.635 63.9005C111.429 65.9204 109.08 66.9482 106.64 66.9482Z" fill="#04446C" style="mix-blend-mode:darken"/>
<path d="M90.3384 42.1494C90.2383 42.1506 90.1403 42.1203 90.0582 42.0629C89.9466 41.9883 89.8689 41.8727 89.8422 41.7412C89.8155 41.6097 89.8419 41.4729 89.9156 41.3608C89.9462 41.3099 93.2829 36.4356 98.7185 39.1526C98.8287 39.2188 98.9097 39.3242 98.9454 39.4477C98.981 39.5711 98.9685 39.7035 98.9105 39.8181C98.8524 39.9328 98.7531 40.0212 98.6325 40.0658C98.5118 40.1103 98.3787 40.1076 98.26 40.0582C93.6191 37.7432 90.8784 41.7526 90.7613 41.9205C90.7151 41.9904 90.6524 42.048 90.5786 42.0879C90.5048 42.1279 90.4223 42.149 90.3384 42.1494Z" fill="#04446C" style="mix-blend-mode:darken"/>
<path d="M109.697 41.1318C109.596 41.133 109.498 41.1027 109.416 41.0454C109.305 40.9707 109.227 40.8551 109.2 40.7236C109.174 40.5921 109.2 40.4554 109.274 40.3432C109.304 40.2923 112.641 35.418 118.077 38.135C118.187 38.2012 118.268 38.3067 118.304 38.4301C118.339 38.5536 118.327 38.6859 118.269 38.8005C118.211 38.9152 118.111 39.0037 117.991 39.0482C117.87 39.0927 117.737 39.09 117.618 39.0407C112.977 36.7256 110.237 40.735 110.119 40.9029C110.073 40.9729 110.011 41.0304 109.937 41.0703C109.863 41.1103 109.78 41.1314 109.697 41.1318Z" fill="#04446C" style="mix-blend-mode:darken"/>
<path d="M102.142 84.7769C91.1331 84.7769 83.4204 75.6642 83.3236 75.5472C83.2808 75.4958 83.2486 75.4364 83.2287 75.3725C83.2089 75.3086 83.2018 75.2414 83.208 75.1748C83.2141 75.1082 83.2333 75.0434 83.2645 74.9842C83.2958 74.925 83.3383 74.8726 83.3898 74.8298C83.4414 74.787 83.5008 74.7548 83.5648 74.735C83.6287 74.7152 83.696 74.7081 83.7627 74.7143C83.8294 74.7204 83.8942 74.7396 83.9535 74.7708C84.0128 74.802 84.0653 74.8445 84.1081 74.8959C84.2304 75.0435 96.263 89.2391 111.5 81.3832C111.62 81.3211 111.76 81.3093 111.889 81.3503C112.018 81.3913 112.126 81.4819 112.188 81.602C112.25 81.7221 112.262 81.8619 112.221 81.9907C112.18 82.1195 112.089 82.2268 111.969 82.2889C108.942 83.8985 105.571 84.7522 102.142 84.7769Z" fill="#04446C" style="mix-blend-mode:darken"/>
<path d="M29.2075 169.859C29.0865 169.859 28.9695 169.815 28.8775 169.737C28.7855 169.658 28.7245 169.55 28.7055 169.43C28.6865 169.311 28.7107 169.188 28.7738 169.085C28.8368 168.982 28.9346 168.905 29.0496 168.867C30.8173 168.287 72.5444 154.595 82.6972 154.595C82.8323 154.595 82.9619 154.649 83.0574 154.744C83.153 154.839 83.2067 154.969 83.2067 155.104C83.2067 155.239 83.153 155.368 83.0574 155.464C82.9619 155.559 82.8323 155.613 82.6972 155.613C72.7074 155.613 29.7984 169.691 29.3654 169.859C29.313 169.866 29.2599 169.866 29.2075 169.859Z" fill="#04446C" style="mix-blend-mode:darken"/>
<path d="M57.4857 161.494H57.45C57.3831 161.49 57.3177 161.472 57.2576 161.442C57.1975 161.412 57.1439 161.371 57.0999 161.32C57.0558 161.27 57.0223 161.211 57.001 161.148C56.9798 161.084 56.9714 161.017 56.9763 160.95C58.2447 142.857 42.7582 127.12 42.6003 126.972C42.5528 126.925 42.5151 126.868 42.4894 126.806C42.4637 126.744 42.4504 126.678 42.4504 126.611C42.4504 126.544 42.4637 126.477 42.4894 126.415C42.5151 126.353 42.5528 126.297 42.6003 126.249C42.6478 126.202 42.7041 126.164 42.7662 126.139C42.8283 126.113 42.8948 126.1 42.962 126.1C43.0291 126.1 43.0956 126.113 43.1577 126.139C43.2198 126.164 43.2761 126.202 43.3236 126.249C43.4816 126.412 59.2687 142.46 57.99 161.021C57.981 161.149 57.9241 161.269 57.8306 161.356C57.7371 161.444 57.614 161.493 57.4857 161.494Z" fill="#04446C" style="mix-blend-mode:darken"/>
<path d="M129.564 115.926C129.429 115.926 129.3 115.872 129.204 115.777C129.109 115.681 129.055 115.552 129.055 115.417C129.081 113.765 128.749 112.128 128.081 110.617C127.412 109.106 126.424 107.758 125.183 106.666C125.13 106.625 125.085 106.575 125.051 106.518C125.016 106.46 124.994 106.397 124.985 106.33C124.966 106.197 125 106.061 125.081 105.953C125.162 105.845 125.283 105.774 125.417 105.755C125.551 105.736 125.686 105.771 125.795 105.851C125.968 105.984 130.074 109.128 130.074 115.417C130.074 115.552 130.02 115.681 129.925 115.777C129.829 115.872 129.699 115.926 129.564 115.926Z" fill="#04446C" style="mix-blend-mode:darken"/>
<path d="M172.865 177.491H172.83C172.763 177.487 172.697 177.469 172.637 177.439C172.577 177.409 172.524 177.368 172.48 177.317C172.436 177.267 172.402 177.208 172.381 177.144C172.36 177.081 172.351 177.013 172.356 176.947C172.865 169.778 168.708 163.881 167.919 163.097C167.823 163.001 167.769 162.871 167.769 162.736C167.769 162.6 167.823 162.47 167.919 162.374C168.015 162.279 168.145 162.225 168.281 162.225C168.416 162.225 168.546 162.279 168.642 162.374C169.478 163.214 173.915 169.472 173.375 177.018C173.366 177.147 173.308 177.267 173.214 177.355C173.119 177.443 172.995 177.491 172.865 177.491Z" fill="#04446C" style="mix-blend-mode:darken"/>
<path d="M20.0378 136.99H19.9512C19.8844 136.98 19.8203 136.956 19.7627 136.921C19.7052 136.885 19.6552 136.839 19.6159 136.784C19.5765 136.729 19.5485 136.667 19.5335 136.601C19.5185 136.535 19.5167 136.467 19.5284 136.4C19.6048 135.942 21.5661 125.038 35.6364 114.287C35.745 114.211 35.8794 114.179 36.0107 114.2C36.1421 114.221 36.2601 114.293 36.3394 114.399C36.3809 114.452 36.4114 114.513 36.4293 114.578C36.4471 114.643 36.4519 114.71 36.4434 114.777C36.4349 114.844 36.4132 114.908 36.3796 114.967C36.346 115.025 36.3012 115.076 36.2477 115.117C29.0801 120.576 25.1881 126.102 23.186 129.811C21.021 133.805 20.5472 136.537 20.5472 136.563C20.5277 136.683 20.4655 136.793 20.372 136.871C20.2785 136.95 20.1599 136.992 20.0378 136.99Z" fill="#04446C" style="mix-blend-mode:darken"/>
<path d="M158.602 135.769C158.522 135.77 158.443 135.751 158.372 135.713C158.252 135.652 158.162 135.546 158.12 135.419C158.078 135.291 158.088 135.152 158.148 135.032C158.179 134.96 161.714 127.908 163.029 122.408C163.215 121.804 163.27 121.167 163.19 120.539C163.11 119.912 162.897 119.309 162.565 118.77C161.388 117.015 158.999 116.526 158.658 116.465L116.829 116.435C116.694 116.435 116.564 116.381 116.469 116.286C116.373 116.19 116.319 116.061 116.319 115.926C116.319 115.791 116.373 115.662 116.469 115.566C116.564 115.471 116.694 115.417 116.829 115.417L158.704 115.448H158.78C158.907 115.448 161.908 115.957 163.411 118.19C163.823 118.845 164.091 119.581 164.197 120.348C164.302 121.115 164.242 121.895 164.022 122.637C162.667 128.234 159.091 135.408 159.055 135.479C159.014 135.565 158.95 135.638 158.87 135.689C158.79 135.74 158.697 135.768 158.602 135.769Z" fill="#04446C" style="mix-blend-mode:darken"/>
<path d="M98.4486 150.062C98.3913 150.061 98.3344 150.051 98.2805 150.031C98.1538 149.986 98.0501 149.893 97.9919 149.772C97.9337 149.651 97.9257 149.512 97.9698 149.385L106.365 125.318C106.381 125.249 106.412 125.184 106.455 125.127C106.498 125.07 106.553 125.023 106.615 124.988C106.677 124.954 106.746 124.933 106.818 124.927C106.889 124.921 106.96 124.93 107.028 124.953C107.095 124.976 107.157 125.013 107.209 125.062C107.261 125.111 107.303 125.17 107.33 125.235C107.358 125.301 107.372 125.372 107.371 125.443C107.369 125.514 107.353 125.585 107.323 125.649L98.9326 149.721C98.8976 149.821 98.8321 149.907 98.7453 149.969C98.6585 150.03 98.5548 150.062 98.4486 150.062Z" fill="#04446C" style="mix-blend-mode:darken"/>
<path d="M114.282 17.7267H114.231C114.097 17.7126 113.975 17.6464 113.89 17.5425C113.805 17.4387 113.764 17.3056 113.777 17.1721C113.777 17.0958 114.511 9.59603 109.702 4.8845C106.406 1.6536 101.276 0.437554 94.475 1.28217C94.4081 1.29052 94.3402 1.28564 94.2752 1.26778C94.2102 1.24993 94.1494 1.21946 94.0962 1.17812C94.0429 1.13678 93.9984 1.08537 93.9651 1.02683C93.9317 0.9683 93.9103 0.903782 93.9019 0.836965C93.8936 0.770148 93.8984 0.702341 93.9163 0.637414C93.9342 0.572487 93.9647 0.511713 94.0061 0.458561C94.0475 0.405408 94.099 0.360919 94.1576 0.327633C94.2162 0.294347 94.2808 0.272913 94.3477 0.264561C101.48 -0.61567 106.89 0.691958 110.425 4.162C115.575 9.21951 114.816 16.9432 114.781 17.2739C114.767 17.3972 114.709 17.5112 114.617 17.5946C114.525 17.678 114.406 17.725 114.282 17.7267Z" fill="white"/>
<path d="M115.3 83.3626C115.214 83.3628 115.129 83.3409 115.053 83.2991C114.977 83.2572 114.913 83.1968 114.867 83.1235C114.832 83.0667 114.808 83.0035 114.797 82.9375C114.786 82.8714 114.788 82.8038 114.803 82.7386C114.818 82.6734 114.846 82.6118 114.885 82.5573C114.924 82.5029 114.973 82.4567 115.03 82.4213C124.44 76.5497 128.194 64.5369 125.606 48.596C125.55 48.3154 125.511 48.0316 125.489 47.7463C125.489 47.6114 125.543 47.482 125.638 47.3866C125.734 47.2911 125.863 47.2375 125.998 47.2375C126.133 47.2375 126.263 47.2911 126.359 47.3866C126.454 47.482 126.508 47.6114 126.508 47.7463C126.508 47.8227 126.559 48.1229 126.61 48.4383C129.269 64.8116 125.346 77.1857 115.57 83.2914C115.489 83.3398 115.395 83.3644 115.3 83.3626Z" fill="#04446C" style="mix-blend-mode:darken"/>
<path d="M174.394 171.386C174.259 171.386 174.129 171.332 174.034 171.237C173.938 171.141 173.884 171.012 173.884 170.877C174.394 151.415 163.304 133.704 163.186 133.525C163.151 133.469 163.126 133.406 163.115 133.34C163.103 133.274 163.105 133.207 163.12 133.142C163.134 133.077 163.162 133.015 163.2 132.96C163.239 132.906 163.288 132.859 163.344 132.823C163.401 132.788 163.464 132.763 163.53 132.752C163.596 132.74 163.663 132.742 163.729 132.757C163.794 132.771 163.856 132.799 163.91 132.837C163.965 132.876 164.012 132.925 164.047 132.981C164.165 133.164 175.408 151.135 174.898 170.907C174.89 171.036 174.834 171.157 174.74 171.246C174.647 171.335 174.523 171.384 174.394 171.386Z" fill="#04446C" style="mix-blend-mode:darken"/>
<path d="M97.9798 177.018C91.2147 177.018 84.5106 159.113 84.2253 158.33C84.1787 158.203 84.1845 158.063 84.2413 157.94C84.2982 157.818 84.4014 157.723 84.5284 157.676C84.6554 157.629 84.7958 157.635 84.9185 157.692C85.0413 157.749 85.1364 157.852 85.183 157.979C87.1342 163.25 93.3084 176.748 98.4027 175.97C98.4696 175.96 98.5378 175.963 98.6034 175.98C98.6691 175.996 98.7309 176.025 98.7853 176.065C98.8397 176.105 98.8856 176.156 98.9205 176.214C98.9553 176.271 98.9785 176.336 98.9885 176.402C98.9985 176.469 98.9953 176.537 98.979 176.603C98.9626 176.669 98.9335 176.73 98.8933 176.785C98.8531 176.839 98.8026 176.885 98.7446 176.92C98.6866 176.955 98.6224 176.978 98.5555 176.988C98.3647 177.013 98.1722 177.024 97.9798 177.018Z" fill="#04446C" style="mix-blend-mode:darken"/>
<path d="M114.282 163.754C114.175 163.754 114.071 163.721 113.984 163.658C113.897 163.596 113.832 163.509 113.798 163.408C113.776 163.344 113.767 163.277 113.772 163.21C113.776 163.143 113.794 163.078 113.824 163.018C113.853 162.958 113.895 162.904 113.945 162.86C113.996 162.816 114.055 162.783 114.118 162.761C118.469 161.316 121.454 156.417 121.485 156.371C121.514 156.306 121.557 156.248 121.61 156.201C121.663 156.153 121.726 156.117 121.794 156.096C121.862 156.074 121.933 156.067 122.004 156.075C122.075 156.082 122.143 156.105 122.205 156.14C122.267 156.176 122.32 156.225 122.362 156.282C122.404 156.34 122.433 156.406 122.447 156.475C122.462 156.545 122.462 156.617 122.447 156.687C122.432 156.756 122.403 156.822 122.361 156.88C122.229 157.098 119.152 162.151 114.445 163.718C114.392 163.737 114.337 163.749 114.282 163.754Z" fill="#04446C" style="mix-blend-mode:darken"/>
<path d="M95.876 151.436C95.4356 151.426 95.0017 151.328 94.6006 151.146C94.1996 150.964 93.8397 150.702 93.5429 150.377C93.447 150.281 93.3931 150.151 93.3931 150.016C93.3931 149.881 93.447 149.751 93.5429 149.655C93.6388 149.559 93.7689 149.505 93.9046 149.505C94.0402 149.505 94.1703 149.559 94.2663 149.655C95.8811 151.273 97.4502 149.823 97.6234 149.655C97.7193 149.56 97.8491 149.506 97.9843 149.507C98.1195 149.507 98.249 149.561 98.3442 149.657C98.4395 149.753 98.4927 149.883 98.4922 150.018C98.4918 150.153 98.4376 150.282 98.3417 150.377C97.6837 151.029 96.8025 151.408 95.876 151.436Z" fill="#04446C" style="mix-blend-mode:darken"/>
<path d="M159.396 173.37C159.261 173.376 159.129 173.329 159.029 173.239C158.928 173.148 158.868 173.021 158.861 172.886C158.855 172.751 158.902 172.619 158.993 172.519C159.083 172.419 159.21 172.359 159.345 172.352C160.514 172.213 161.642 171.839 162.661 171.252C163.68 170.665 164.569 169.878 165.275 168.938C166.752 167.04 167.471 164.735 167.196 162.771C166.635 158.843 159.371 149.11 159.3 149.034C159.259 148.98 159.23 148.919 159.214 148.855C159.197 148.79 159.193 148.722 159.203 148.656C159.212 148.59 159.235 148.527 159.269 148.469C159.303 148.412 159.348 148.361 159.401 148.321C159.455 148.281 159.516 148.252 159.581 148.235C159.645 148.219 159.713 148.215 159.779 148.225C159.845 148.234 159.909 148.256 159.967 148.29C160.024 148.325 160.075 148.37 160.115 148.423C160.42 148.83 167.608 158.462 168.204 162.67C168.52 164.903 167.725 167.493 166.075 169.605C165.286 170.653 164.292 171.53 163.154 172.183C162.015 172.836 160.756 173.252 159.452 173.405L159.396 173.37Z" fill="#04446C" style="mix-blend-mode:darken"/>
<path d="M143.828 178C143.771 177.999 143.714 177.989 143.66 177.969C143.533 177.924 143.43 177.831 143.372 177.71C143.313 177.589 143.305 177.45 143.349 177.323L156.085 140.689C156.138 140.573 156.232 140.481 156.349 140.431C156.466 140.381 156.598 140.376 156.718 140.419C156.838 140.461 156.938 140.546 156.999 140.659C157.059 140.771 157.074 140.902 157.043 141.025L144.307 177.659C144.272 177.758 144.208 177.844 144.122 177.905C144.036 177.966 143.934 177.999 143.828 178Z" fill="#04446C" style="mix-blend-mode:darken"/>
<path d="M72.6564 86.5881C65.2086 86.5881 59.5947 84.2985 55.9625 79.7803C50.3588 72.8046 50.9294 62.0485 52.1469 56.7925C52.9875 53.1342 55.1729 46.8454 57.7048 39.5644C59.7068 33.8048 61.9738 27.2768 63.7567 21.4663C67.7506 8.45617 82.198 3.83623 82.3457 3.79043C82.4102 3.76833 82.4785 3.75939 82.5466 3.76415C82.6147 3.76892 82.6811 3.78728 82.7419 3.81817C82.8027 3.84905 82.8567 3.89182 82.9006 3.94393C82.9446 3.99604 82.9776 4.05644 82.9977 4.12154C83.0178 4.18664 83.0247 4.25513 83.0178 4.32292C83.011 4.39071 82.9905 4.45643 82.9577 4.51619C82.925 4.57594 82.8805 4.62852 82.827 4.67079C82.7735 4.71306 82.712 4.74416 82.6463 4.76225C82.5036 4.80296 68.5657 9.27534 64.7297 21.7665C62.9417 27.5974 60.6543 34.1304 58.6676 39.9003C56.1205 47.1507 53.9707 53.4141 53.1352 57.0164C51.9635 62.1045 51.4083 72.4688 56.7572 79.1443C60.1857 83.4081 65.5346 85.5705 72.6615 85.5705H72.9264C73.0615 85.5705 73.1911 85.6241 73.2866 85.7195C73.3822 85.815 73.4358 85.9444 73.4358 86.0793C73.4358 86.2142 73.3822 86.3437 73.2866 86.4391C73.1911 86.5345 73.0615 86.5881 72.9264 86.5881H72.6564Z" fill="white"/>
<path d="M125.653 90.2365C123.772 90.221 121.901 89.9628 120.085 89.4682C119.954 89.4332 119.843 89.3475 119.775 89.2301C119.707 89.1128 119.689 88.9733 119.724 88.8424C119.759 88.7115 119.845 88.5999 119.962 88.5322C120.08 88.4644 120.219 88.4461 120.35 88.4812C126.036 90.0076 130.88 89.1833 134.737 86.0745C141.512 80.6201 144.156 68.6683 143.743 59.8762C143.183 47.7819 134.253 24.2599 134.166 24.0208C134.129 23.8979 134.139 23.7655 134.195 23.65C134.252 23.5346 134.35 23.4447 134.469 23.3983C134.589 23.352 134.722 23.3526 134.842 23.4001C134.961 23.4476 135.058 23.5385 135.114 23.6544C135.205 23.8936 144.191 47.5682 144.762 59.8304C144.954 64.6835 144.368 69.5361 143.025 74.2041C141.385 79.801 138.741 84.1716 135.384 86.8835C132.634 89.1053 129.19 90.292 125.653 90.2365Z" fill="white"/>
<path d="M75.5652 78.7832C75.4488 78.7866 75.3348 78.75 75.2421 78.6797C75.1494 78.6093 75.0836 78.5094 75.0557 78.3965C72.422 67.8744 70.4709 52.7782 76.2376 40.6585C79.7017 33.3521 84.2713 30.63 84.4648 30.518C84.5798 30.4662 84.7099 30.4587 84.83 30.4971C84.9501 30.5355 85.0517 30.6171 85.115 30.726C85.1784 30.8348 85.1991 30.9634 85.1731 31.0866C85.1471 31.2099 85.0763 31.3191 84.9743 31.3932C84.9284 31.4237 80.4404 34.1102 77.1138 41.1673C71.5407 53.0072 73.451 67.8134 76.0389 78.1523C76.0713 78.2832 76.0502 78.4215 75.9805 78.5369C75.9108 78.6524 75.7981 78.7354 75.6671 78.7679L75.5652 78.7832Z" fill="#04446C" style="mix-blend-mode:darken"/>
<path d="M142.483 144.928H134.842C134.473 144.945 134.106 144.872 133.773 144.714C133.44 144.556 133.151 144.318 132.932 144.022C132.714 143.68 132.583 143.289 132.55 142.885C132.517 142.481 132.584 142.075 132.743 141.702L136.635 131.017C136.948 130.208 137.487 129.507 138.188 128.996C138.889 128.486 139.722 128.187 140.588 128.137H148.23C148.598 128.119 148.965 128.193 149.298 128.351C149.632 128.509 149.921 128.746 150.14 129.043C150.358 129.385 150.488 129.775 150.521 130.18C150.554 130.584 150.488 130.99 150.328 131.363L146.436 142.048C146.123 142.856 145.584 143.556 144.883 144.067C144.182 144.577 143.349 144.876 142.483 144.928ZM140.588 129.155C139.934 129.211 139.308 129.448 138.779 129.837C138.25 130.227 137.84 130.755 137.593 131.363L133.701 142.048C133.601 142.268 133.555 142.509 133.566 142.75C133.578 142.992 133.647 143.227 133.767 143.437C133.894 143.597 134.058 143.724 134.246 143.806C134.433 143.889 134.638 143.924 134.842 143.91H142.483C143.138 143.853 143.764 143.617 144.292 143.227C144.821 142.838 145.232 142.31 145.479 141.702L149.371 131.017C149.471 130.797 149.517 130.556 149.505 130.314C149.494 130.073 149.425 129.838 149.304 129.628C149.177 129.468 149.013 129.341 148.826 129.258C148.638 129.176 148.434 129.14 148.23 129.155H140.588Z" fill="#04446C" style="mix-blend-mode:darken"/>
<path d="M157.97 126.687C157.924 126.692 157.878 126.692 157.832 126.687C157.768 126.669 157.707 126.638 157.655 126.597C157.602 126.555 157.558 126.504 157.525 126.445C157.492 126.386 157.472 126.322 157.464 126.255C157.457 126.188 157.462 126.121 157.481 126.056C158.046 124.098 158.408 122.698 158.556 121.905C158.623 121.673 158.638 121.43 158.599 121.192C158.56 120.955 158.469 120.729 158.332 120.531C157.969 120.185 157.488 119.992 156.987 119.991C156.852 119.991 156.722 119.938 156.627 119.842C156.531 119.747 156.477 119.618 156.477 119.483C156.477 119.348 156.531 119.218 156.627 119.123C156.722 119.027 156.852 118.974 156.987 118.974C157.383 118.975 157.776 119.054 158.142 119.208C158.507 119.362 158.838 119.586 159.116 119.869C159.357 120.181 159.523 120.543 159.602 120.928C159.681 121.314 159.669 121.712 159.57 122.093C159.417 122.917 159.06 124.347 158.474 126.336C158.44 126.442 158.372 126.533 158.281 126.596C158.19 126.66 158.081 126.692 157.97 126.687Z" fill="#04446C" style="mix-blend-mode:darken"/>
<path d="M106.64 139.84C106.583 139.839 106.527 139.83 106.472 139.814C106.409 139.792 106.35 139.758 106.301 139.713C106.251 139.668 106.21 139.614 106.181 139.553C106.152 139.493 106.136 139.427 106.132 139.36C106.129 139.293 106.139 139.226 106.161 139.163L110.746 125.934C110.96 125.237 112.983 118.979 116.319 118.979H129.055C129.19 118.979 129.32 119.032 129.415 119.128C129.511 119.223 129.564 119.353 129.564 119.488C129.564 119.622 129.511 119.752 129.415 119.847C129.32 119.943 129.19 119.996 129.055 119.996H116.319C114.119 119.996 112.244 124.515 111.734 126.25L107.15 139.478C107.117 139.587 107.049 139.681 106.957 139.746C106.865 139.812 106.753 139.845 106.64 139.84Z" fill="#04446C" style="mix-blend-mode:darken"/>
<path d="M142.361 138.822C142.036 138.825 141.715 138.752 141.424 138.608C141.132 138.464 140.879 138.253 140.685 137.993C140.069 137.194 139.921 135.957 140.278 134.619C140.874 132.411 142.626 130.681 144.277 130.681C144.602 130.678 144.923 130.751 145.214 130.895C145.505 131.039 145.758 131.25 145.953 131.51C146.569 132.309 146.717 133.546 146.36 134.884C145.764 137.092 144.012 138.822 142.361 138.822ZM144.277 131.699C143.105 131.699 141.729 133.159 141.266 134.884C141.119 135.291 141.064 135.724 141.102 136.155C141.141 136.586 141.273 137.003 141.49 137.377C141.59 137.513 141.722 137.623 141.873 137.697C142.025 137.772 142.192 137.808 142.361 137.804C143.533 137.804 144.908 136.344 145.372 134.619C145.518 134.212 145.574 133.778 145.536 133.348C145.497 132.917 145.364 132.5 145.148 132.126C145.048 131.99 144.916 131.88 144.765 131.806C144.613 131.731 144.446 131.695 144.277 131.699Z" fill="#04446C" style="mix-blend-mode:darken"/>
<path d="M75.5001 93C73.8334 100 71.5001 115.4 75.5001 121C80.5001 128 87.0001 138 87.5001 144.5" stroke="#04446C" stroke-linecap="round" style="mix-blend-mode:darken"/>
<path d="M63.9999 106.5C60.1666 110.833 52.6999 120.1 53.4999 122.5C54.4999 125.5 69 124 66.4999 130.5C63.9999 137 65.4999 146.5 73.4999 154" stroke="#04446C" stroke-linecap="round" style="mix-blend-mode:darken"/>
<path fill-rule="evenodd" clip-rule="evenodd" d="M80.5498 73.5025C80.8245 73.53 81.025 73.775 80.9975 74.0498L79.5114 88.9108C80.262 90.4734 81.593 92.8501 83.2143 95.04C84.8944 97.3091 86.8242 99.2912 88.6857 100.036C92.6248 101.611 96.2282 102 97.5 102C97.7647 102 97.9836 102.206 97.9991 102.471L99.4991 127.971C99.5154 128.246 99.305 128.483 99.0294 128.499C98.7537 128.515 98.5171 128.305 98.5009 128.029L97.0278 102.988C95.3754 102.908 91.9797 102.43 88.3143 100.964C86.1758 100.109 84.1056 97.9242 82.4107 95.635C80.7008 93.3257 79.3097 90.8218 78.5481 89.2141C78.5092 89.1319 78.4934 89.0407 78.5025 88.9503L80.0025 73.9503C80.03 73.6755 80.275 73.475 80.5498 73.5025ZM112.158 90.5257C112.42 90.613 112.562 90.8962 112.474 91.1581C112.04 92.4601 111.064 94.5102 109.533 96.4931C108.002 98.4763 105.892 100.423 103.179 101.467C102.922 101.566 102.632 101.437 102.533 101.179C102.434 100.922 102.563 100.632 102.821 100.533C105.308 99.5765 107.281 97.7737 108.742 95.882C110.203 93.9899 111.126 92.0399 111.526 90.8419C111.613 90.5799 111.896 90.4383 112.158 90.5257Z" fill="#04446C" style="mix-blend-mode:darken"/>
</g>
<path d="M320.471 160.997H260.832C260.076 161.003 259.327 160.85 258.634 160.548C257.94 160.246 257.317 159.801 256.805 159.243C256.265 158.646 255.856 157.942 255.605 157.176C255.353 156.41 255.265 155.6 255.346 154.798L259.408 106.719C259.693 103.349 262.581 100.608 265.846 100.608H325.484C326.24 100.602 326.989 100.755 327.683 101.057C328.377 101.36 328.999 101.804 329.511 102.363C330.051 102.96 330.46 103.664 330.712 104.43C330.963 105.196 331.052 106.006 330.971 106.808L326.909 154.887C326.627 158.256 323.736 160.997 320.471 160.997ZM265.846 101.68C263.122 101.68 260.711 103.982 260.473 106.808L256.41 154.887C256.343 155.541 256.413 156.203 256.617 156.828C256.821 157.453 257.153 158.029 257.592 158.517C258.004 158.967 258.505 159.325 259.063 159.567C259.621 159.81 260.224 159.932 260.832 159.925H320.471C323.195 159.925 325.602 157.624 325.844 154.798L329.906 106.719C329.974 106.064 329.903 105.403 329.7 104.778C329.496 104.152 329.164 103.577 328.724 103.088C328.313 102.639 327.812 102.281 327.254 102.038C326.695 101.796 326.093 101.674 325.484 101.68H265.846Z" fill="white"/>
<path d="M255.979 117.224L253.028 151.081C252.954 151.775 253.028 152.476 253.244 153.139C253.461 153.801 253.815 154.41 254.284 154.925C254.752 155.441 255.324 155.85 255.962 156.127C256.6 156.403 257.289 156.541 257.984 156.53H317.623C319.1 156.502 320.515 155.932 321.603 154.928C322.69 153.924 323.374 152.556 323.526 151.081L326.517 116.778C325.725 117.063 324.89 117.209 324.049 117.21L255.979 117.224Z" fill="white"/>
<path d="M322.689 100.43H262.687C261.206 100.457 259.785 101.025 258.691 102.028C257.597 103.031 256.905 104.401 256.745 105.879L255.623 118.654H324.11C324.917 118.689 325.723 118.568 326.485 118.296L327.532 105.879C327.937 102.881 325.694 100.43 322.689 100.43Z" fill="#C4C4C4"/>
<path d="M322.636 99.0005H262.997C261.52 99.0292 260.104 99.5992 259.017 100.603C257.93 101.607 257.245 102.975 257.094 104.45L255.979 117.224H324.049C324.89 117.223 325.725 117.077 326.517 116.792L327.585 104.45C327.658 103.757 327.585 103.056 327.369 102.394C327.153 101.732 326.799 101.123 326.331 100.608C325.864 100.093 325.292 99.6836 324.655 99.4065C324.018 99.1294 323.33 98.991 322.636 99.0005Z" fill="#1F87DB"/>
<path d="M296.128 104.36H266.333C264.827 104.36 263.606 105.586 263.606 107.098V107.698C263.606 109.21 264.827 110.435 266.333 110.435H296.128C297.634 110.435 298.855 109.21 298.855 107.698V107.098C298.855 105.586 297.634 104.36 296.128 104.36Z" fill="#04446C" style="mix-blend-mode:darken"/>
<path d="M295.498 104.003H265.539C264.078 104.003 262.894 105.191 262.894 106.658V107.065C262.894 108.531 264.078 109.72 265.539 109.72H295.498C296.959 109.72 298.143 108.531 298.143 107.065V106.658C298.143 105.191 296.959 104.003 295.498 104.003Z" fill="white"/>
<path d="M304.912 126.058H321.461C322.021 126.058 322.478 126.514 322.478 127.08V127.409C322.478 127.975 322.021 128.431 321.461 128.431H304.912C304.352 128.431 303.895 127.975 303.895 127.409V127.08C303.895 126.514 304.352 126.058 304.912 126.058Z" stroke="#0772B6"/>
<path d="M302.912 137.058H319.461C320.021 137.058 320.478 137.514 320.478 138.08V138.409C320.478 138.975 320.021 139.431 319.461 139.431H302.912C302.352 139.431 301.895 138.975 301.895 138.409V138.08C301.895 137.514 302.352 137.058 302.912 137.058Z" stroke="#0772B6"/>
<path d="M297.912 147.058H314.461C315.021 147.058 315.478 147.514 315.478 148.08V148.409C315.478 148.975 315.021 149.431 314.461 149.431H297.912C297.352 149.431 296.895 148.975 296.895 148.409V148.08C296.895 147.514 297.352 147.058 297.912 147.058Z" stroke="#0772B6"/>
<path d="M304.908 109.72C306.284 109.72 307.4 108.6 307.4 107.219C307.4 105.838 306.284 104.718 304.908 104.718C303.531 104.718 302.416 105.838 302.416 107.219C302.416 108.6 303.531 109.72 304.908 109.72Z" fill="#7E97A3"/>
<path d="M304.552 109.363C305.928 109.363 307.044 108.243 307.044 106.862C307.044 105.48 305.928 104.36 304.552 104.36C303.175 104.36 302.06 105.48 302.06 106.862C302.06 108.243 303.175 109.363 304.552 109.363Z" fill="#64E279"/>
<path d="M312.741 109.72C314.118 109.72 315.234 108.6 315.234 107.219C315.234 105.838 314.118 104.718 312.741 104.718C311.365 104.718 310.249 105.838 310.249 107.219C310.249 108.6 311.365 109.72 312.741 109.72Z" fill="#7E97A3"/>
<path d="M312.385 109.363C313.762 109.363 314.878 108.243 314.878 106.862C314.878 105.48 313.762 104.36 312.385 104.36C311.009 104.36 309.893 105.48 309.893 106.862C309.893 108.243 311.009 109.363 312.385 109.363Z" fill="#F4FF73"/>
<path d="M320.574 109.72C321.951 109.72 323.067 108.6 323.067 107.219C323.067 105.838 321.951 104.718 320.574 104.718C319.198 104.718 318.082 105.838 318.082 107.219C318.082 108.6 319.198 109.72 320.574 109.72Z" fill="#7E97A3"/>
<path d="M320.218 109.363C321.595 109.363 322.711 108.243 322.711 106.862C322.711 105.48 321.595 104.36 320.218 104.36C318.842 104.36 317.726 105.48 317.726 106.862C317.726 108.243 318.842 109.363 320.218 109.363Z" fill="#F44437"/>
<path d="M273.576 124.728C271.015 124.728 268.511 125.476 266.367 126.881C264.224 128.286 262.535 130.288 261.507 132.641C260.479 134.994 260.157 137.597 260.579 140.131C261.002 142.665 262.151 145.021 263.886 146.91C265.621 148.799 267.867 150.14 270.35 150.769C272.832 151.397 275.443 151.287 277.864 150.45C280.284 149.613 282.409 148.086 283.979 146.057C285.549 144.027 286.496 141.582 286.703 139.021H273.576V124.728Z" fill="#03D4B4"/>
<path d="M286.301 125.257C283.883 123.073 280.745 121.866 277.492 121.869V136.163H290.62C290.648 135.805 290.666 135.448 290.666 135.091C290.668 133.236 290.28 131.401 289.528 129.707C288.776 128.012 287.676 126.496 286.301 125.257Z" fill="#03D4B4"/>
<path d="M195.196 109.428C192.513 109.428 191.626 108.584 191.386 107.799C191.029 106.613 192.089 105.203 194.09 104.199C195.726 103.376 196.496 101.751 196.857 100.4C195.615 99.1774 194.662 97.6899 194.069 96.0478C193.475 94.4057 193.257 92.6509 193.43 90.9128L195.743 64.4127C196.349 57.4447 202.493 51.7809 209.436 51.7809H241.346C242.97 51.7568 244.582 52.079 246.073 52.7261C247.564 53.3732 248.902 54.3305 249.997 55.5348C251.093 56.739 251.921 58.1628 252.427 59.7121C252.934 61.2614 253.107 62.9009 252.936 64.5224L250.627 91.0226C250.021 98.0074 243.877 103.671 236.934 103.671H209.944C207.922 105.224 203.006 108.575 197.459 109.272C196.709 109.371 195.953 109.423 195.196 109.428ZM209.436 53.0639C203.128 53.0639 197.551 58.2128 197 64.5393L194.687 91.0394C194.525 92.6467 194.739 94.2698 195.311 95.7798C195.884 97.2897 196.799 98.6449 197.984 99.7378C198.067 99.8139 198.128 99.9107 198.161 100.018C198.195 100.126 198.199 100.24 198.174 100.35C197.795 102.008 196.874 104.216 194.654 105.33C193.06 106.132 192.48 107.056 192.593 107.44C192.707 107.824 193.855 108.457 197.299 108.023C202.854 107.326 207.922 103.659 209.343 102.536C209.454 102.45 209.59 102.402 209.73 102.401H236.934C243.242 102.401 248.819 97.2519 249.37 90.9255L251.683 64.4211C251.838 62.9745 251.685 61.5113 251.234 60.1284C250.783 58.7456 250.044 57.4748 249.067 56.4001C248.089 55.3255 246.896 54.4715 245.565 53.8949C244.233 53.3183 242.795 53.0322 241.346 53.0555L209.436 53.0639Z" fill="white"/>
<path d="M235.367 48.0012H204.121C197.649 48.0012 191.896 53.3105 191.329 59.8184L189.066 85.7362C188.899 87.4054 189.121 89.0908 189.716 90.6586C190.311 92.2264 191.262 93.6334 192.494 94.7679C192.153 96.2577 191.337 98.2456 189.373 99.2289C186.009 100.917 185.588 103.871 192.317 103.027C197.864 102.331 202.83 98.7731 204.411 97.5408H231.048C237.516 97.5408 243.273 92.2272 243.837 85.7235L246.099 59.7762C246.255 58.2765 246.092 56.7606 245.622 55.3286C245.151 53.8965 244.384 52.5808 243.37 51.4682C242.356 50.3556 241.118 49.4713 239.739 48.8737C238.359 48.2761 236.869 47.9787 235.367 48.0012Z" fill="white"/>
<path d="M233.029 90.8012H230.506C230.344 90.804 230.184 90.7722 230.036 90.708C229.888 90.6438 229.755 90.5486 229.646 90.4288C229.538 90.3089 229.456 90.1672 229.406 90.0131C229.356 89.859 229.34 89.696 229.358 89.535L230.901 71.8092C230.936 71.4665 231.095 71.1485 231.347 70.9152C231.6 70.6819 231.929 70.5495 232.272 70.5431H234.795C234.957 70.541 235.116 70.5732 235.265 70.6376C235.413 70.7021 235.545 70.7972 235.654 70.9168C235.763 71.0363 235.845 71.1777 235.896 71.3315C235.947 71.4853 235.964 71.6481 235.947 71.8092L234.404 89.535C234.367 89.8777 234.207 90.1953 233.954 90.4283C233.701 90.6614 233.372 90.7939 233.029 90.8012Z" fill="#04446C" style="mix-blend-mode:darken"/>
<path d="M231.847 89.9568H229.324C229.163 89.9588 229.003 89.9266 228.854 89.8622C228.706 89.7978 228.574 89.7026 228.465 89.5831C228.356 89.4635 228.274 89.3221 228.223 89.1683C228.173 89.0145 228.155 88.8517 228.172 88.6906L229.715 70.9647C229.752 70.622 229.912 70.3045 230.165 70.0714C230.418 69.8384 230.747 69.7059 231.09 69.6986H233.613C233.775 69.6958 233.935 69.7276 234.083 69.7918C234.231 69.856 234.364 69.9512 234.473 70.071C234.581 70.1908 234.663 70.3325 234.713 70.4866C234.763 70.6408 234.779 70.8037 234.761 70.9647L233.218 88.6906C233.183 89.0333 233.024 89.3514 232.772 89.5846C232.519 89.8179 232.19 89.9503 231.847 89.9568Z" fill="#23E7BB"/>
<path d="M221.254 91.2228H218.731C218.037 91.2228 217.52 90.7544 217.583 90.1846L219.126 75.6494C219.195 75.3415 219.371 75.0682 219.622 74.8781C219.873 74.688 220.183 74.5934 220.497 74.6112H223.02C223.714 74.6112 224.231 75.0796 224.172 75.6494L222.629 90.1846C222.558 90.4924 222.381 90.7653 222.13 90.9552C221.878 91.1451 221.568 91.2399 221.254 91.2228Z" fill="#04446C" style="mix-blend-mode:darken"/>
<path d="M220.072 90.5306H217.549C216.855 90.5306 216.338 90.0622 216.397 89.4924L217.94 74.9572C218.011 74.6494 218.188 74.3766 218.439 74.1866C218.691 73.9967 219.001 73.902 219.315 73.919H221.838C222.532 73.919 223.05 74.3875 222.986 74.9572L221.443 89.4924C221.374 89.8003 221.198 90.0735 220.947 90.2636C220.696 90.4537 220.386 90.5483 220.072 90.5306Z" fill="#23E7BB"/>
<path d="M207.797 91.2229H205.274C204.58 91.2229 204.062 90.8599 204.126 90.4125L205.669 79.068C205.728 78.6206 206.346 78.2577 207.04 78.2577H209.563C210.257 78.2577 210.774 78.6206 210.715 79.068L209.172 90.4125C209.109 90.8599 208.491 91.2229 207.797 91.2229Z" fill="#04446C" style="mix-blend-mode:darken"/>
<path d="M206.615 90.6825H204.092C203.398 90.6825 202.881 90.3196 202.94 89.8722L204.483 78.5276C204.546 78.0803 205.164 77.7173 205.858 77.7173H208.381C209.075 77.7173 209.592 78.0803 209.529 78.5276L207.986 89.8722C207.923 90.3196 207.305 90.6825 206.615 90.6825Z" fill="#23E7BB"/>
<path d="M206.169 74.2944C206.194 75.1849 206.615 75.6069 207.763 75.3031C209.025 74.9612 221.334 70.5424 229.841 61.3756C229.841 61.3756 230.207 61.2532 230.165 61.6753L229.551 64.313C229.551 64.313 229.467 65.1571 230.724 65.2795C230.89 65.2994 231.057 65.2854 231.217 65.2386C231.377 65.1917 231.526 65.1129 231.655 65.0069C231.784 64.9009 231.89 64.7698 231.967 64.6215C232.044 64.4733 232.091 64.3109 232.104 64.1442L233.605 57.5055C233.605 57.5055 233.643 57.0834 232.806 57.0032L225.274 56.2562C225.027 56.3539 224.81 56.5134 224.642 56.7195C224.474 56.9257 224.362 57.1716 224.315 57.4337C224.302 57.7635 224.41 58.0867 224.618 58.3419C224.827 58.5971 225.122 58.7666 225.447 58.818L228.811 59.1514C228.811 59.1514 229.652 59.2316 229.185 59.6115C228.718 59.9913 219.622 67.6852 213.756 70.3778C207.889 73.0704 206.144 73.4081 206.169 74.2944Z" fill="#04446C" style="mix-blend-mode:darken"/>
<path d="M205.749 73.8726C205.774 74.7631 206.195 75.1851 207.343 74.8813C208.604 74.5394 220.913 70.1206 229.421 60.9538C229.421 60.9538 229.787 60.8314 229.745 61.2534L229.131 63.8912C229.131 63.8912 229.046 64.7353 230.304 64.8577C230.469 64.8775 230.637 64.8636 230.797 64.8168C230.957 64.7699 231.106 64.6911 231.235 64.5851C231.363 64.479 231.47 64.348 231.547 64.1997C231.624 64.0515 231.67 63.8891 231.683 63.7224L233.185 57.0836C233.185 57.0836 233.222 56.6616 232.385 56.5814L224.854 55.8344C224.607 55.932 224.389 56.0916 224.221 56.2977C224.053 56.5038 223.941 56.7497 223.895 57.0119C223.882 57.3417 223.989 57.6649 224.198 57.9201C224.407 58.1753 224.701 58.3447 225.026 58.3962L228.39 58.7296C228.39 58.7296 229.231 58.8098 228.765 59.1896C228.298 59.5695 219.202 67.2633 213.335 69.956C207.469 72.6486 205.724 72.9863 205.749 73.8726Z" fill="#1F87DB"/>
<defs>
<clipPath id="clip0_7368_15694">
<rect width="157" height="178" fill="white" transform="translate(18)"/>
</clipPath>
</defs>
</svg>
