<svg width="25" height="24" viewBox="0 0 25 24" fill="none" xmlns="http://www.w3.org/2000/svg">
<path d="M12.3545 23.25C18.5795 23.25 23.6045 18.225 23.6045 12H1.10449C1.10449 18.225 6.12949 23.25 12.3545 23.25Z" fill="#F9F9F9"/>
<path d="M12.3545 0.75C6.12949 0.75 1.10449 5.775 1.10449 12H23.6045C23.6045 5.775 18.5795 0.75 12.3545 0.75Z" fill="#ED4C5C"/>
<mask id="mask0_13052_7453" style="mask-type:alpha" maskUnits="userSpaceOnUse" x="0" y="0" width="25" height="24">
<path d="M12.4287 24C19.0561 24 24.4287 18.6274 24.4287 12C24.4287 5.37258 19.0561 0 12.4287 0C5.80129 0 0.428711 5.37258 0.428711 12C0.428711 18.6274 5.80129 24 12.4287 24Z" fill="white"/>
</mask>
<g mask="url(#mask0_13052_7453)">
<path d="M0.428711 0H2.65059L6.23184 0.984375L9.29746 0H10.8631L12.4662 0.778125L13.9943 0H15.56L18.86 1.06875L22.2162 0H22.9568L23.5287 0.342188L24.4287 0V2.21719L23.4959 5.87344L24.4287 8.86875V10.4344L23.66 11.8687L24.4287 13.5656V15.1312L23.7209 18.3516L24.4287 21.7875V22.5328L24.0631 23.0438L24.4287 24H22.2115L18.8834 23.1797L15.56 24H13.9943L12.5881 23.0766L10.8631 24H9.30215L6.31621 23.0531L2.6459 24H1.90059L1.40371 23.625L0.428711 24V21.7828L1.49746 18.0797L0.428711 15.1359V13.5703L1.61465 12.0703L0.428711 10.4344V8.86875L1.46934 5.84062L0.428711 2.2125V1.47187L0.803711 1.10625L0.428711 0Z" fill="#EEEEEE"/>
<path d="M2.65059 0L9.29746 6.65625V0H2.65059ZM15.56 0V6.65625L22.2162 0H15.56ZM0.428711 2.2125V8.86875H7.08496L0.428711 2.2125ZM24.4287 2.21719L17.7771 8.86875H24.4287V2.21719ZM0.428711 15.1312V21.7828L7.08027 15.1312H0.428711ZM17.7725 15.1312L24.4287 21.7875V15.1312H17.7725ZM9.30215 17.3438L2.6459 24H9.30215V17.3438ZM15.56 17.3484V24H22.2115L15.56 17.3484Z" fill="#0052B4"/>
<path d="M10.8631 0V10.4344H0.428711V13.5656H10.8631V24H13.9943V13.5656H24.4287V10.4344H13.9943V0H10.8631Z" fill="#D80027"/>
<path d="M0.428711 0V1.47187L7.8209 8.86875H9.29746L0.428711 0ZM22.9568 0L15.56 7.39219V8.86875L24.4287 0H22.9568ZM9.29746 15.1312L0.428711 24H1.90059L9.29746 16.6078V15.1312ZM15.56 15.1312L24.424 24H24.4287V22.5328L17.0365 15.1312H15.56Z" fill="#D80027"/>
</g>
</svg>
